G04 #@! TF.GenerationSoftware,KiCad,Pcbnew,8.0.6-8.0.6-0~ubuntu24.10.1*
G04 #@! TF.CreationDate,2024-10-17T11:16:10-07:00*
G04 #@! TF.ProjectId,kim1-power,6b696d31-2d70-46f7-9765-722e6b696361,1.2*
G04 #@! TF.SameCoordinates,Original*
G04 #@! TF.FileFunction,Soldermask,Top*
G04 #@! TF.FilePolarity,Negative*
%FSLAX46Y46*%
G04 Gerber Fmt 4.6, Leading zero omitted, Abs format (unit mm)*
G04 Created by KiCad (PCBNEW 8.0.6-8.0.6-0~ubuntu24.10.1) date 2024-10-17 11:16:10*
%MOMM*%
%LPD*%
G01*
G04 APERTURE LIST*
G04 Aperture macros list*
%AMRoundRect*
0 Rectangle with rounded corners*
0 $1 Rounding radius*
0 $2 $3 $4 $5 $6 $7 $8 $9 X,Y pos of 4 corners*
0 Add a 4 corners polygon primitive as box body*
4,1,4,$2,$3,$4,$5,$6,$7,$8,$9,$2,$3,0*
0 Add four circle primitives for the rounded corners*
1,1,$1+$1,$2,$3*
1,1,$1+$1,$4,$5*
1,1,$1+$1,$6,$7*
1,1,$1+$1,$8,$9*
0 Add four rect primitives between the rounded corners*
20,1,$1+$1,$2,$3,$4,$5,0*
20,1,$1+$1,$4,$5,$6,$7,0*
20,1,$1+$1,$6,$7,$8,$9,0*
20,1,$1+$1,$8,$9,$2,$3,0*%
G04 Aperture macros list end*
%ADD10RoundRect,0.500000X-3.250000X-0.500000X3.250000X-0.500000X3.250000X0.500000X-3.250000X0.500000X0*%
%ADD11R,4.600000X2.000000*%
%ADD12O,4.200000X2.000000*%
%ADD13O,2.000000X4.200000*%
%ADD14R,1.600000X1.600000*%
%ADD15O,1.600000X1.600000*%
%ADD16C,1.600000*%
%ADD17R,2.200000X2.200000*%
%ADD18O,2.200000X2.200000*%
%ADD19R,1.700000X1.700000*%
%ADD20O,1.700000X1.700000*%
%ADD21R,1.800000X1.800000*%
%ADD22C,1.800000*%
G04 APERTURE END LIST*
D10*
G04 #@! TO.C,J1*
X106100000Y-57420000D03*
X106100000Y-61380000D03*
X106100000Y-65340000D03*
X106100000Y-69300000D03*
X106100000Y-73260000D03*
X106100000Y-77220000D03*
X106100000Y-81180000D03*
X106100000Y-85140000D03*
X106100000Y-89100000D03*
X106100000Y-93060000D03*
X106100000Y-97020000D03*
X106100000Y-100980000D03*
X106100000Y-104940000D03*
X106100000Y-108900000D03*
X106100000Y-112860000D03*
X106100000Y-116820000D03*
X106100000Y-120780000D03*
X106100000Y-124740000D03*
X106100000Y-128700000D03*
X106100000Y-132660000D03*
X106100000Y-136620000D03*
X106100000Y-140580000D03*
G04 #@! TD*
D11*
G04 #@! TO.C,J4*
X124450000Y-131050000D03*
D12*
X124450000Y-137350000D03*
D13*
X129250000Y-133950000D03*
G04 #@! TD*
D14*
G04 #@! TO.C,SW1*
X136500000Y-143167500D03*
D15*
X136500000Y-135547500D03*
G04 #@! TD*
D16*
G04 #@! TO.C,R1*
X124600000Y-114780000D03*
D15*
X124600000Y-104620000D03*
G04 #@! TD*
D17*
G04 #@! TO.C,D2*
X132100000Y-117890000D03*
D18*
X132100000Y-125510000D03*
G04 #@! TD*
D19*
G04 #@! TO.C,J5*
X166200000Y-138260000D03*
D20*
X166200000Y-140800000D03*
G04 #@! TD*
D10*
G04 #@! TO.C,J2*
X184800000Y-57360000D03*
X184800000Y-61320000D03*
X184800000Y-65280000D03*
X184800000Y-69240000D03*
X184800000Y-73200000D03*
X184800000Y-77160000D03*
X184800000Y-81120000D03*
X184800000Y-85080000D03*
X184800000Y-89040000D03*
X184800000Y-93000000D03*
X184800000Y-96960000D03*
X184800000Y-100920000D03*
X184800000Y-104880000D03*
X184800000Y-108840000D03*
X184800000Y-112800000D03*
X184800000Y-116760000D03*
X184800000Y-120720000D03*
X184800000Y-124680000D03*
X184800000Y-128640000D03*
X184800000Y-132600000D03*
X184800000Y-136560000D03*
X184800000Y-140520000D03*
G04 #@! TD*
D21*
G04 #@! TO.C,D1*
X123325000Y-122000000D03*
D22*
X125865000Y-122000000D03*
G04 #@! TD*
D19*
G04 #@! TO.C,J3*
X144400000Y-72540000D03*
D20*
X144400000Y-75080000D03*
X144400000Y-77620000D03*
X144400000Y-80160000D03*
X144400000Y-82700000D03*
X144400000Y-85240000D03*
X144400000Y-87780000D03*
X144400000Y-90320000D03*
X144400000Y-92860000D03*
X144400000Y-95400000D03*
X144400000Y-97940000D03*
X144400000Y-100480000D03*
X144400000Y-103020000D03*
X144400000Y-105560000D03*
X144400000Y-108100000D03*
X144400000Y-110640000D03*
X144400000Y-113180000D03*
X144400000Y-115720000D03*
X144400000Y-118260000D03*
X144400000Y-120800000D03*
X144400000Y-123340000D03*
X144400000Y-125880000D03*
X146940000Y-72540000D03*
X146940000Y-75080000D03*
X146940000Y-77620000D03*
X146940000Y-80160000D03*
X146940000Y-82700000D03*
X146940000Y-85240000D03*
X146940000Y-87780000D03*
X146940000Y-90320000D03*
X146940000Y-92860000D03*
X146940000Y-95400000D03*
X146940000Y-97940000D03*
X146940000Y-100480000D03*
X146940000Y-103020000D03*
X146940000Y-105560000D03*
X146940000Y-108100000D03*
X146940000Y-110640000D03*
X146940000Y-113180000D03*
X146940000Y-115720000D03*
X146940000Y-118260000D03*
X146940000Y-120800000D03*
X146940000Y-123340000D03*
X146940000Y-125880000D03*
G04 #@! TD*
M02*
