G04 #@! TF.GenerationSoftware,KiCad,Pcbnew,8.0.6-8.0.6-0~ubuntu24.10.1*
G04 #@! TF.CreationDate,2024-10-17T11:16:10-07:00*
G04 #@! TF.ProjectId,kim1-power,6b696d31-2d70-46f7-9765-722e6b696361,1.2*
G04 #@! TF.SameCoordinates,Original*
G04 #@! TF.FileFunction,Copper,L2,Bot*
G04 #@! TF.FilePolarity,Positive*
%FSLAX46Y46*%
G04 Gerber Fmt 4.6, Leading zero omitted, Abs format (unit mm)*
G04 Created by KiCad (PCBNEW 8.0.6-8.0.6-0~ubuntu24.10.1) date 2024-10-17 11:16:10*
%MOMM*%
%LPD*%
G01*
G04 APERTURE LIST*
G04 Aperture macros list*
%AMRoundRect*
0 Rectangle with rounded corners*
0 $1 Rounding radius*
0 $2 $3 $4 $5 $6 $7 $8 $9 X,Y pos of 4 corners*
0 Add a 4 corners polygon primitive as box body*
4,1,4,$2,$3,$4,$5,$6,$7,$8,$9,$2,$3,0*
0 Add four circle primitives for the rounded corners*
1,1,$1+$1,$2,$3*
1,1,$1+$1,$4,$5*
1,1,$1+$1,$6,$7*
1,1,$1+$1,$8,$9*
0 Add four rect primitives between the rounded corners*
20,1,$1+$1,$2,$3,$4,$5,0*
20,1,$1+$1,$4,$5,$6,$7,0*
20,1,$1+$1,$6,$7,$8,$9,0*
20,1,$1+$1,$8,$9,$2,$3,0*%
G04 Aperture macros list end*
G04 #@! TA.AperFunction,SMDPad,CuDef*
%ADD10RoundRect,0.500000X-3.250000X-0.500000X3.250000X-0.500000X3.250000X0.500000X-3.250000X0.500000X0*%
G04 #@! TD*
G04 #@! TA.AperFunction,ComponentPad*
%ADD11R,4.600000X2.000000*%
G04 #@! TD*
G04 #@! TA.AperFunction,ComponentPad*
%ADD12O,4.200000X2.000000*%
G04 #@! TD*
G04 #@! TA.AperFunction,ComponentPad*
%ADD13O,2.000000X4.200000*%
G04 #@! TD*
G04 #@! TA.AperFunction,ComponentPad*
%ADD14R,1.600000X1.600000*%
G04 #@! TD*
G04 #@! TA.AperFunction,ComponentPad*
%ADD15O,1.600000X1.600000*%
G04 #@! TD*
G04 #@! TA.AperFunction,ComponentPad*
%ADD16C,1.600000*%
G04 #@! TD*
G04 #@! TA.AperFunction,ComponentPad*
%ADD17R,2.200000X2.200000*%
G04 #@! TD*
G04 #@! TA.AperFunction,ComponentPad*
%ADD18O,2.200000X2.200000*%
G04 #@! TD*
G04 #@! TA.AperFunction,ComponentPad*
%ADD19R,1.700000X1.700000*%
G04 #@! TD*
G04 #@! TA.AperFunction,ComponentPad*
%ADD20O,1.700000X1.700000*%
G04 #@! TD*
G04 #@! TA.AperFunction,ComponentPad*
%ADD21R,1.800000X1.800000*%
G04 #@! TD*
G04 #@! TA.AperFunction,ComponentPad*
%ADD22C,1.800000*%
G04 #@! TD*
G04 #@! TA.AperFunction,ViaPad*
%ADD23C,0.600000*%
G04 #@! TD*
G04 #@! TA.AperFunction,Conductor*
%ADD24C,0.200000*%
G04 #@! TD*
G04 #@! TA.AperFunction,Conductor*
%ADD25C,0.600000*%
G04 #@! TD*
G04 APERTURE END LIST*
D10*
G04 #@! TO.P,J1,A,Pin_A*
G04 #@! TO.N,+5V*
X106100000Y-57420000D03*
G04 #@! TO.P,J1,B,Pin_B*
G04 #@! TO.N,Net-(J1-Pin_B)*
X106100000Y-61380000D03*
G04 #@! TO.P,J1,C,Pin_C*
G04 #@! TO.N,Net-(J1-Pin_C)*
X106100000Y-65340000D03*
G04 #@! TO.P,J1,D,Pin_D*
G04 #@! TO.N,Net-(J1-Pin_D)*
X106100000Y-69300000D03*
G04 #@! TO.P,J1,E,Pin_E*
G04 #@! TO.N,Net-(J1-Pin_E)*
X106100000Y-73260000D03*
G04 #@! TO.P,J1,F,Pin_F*
G04 #@! TO.N,Net-(J1-Pin_F)*
X106100000Y-77220000D03*
G04 #@! TO.P,J1,H,Pin_H*
G04 #@! TO.N,Net-(J1-Pin_H)*
X106100000Y-81180000D03*
G04 #@! TO.P,J1,J,Pin_J*
G04 #@! TO.N,Net-(J1-Pin_J)*
X106100000Y-85140000D03*
G04 #@! TO.P,J1,K,Pin_K*
G04 #@! TO.N,Net-(J1-Pin_K)*
X106100000Y-89100000D03*
G04 #@! TO.P,J1,L,Pin_L*
G04 #@! TO.N,Net-(J1-Pin_L)*
X106100000Y-93060000D03*
G04 #@! TO.P,J1,M,Pin_M*
G04 #@! TO.N,Net-(J1-Pin_M)*
X106100000Y-97020000D03*
G04 #@! TO.P,J1,N,Pin_N*
G04 #@! TO.N,Net-(J1-Pin_N)*
X106100000Y-100980000D03*
G04 #@! TO.P,J1,P,Pin_P*
G04 #@! TO.N,Net-(J1-Pin_P)*
X106100000Y-104940000D03*
G04 #@! TO.P,J1,R,Pin_R*
G04 #@! TO.N,Net-(J1-Pin_R)*
X106100000Y-108900000D03*
G04 #@! TO.P,J1,S,Pin_S*
G04 #@! TO.N,Net-(J1-Pin_S)*
X106100000Y-112860000D03*
G04 #@! TO.P,J1,T,Pin_T*
G04 #@! TO.N,Net-(J1-Pin_T)*
X106100000Y-116820000D03*
G04 #@! TO.P,J1,U,Pin_U*
G04 #@! TO.N,Net-(J1-Pin_U)*
X106100000Y-120780000D03*
G04 #@! TO.P,J1,V,Pin_V*
G04 #@! TO.N,Net-(J1-Pin_V)*
X106100000Y-124740000D03*
G04 #@! TO.P,J1,W,Pin_W*
G04 #@! TO.N,Net-(J1-Pin_W)*
X106100000Y-128700000D03*
G04 #@! TO.P,J1,X,Pin_X*
G04 #@! TO.N,Net-(J1-Pin_X)*
X106100000Y-132660000D03*
G04 #@! TO.P,J1,Y,Pin_Y*
G04 #@! TO.N,Net-(J1-Pin_Y)*
X106100000Y-136620000D03*
G04 #@! TO.P,J1,Z,Pin_Z*
G04 #@! TO.N,Net-(J1-Pin_Z)*
X106100000Y-140580000D03*
G04 #@! TD*
D11*
G04 #@! TO.P,J4,1*
G04 #@! TO.N,Net-(J4-Pad1)*
X124450000Y-131050000D03*
D12*
G04 #@! TO.P,J4,2*
G04 #@! TO.N,GND*
X124450000Y-137350000D03*
D13*
G04 #@! TO.P,J4,3*
G04 #@! TO.N,N/C*
X129250000Y-133950000D03*
G04 #@! TD*
D14*
G04 #@! TO.P,SW1,1*
G04 #@! TO.N,Net-(J4-Pad1)*
X136500000Y-143167500D03*
D15*
G04 #@! TO.P,SW1,2*
G04 #@! TO.N,Net-(D2-A)*
X136500000Y-135547500D03*
G04 #@! TD*
D16*
G04 #@! TO.P,R1,1*
G04 #@! TO.N,Net-(D2-A)*
X124600000Y-114780000D03*
D15*
G04 #@! TO.P,R1,2*
G04 #@! TO.N,Net-(D1-A)*
X124600000Y-104620000D03*
G04 #@! TD*
D17*
G04 #@! TO.P,D2,1,K*
G04 #@! TO.N,+5V*
X132100000Y-117890000D03*
D18*
G04 #@! TO.P,D2,2,A*
G04 #@! TO.N,Net-(D2-A)*
X132100000Y-125510000D03*
G04 #@! TD*
D19*
G04 #@! TO.P,J5,1,Pin_1*
G04 #@! TO.N,Net-(J1-Pin_K)*
X166200000Y-138260000D03*
D20*
G04 #@! TO.P,J5,2,Pin_2*
G04 #@! TO.N,GND*
X166200000Y-140800000D03*
G04 #@! TD*
D10*
G04 #@! TO.P,J2,A,Pin_A*
G04 #@! TO.N,+5V*
X184800000Y-57360000D03*
G04 #@! TO.P,J2,B,Pin_B*
G04 #@! TO.N,Net-(J1-Pin_B)*
X184800000Y-61320000D03*
G04 #@! TO.P,J2,C,Pin_C*
G04 #@! TO.N,Net-(J1-Pin_C)*
X184800000Y-65280000D03*
G04 #@! TO.P,J2,D,Pin_D*
G04 #@! TO.N,Net-(J1-Pin_D)*
X184800000Y-69240000D03*
G04 #@! TO.P,J2,E,Pin_E*
G04 #@! TO.N,Net-(J1-Pin_E)*
X184800000Y-73200000D03*
G04 #@! TO.P,J2,F,Pin_F*
G04 #@! TO.N,Net-(J1-Pin_F)*
X184800000Y-77160000D03*
G04 #@! TO.P,J2,H,Pin_H*
G04 #@! TO.N,Net-(J1-Pin_H)*
X184800000Y-81120000D03*
G04 #@! TO.P,J2,J,Pin_J*
G04 #@! TO.N,Net-(J1-Pin_J)*
X184800000Y-85080000D03*
G04 #@! TO.P,J2,K,Pin_K*
G04 #@! TO.N,Net-(J1-Pin_K)*
X184800000Y-89040000D03*
G04 #@! TO.P,J2,L,Pin_L*
G04 #@! TO.N,Net-(J1-Pin_L)*
X184800000Y-93000000D03*
G04 #@! TO.P,J2,M,Pin_M*
G04 #@! TO.N,Net-(J1-Pin_M)*
X184800000Y-96960000D03*
G04 #@! TO.P,J2,N,Pin_N*
G04 #@! TO.N,Net-(J1-Pin_N)*
X184800000Y-100920000D03*
G04 #@! TO.P,J2,P,Pin_P*
G04 #@! TO.N,Net-(J1-Pin_P)*
X184800000Y-104880000D03*
G04 #@! TO.P,J2,R,Pin_R*
G04 #@! TO.N,Net-(J1-Pin_R)*
X184800000Y-108840000D03*
G04 #@! TO.P,J2,S,Pin_S*
G04 #@! TO.N,Net-(J1-Pin_S)*
X184800000Y-112800000D03*
G04 #@! TO.P,J2,T,Pin_T*
G04 #@! TO.N,Net-(J1-Pin_T)*
X184800000Y-116760000D03*
G04 #@! TO.P,J2,U,Pin_U*
G04 #@! TO.N,Net-(J1-Pin_U)*
X184800000Y-120720000D03*
G04 #@! TO.P,J2,V,Pin_V*
G04 #@! TO.N,Net-(J1-Pin_V)*
X184800000Y-124680000D03*
G04 #@! TO.P,J2,W,Pin_W*
G04 #@! TO.N,Net-(J1-Pin_W)*
X184800000Y-128640000D03*
G04 #@! TO.P,J2,X,Pin_X*
G04 #@! TO.N,Net-(J1-Pin_X)*
X184800000Y-132600000D03*
G04 #@! TO.P,J2,Y,Pin_Y*
G04 #@! TO.N,Net-(J1-Pin_Y)*
X184800000Y-136560000D03*
G04 #@! TO.P,J2,Z,Pin_Z*
G04 #@! TO.N,Net-(J1-Pin_Z)*
X184800000Y-140520000D03*
G04 #@! TD*
D21*
G04 #@! TO.P,D1,1,K*
G04 #@! TO.N,GND*
X123325000Y-122000000D03*
D22*
G04 #@! TO.P,D1,2,A*
G04 #@! TO.N,Net-(D1-A)*
X125865000Y-122000000D03*
G04 #@! TD*
D19*
G04 #@! TO.P,J3,1,Pin_1*
G04 #@! TO.N,GND*
X144400000Y-72540000D03*
D20*
G04 #@! TO.P,J3,2,Pin_2*
G04 #@! TO.N,Net-(J1-Pin_2)*
X144400000Y-75080000D03*
G04 #@! TO.P,J3,3,Pin_3*
G04 #@! TO.N,Net-(J1-Pin_3)*
X144400000Y-77620000D03*
G04 #@! TO.P,J3,4,Pin_4*
G04 #@! TO.N,Net-(J1-Pin_4)*
X144400000Y-80160000D03*
G04 #@! TO.P,J3,5,Pin_5*
G04 #@! TO.N,Net-(J1-Pin_5)*
X144400000Y-82700000D03*
G04 #@! TO.P,J3,6,Pin_6*
G04 #@! TO.N,Net-(J1-Pin_6)*
X144400000Y-85240000D03*
G04 #@! TO.P,J3,7,Pin_7*
G04 #@! TO.N,Net-(J1-Pin_7)*
X144400000Y-87780000D03*
G04 #@! TO.P,J3,8,Pin_8*
G04 #@! TO.N,Net-(J1-Pin_8)*
X144400000Y-90320000D03*
G04 #@! TO.P,J3,9,Pin_9*
G04 #@! TO.N,Net-(J1-Pin_9)*
X144400000Y-92860000D03*
G04 #@! TO.P,J3,10,Pin_10*
G04 #@! TO.N,Net-(J1-Pin_10)*
X144400000Y-95400000D03*
G04 #@! TO.P,J3,11,Pin_11*
G04 #@! TO.N,Net-(J1-Pin_11)*
X144400000Y-97940000D03*
G04 #@! TO.P,J3,12,Pin_12*
G04 #@! TO.N,Net-(J1-Pin_12)*
X144400000Y-100480000D03*
G04 #@! TO.P,J3,13,Pin_13*
G04 #@! TO.N,Net-(J1-Pin_13)*
X144400000Y-103020000D03*
G04 #@! TO.P,J3,14,Pin_14*
G04 #@! TO.N,Net-(J1-Pin_14)*
X144400000Y-105560000D03*
G04 #@! TO.P,J3,15,Pin_15*
G04 #@! TO.N,Net-(J1-Pin_15)*
X144400000Y-108100000D03*
G04 #@! TO.P,J3,16,Pin_16*
G04 #@! TO.N,Net-(J1-Pin_16)*
X144400000Y-110640000D03*
G04 #@! TO.P,J3,17,Pin_17*
G04 #@! TO.N,Net-(J1-Pin_17)*
X144400000Y-113180000D03*
G04 #@! TO.P,J3,18,Pin_18*
G04 #@! TO.N,Net-(J1-Pin_18)*
X144400000Y-115720000D03*
G04 #@! TO.P,J3,19,Pin_19*
G04 #@! TO.N,Net-(J1-Pin_19)*
X144400000Y-118260000D03*
G04 #@! TO.P,J3,20,Pin_20*
G04 #@! TO.N,Net-(J1-Pin_20)*
X144400000Y-120800000D03*
G04 #@! TO.P,J3,21,Pin_21*
G04 #@! TO.N,Net-(J1-Pin_21)*
X144400000Y-123340000D03*
G04 #@! TO.P,J3,22,Pin_22*
G04 #@! TO.N,Net-(J1-Pin_22)*
X144400000Y-125880000D03*
G04 #@! TO.P,J3,A,Pin_A*
G04 #@! TO.N,+5V*
X146940000Y-72540000D03*
G04 #@! TO.P,J3,B,Pin_B*
G04 #@! TO.N,Net-(J1-Pin_B)*
X146940000Y-75080000D03*
G04 #@! TO.P,J3,C,Pin_C*
G04 #@! TO.N,Net-(J1-Pin_C)*
X146940000Y-77620000D03*
G04 #@! TO.P,J3,D,Pin_D*
G04 #@! TO.N,Net-(J1-Pin_D)*
X146940000Y-80160000D03*
G04 #@! TO.P,J3,E,Pin_E*
G04 #@! TO.N,Net-(J1-Pin_E)*
X146940000Y-82700000D03*
G04 #@! TO.P,J3,F,Pin_F*
G04 #@! TO.N,Net-(J1-Pin_F)*
X146940000Y-85240000D03*
G04 #@! TO.P,J3,H,Pin_H*
G04 #@! TO.N,Net-(J1-Pin_H)*
X146940000Y-87780000D03*
G04 #@! TO.P,J3,J,Pin_J*
G04 #@! TO.N,Net-(J1-Pin_J)*
X146940000Y-90320000D03*
G04 #@! TO.P,J3,K,Pin_K*
G04 #@! TO.N,Net-(J1-Pin_K)*
X146940000Y-92860000D03*
G04 #@! TO.P,J3,L,Pin_L*
G04 #@! TO.N,Net-(J1-Pin_L)*
X146940000Y-95400000D03*
G04 #@! TO.P,J3,M,Pin_M*
G04 #@! TO.N,Net-(J1-Pin_M)*
X146940000Y-97940000D03*
G04 #@! TO.P,J3,N,Pin_N*
G04 #@! TO.N,Net-(J1-Pin_N)*
X146940000Y-100480000D03*
G04 #@! TO.P,J3,P,Pin_P*
G04 #@! TO.N,Net-(J1-Pin_P)*
X146940000Y-103020000D03*
G04 #@! TO.P,J3,R,Pin_R*
G04 #@! TO.N,Net-(J1-Pin_R)*
X146940000Y-105560000D03*
G04 #@! TO.P,J3,S,Pin_S*
G04 #@! TO.N,Net-(J1-Pin_S)*
X146940000Y-108100000D03*
G04 #@! TO.P,J3,T,Pin_T*
G04 #@! TO.N,Net-(J1-Pin_T)*
X146940000Y-110640000D03*
G04 #@! TO.P,J3,U,Pin_U*
G04 #@! TO.N,Net-(J1-Pin_U)*
X146940000Y-113180000D03*
G04 #@! TO.P,J3,V,Pin_V*
G04 #@! TO.N,Net-(J1-Pin_V)*
X146940000Y-115720000D03*
G04 #@! TO.P,J3,W,Pin_W*
G04 #@! TO.N,Net-(J1-Pin_W)*
X146940000Y-118260000D03*
G04 #@! TO.P,J3,X,Pin_X*
G04 #@! TO.N,Net-(J1-Pin_X)*
X146940000Y-120800000D03*
G04 #@! TO.P,J3,Y,Pin_Y*
G04 #@! TO.N,Net-(J1-Pin_Y)*
X146940000Y-123340000D03*
G04 #@! TO.P,J3,Z,Pin_Z*
G04 #@! TO.N,Net-(J1-Pin_Z)*
X146940000Y-125880000D03*
G04 #@! TD*
D23*
G04 #@! TO.N,Net-(J1-Pin_6)*
X113195400Y-78785700D03*
G04 #@! TO.N,Net-(J1-Pin_13)*
X121739600Y-102843000D03*
G04 #@! TO.N,Net-(J1-Pin_9)*
X109824800Y-90546000D03*
G04 #@! TO.N,Net-(J1-Pin_11)*
X110240000Y-98054700D03*
G04 #@! TO.N,Net-(J1-Pin_8)*
X108382800Y-87422800D03*
G04 #@! TO.N,Net-(J1-Pin_5)*
X119060000Y-75625500D03*
G04 #@! TO.N,Net-(J1-Pin_17)*
X166871500Y-113140100D03*
G04 #@! TO.N,Net-(J1-Pin_14)*
X121739600Y-107239700D03*
G04 #@! TO.N,Net-(J1-Pin_10)*
X121739600Y-94630400D03*
G04 #@! TO.N,Net-(J1-Pin_12)*
X113195400Y-99567600D03*
G04 #@! TO.N,Net-(J1-Pin_4)*
X119060000Y-71051100D03*
G04 #@! TO.N,Net-(J1-Pin_2)*
X112125400Y-62107200D03*
G04 #@! TO.N,Net-(J1-Pin_3)*
X113195400Y-66925500D03*
G04 #@! TO.N,Net-(J1-Pin_7)*
X121739600Y-84693300D03*
G04 #@! TO.N,Net-(J1-Pin_U)*
X142929600Y-114321200D03*
G04 #@! TD*
D24*
G04 #@! TO.N,Net-(J1-Pin_6)*
X113195400Y-78785700D02*
X136794000Y-78785700D01*
X144400000Y-85240000D02*
X143248300Y-85240000D01*
X136794000Y-78785700D02*
X143248300Y-85240000D01*
G04 #@! TO.N,Net-(J1-Pin_13)*
X144400000Y-103020000D02*
X121916600Y-103020000D01*
X121916600Y-103020000D02*
X121739600Y-102843000D01*
G04 #@! TO.N,Net-(J1-Pin_9)*
X144400000Y-92860000D02*
X143248300Y-92860000D01*
X112138800Y-92860000D02*
X109824800Y-90546000D01*
X143248300Y-92860000D02*
X112138800Y-92860000D01*
G04 #@! TO.N,Net-(J1-Pin_11)*
X110240000Y-98054700D02*
X143133600Y-98054700D01*
X143133600Y-98054700D02*
X143248300Y-97940000D01*
X144400000Y-97940000D02*
X143248300Y-97940000D01*
G04 #@! TO.N,Net-(J1-Pin_8)*
X130455200Y-87422800D02*
X108382800Y-87422800D01*
X144400000Y-90320000D02*
X143248300Y-90320000D01*
X133352400Y-90320000D02*
X130455200Y-87422800D01*
X143248300Y-90320000D02*
X133352400Y-90320000D01*
G04 #@! TO.N,Net-(J1-Pin_5)*
X136173800Y-75625500D02*
X143248300Y-82700000D01*
X144400000Y-82700000D02*
X143248300Y-82700000D01*
X119060000Y-75625500D02*
X136173800Y-75625500D01*
G04 #@! TO.N,Net-(J1-Pin_17)*
X165755300Y-112023900D02*
X166871500Y-113140100D01*
X145551700Y-112892100D02*
X146419900Y-112023900D01*
X145551700Y-113180000D02*
X145551700Y-112892100D01*
X146419900Y-112023900D02*
X165755300Y-112023900D01*
X144400000Y-113180000D02*
X145551700Y-113180000D01*
G04 #@! TO.N,Net-(J1-Pin_14)*
X142566200Y-106242100D02*
X122737200Y-106242100D01*
X143248300Y-105560000D02*
X142566200Y-106242100D01*
X144400000Y-105560000D02*
X143248300Y-105560000D01*
X122737200Y-106242100D02*
X121739600Y-107239700D01*
G04 #@! TO.N,Net-(J1-Pin_10)*
X122509200Y-95400000D02*
X121739600Y-94630400D01*
X144400000Y-95400000D02*
X122509200Y-95400000D01*
G04 #@! TO.N,Net-(J1-Pin_12)*
X114107800Y-100480000D02*
X113195400Y-99567600D01*
X144400000Y-100480000D02*
X114107800Y-100480000D01*
G04 #@! TO.N,Net-(J1-Pin_4)*
X133656200Y-71051100D02*
X142765100Y-80160000D01*
X142765100Y-80160000D02*
X144400000Y-80160000D01*
X119060000Y-71051100D02*
X133656200Y-71051100D01*
G04 #@! TO.N,Net-(J1-Pin_2)*
X144400000Y-75080000D02*
X143248300Y-75080000D01*
X130275500Y-62107200D02*
X143248300Y-75080000D01*
X112125400Y-62107200D02*
X130275500Y-62107200D01*
G04 #@! TO.N,Net-(J1-Pin_3)*
X144400000Y-77620000D02*
X142517200Y-77620000D01*
X133379200Y-69567400D02*
X132811200Y-69567400D01*
X132811200Y-69567400D02*
X130169300Y-66925500D01*
X142517200Y-77620000D02*
X142517200Y-77453700D01*
X142517200Y-77453700D02*
X142281800Y-77218300D01*
X141030100Y-77218300D02*
X133379200Y-69567400D01*
X142281800Y-77218300D02*
X141030100Y-77218300D01*
X130169300Y-66925500D02*
X113195400Y-66925500D01*
G04 #@! TO.N,Net-(J1-Pin_7)*
X143248300Y-87780000D02*
X140161600Y-84693300D01*
X140161600Y-84693300D02*
X121739600Y-84693300D01*
X144400000Y-87780000D02*
X143248300Y-87780000D01*
D25*
G04 #@! TO.N,GND*
X123325000Y-122000000D02*
X123325000Y-123401700D01*
X166200000Y-140800000D02*
X164848300Y-140800000D01*
X124450000Y-136898700D02*
X160947000Y-136898700D01*
X160947000Y-136898700D02*
X164848300Y-140800000D01*
X124450000Y-137350000D02*
X124450000Y-136898700D01*
X123325000Y-123401700D02*
X127261100Y-127337800D01*
X127261100Y-133037200D02*
X124450000Y-135848300D01*
X124450000Y-136898700D02*
X124450000Y-135848300D01*
X127261100Y-127337800D02*
X127261100Y-133037200D01*
D24*
G04 #@! TO.N,Net-(J4-Pad1)*
X127286000Y-143167500D02*
X122011100Y-137892600D01*
X124450000Y-131050000D02*
X124450000Y-132351700D01*
X122011100Y-137892600D02*
X122011100Y-134790600D01*
X122011100Y-134790600D02*
X124450000Y-132351700D01*
X136500000Y-143167500D02*
X127286000Y-143167500D01*
G04 #@! TO.N,Net-(J1-Pin_K)*
X188868800Y-141351800D02*
X188352100Y-141868500D01*
X147652700Y-92860000D02*
X146453500Y-91660800D01*
X146940000Y-92860000D02*
X147515900Y-92860000D01*
X170960200Y-141868500D02*
X167351700Y-138260000D01*
X112956300Y-91660800D02*
X110395500Y-89100000D01*
X110395500Y-89100000D02*
X106100000Y-89100000D01*
X146453500Y-91660800D02*
X112956300Y-91660800D01*
X185755100Y-89040000D02*
X188868800Y-92153700D01*
X188352100Y-141868500D02*
X170960200Y-141868500D01*
X148091700Y-92860000D02*
X151911700Y-89040000D01*
X151911700Y-89040000D02*
X184800000Y-89040000D01*
X184800000Y-89040000D02*
X185755100Y-89040000D01*
X147515900Y-92860000D02*
X147652700Y-92860000D01*
X147652700Y-92860000D02*
X148091700Y-92860000D01*
X188868800Y-92153700D02*
X188868800Y-141351800D01*
X166200000Y-138260000D02*
X167351700Y-138260000D01*
G04 #@! TO.N,+5V*
X146940000Y-72540000D02*
X148091700Y-72540000D01*
X148091700Y-72540000D02*
X163271700Y-57360000D01*
X163271700Y-57360000D02*
X184800000Y-57360000D01*
X132971700Y-57420000D02*
X106100000Y-57420000D01*
X148091700Y-72540000D02*
X132971700Y-57420000D01*
G04 #@! TO.N,Net-(J1-Pin_D)*
X159011700Y-69240000D02*
X184800000Y-69240000D01*
X145788300Y-79872000D02*
X144924600Y-79008300D01*
X133212900Y-69969100D02*
X106769100Y-69969100D01*
X148091700Y-80160000D02*
X159011700Y-69240000D01*
X147515900Y-80160000D02*
X148091700Y-80160000D01*
X142252100Y-79008300D02*
X133212900Y-69969100D01*
X106769100Y-69969100D02*
X106100000Y-69300000D01*
X147515900Y-80160000D02*
X146940000Y-80160000D01*
X145788300Y-80160000D02*
X145788300Y-79872000D01*
X144924600Y-79008300D02*
X142252100Y-79008300D01*
X146940000Y-80160000D02*
X145788300Y-80160000D01*
G04 #@! TO.N,Net-(J1-Pin_V)*
X128972000Y-115646200D02*
X142556200Y-115646200D01*
X106100000Y-124740000D02*
X111070600Y-124740000D01*
X143642700Y-114559700D02*
X144896500Y-114559700D01*
X144896500Y-114559700D02*
X145788300Y-115451500D01*
X146387300Y-115720000D02*
X146940000Y-115720000D01*
X173551200Y-119858200D02*
X178373000Y-124680000D01*
X145788300Y-115451500D02*
X145788300Y-115720000D01*
X142556200Y-115646200D02*
X143642700Y-114559700D01*
X146387300Y-115720000D02*
X145788300Y-115720000D01*
X152229900Y-119858200D02*
X173551200Y-119858200D01*
X118730500Y-117080100D02*
X127538100Y-117080100D01*
X146940000Y-115720000D02*
X148091700Y-115720000D01*
X127538100Y-117080100D02*
X128972000Y-115646200D01*
X178373000Y-124680000D02*
X184800000Y-124680000D01*
X111070600Y-124740000D02*
X118730500Y-117080100D01*
X148091700Y-115720000D02*
X152229900Y-119858200D01*
G04 #@! TO.N,Net-(J1-Pin_S)*
X146940000Y-108100000D02*
X148091700Y-108100000D01*
X107026500Y-112860000D02*
X106100000Y-112860000D01*
X144777100Y-109370000D02*
X110516500Y-109370000D01*
X145788300Y-108100000D02*
X145788300Y-108358800D01*
X145788300Y-108358800D02*
X144777100Y-109370000D01*
X150135300Y-110143600D02*
X148091700Y-108100000D01*
X182143600Y-110143600D02*
X150135300Y-110143600D01*
X110516500Y-109370000D02*
X107026500Y-112860000D01*
X146940000Y-108100000D02*
X145788300Y-108100000D01*
X184800000Y-112800000D02*
X182143600Y-110143600D01*
G04 #@! TO.N,Net-(J1-Pin_U)*
X106100000Y-120780000D02*
X112332600Y-120780000D01*
X128139400Y-114321200D02*
X142929600Y-114321200D01*
X152975300Y-118063600D02*
X148091700Y-113180000D01*
X126520200Y-115940400D02*
X128139400Y-114321200D01*
X117172200Y-115940400D02*
X126520200Y-115940400D01*
X112332600Y-120780000D02*
X117172200Y-115940400D01*
X146940000Y-113180000D02*
X148091700Y-113180000D01*
X184800000Y-120720000D02*
X182143600Y-118063600D01*
X182143600Y-118063600D02*
X152975300Y-118063600D01*
G04 #@! TO.N,Net-(J1-Pin_F)*
X145788300Y-84971500D02*
X145788300Y-85240000D01*
X156005400Y-77160000D02*
X184800000Y-77160000D01*
X106100000Y-77220000D02*
X136343600Y-77220000D01*
X143139100Y-84015500D02*
X144832300Y-84015500D01*
X146940000Y-85240000D02*
X145788300Y-85240000D01*
X147925400Y-85240000D02*
X156005400Y-77160000D01*
X136343600Y-77220000D02*
X143139100Y-84015500D01*
X146940000Y-85240000D02*
X147515900Y-85240000D01*
X144832300Y-84015500D02*
X145788300Y-84971500D01*
X147515900Y-85240000D02*
X147925400Y-85240000D01*
G04 #@! TO.N,Net-(J1-Pin_L)*
X145788300Y-95400000D02*
X145788300Y-95112000D01*
X144924600Y-94248300D02*
X122762400Y-94248300D01*
X122478600Y-93964500D02*
X107004500Y-93964500D01*
X107004500Y-93964500D02*
X106100000Y-93060000D01*
X147515900Y-95400000D02*
X148091700Y-95400000D01*
X150491700Y-93000000D02*
X184800000Y-93000000D01*
X148091700Y-95400000D02*
X150491700Y-93000000D01*
X122762400Y-94248300D02*
X122478600Y-93964500D01*
X146940000Y-95400000D02*
X147515900Y-95400000D01*
X146940000Y-95400000D02*
X145788300Y-95400000D01*
X145788300Y-95112000D02*
X144924600Y-94248300D01*
G04 #@! TO.N,Net-(J1-Pin_P)*
X182940000Y-103020000D02*
X184800000Y-104880000D01*
X144924600Y-104171700D02*
X126612000Y-104171700D01*
X125017300Y-105766400D02*
X106926400Y-105766400D01*
X106926400Y-105766400D02*
X106100000Y-104940000D01*
X146940000Y-103020000D02*
X145788300Y-103020000D01*
X126612000Y-104171700D02*
X125017300Y-105766400D01*
X145788300Y-103308000D02*
X144924600Y-104171700D01*
X146940000Y-103020000D02*
X148091700Y-103020000D01*
X148091700Y-103020000D02*
X182940000Y-103020000D01*
X145788300Y-103020000D02*
X145788300Y-103308000D01*
G04 #@! TO.N,Net-(J1-Pin_Z)*
X146364200Y-125880000D02*
X145788300Y-125880000D01*
X106100000Y-140580000D02*
X107095700Y-140580000D01*
X122305400Y-120787400D02*
X139878200Y-120787400D01*
X139878200Y-120787400D02*
X143700800Y-124610000D01*
X165680800Y-125880000D02*
X180320800Y-140520000D01*
X146940000Y-125880000D02*
X148091700Y-125880000D01*
X146364200Y-125880000D02*
X146940000Y-125880000D01*
X145788300Y-125611500D02*
X145788300Y-125880000D01*
X144786800Y-124610000D02*
X145788300Y-125611500D01*
X143700800Y-124610000D02*
X144786800Y-124610000D01*
X180320800Y-140520000D02*
X184800000Y-140520000D01*
X107095700Y-140580000D02*
X121611200Y-126064500D01*
X148091700Y-125880000D02*
X165680800Y-125880000D01*
X121611200Y-126064500D02*
X121611200Y-121481600D01*
X121611200Y-121481600D02*
X122305400Y-120787400D01*
G04 #@! TO.N,Net-(J1-Pin_Y)*
X148091700Y-123340000D02*
X170137300Y-123340000D01*
X145788300Y-123071500D02*
X145788300Y-123340000D01*
X184800000Y-136559900D02*
X184800000Y-136560000D01*
X146364200Y-123340000D02*
X145788300Y-123340000D01*
X146940000Y-123340000D02*
X148091700Y-123340000D01*
X119049000Y-123475800D02*
X122139100Y-120385700D01*
X119049000Y-124706000D02*
X119049000Y-123475800D01*
X183357200Y-136559900D02*
X184800000Y-136559900D01*
X107135000Y-136620000D02*
X119049000Y-124706000D01*
X122139100Y-120385700D02*
X141035200Y-120385700D01*
X142719500Y-122070000D02*
X144786800Y-122070000D01*
X141035200Y-120385700D02*
X142719500Y-122070000D01*
X106100000Y-136620000D02*
X107135000Y-136620000D01*
X146364200Y-123340000D02*
X146940000Y-123340000D01*
X144786800Y-122070000D02*
X145788300Y-123071500D01*
X170137300Y-123340000D02*
X183357200Y-136559900D01*
G04 #@! TO.N,Net-(J1-Pin_E)*
X147515900Y-82700000D02*
X148091700Y-82700000D01*
X148091700Y-82700000D02*
X157591700Y-73200000D01*
X134640800Y-73260000D02*
X106100000Y-73260000D01*
X157591700Y-73200000D02*
X184800000Y-73200000D01*
X146940000Y-82700000D02*
X145788300Y-82700000D01*
X142929100Y-81548300D02*
X134640800Y-73260000D01*
X145788300Y-82412000D02*
X144924600Y-81548300D01*
X147184200Y-82700000D02*
X147428400Y-82700000D01*
X147515900Y-82700000D02*
X147428400Y-82700000D01*
X145788300Y-82700000D02*
X145788300Y-82412000D01*
X144924600Y-81548300D02*
X142929100Y-81548300D01*
X147184200Y-82700000D02*
X146940000Y-82700000D01*
G04 #@! TO.N,Net-(J1-Pin_T)*
X146940000Y-110640000D02*
X148091700Y-110640000D01*
X170457000Y-110640000D02*
X148091700Y-110640000D01*
X146940000Y-110640000D02*
X145788300Y-110640000D01*
X176577000Y-116760000D02*
X170457000Y-110640000D01*
X184800000Y-116760000D02*
X176577000Y-116760000D01*
X113497900Y-116820000D02*
X118431000Y-111886900D01*
X118431000Y-111886900D02*
X144809900Y-111886900D01*
X106100000Y-116820000D02*
X113497900Y-116820000D01*
X145788300Y-110908500D02*
X145788300Y-110640000D01*
X144809900Y-111886900D02*
X145788300Y-110908500D01*
G04 #@! TO.N,Net-(J1-Pin_X)*
X121104900Y-119631900D02*
X108076800Y-132660000D01*
X145788300Y-120800000D02*
X145788300Y-120512100D01*
X148091700Y-120800000D02*
X148153300Y-120861600D01*
X182281700Y-132600000D02*
X184800000Y-132600000D01*
X108076800Y-132660000D02*
X106100000Y-132660000D01*
X145788300Y-120512100D02*
X144908100Y-119631900D01*
X146940000Y-120800000D02*
X148091700Y-120800000D01*
X146940000Y-120800000D02*
X145788300Y-120800000D01*
X144908100Y-119631900D02*
X121104900Y-119631900D01*
X170543300Y-120861600D02*
X182281700Y-132600000D01*
X148153300Y-120861600D02*
X170543300Y-120861600D01*
G04 #@! TO.N,Net-(J1-Pin_N)*
X106100000Y-100980000D02*
X106764300Y-101644300D01*
X145788300Y-100727000D02*
X145788300Y-100480000D01*
X144871000Y-101644300D02*
X145788300Y-100727000D01*
X146940000Y-100480000D02*
X145788300Y-100480000D01*
X106764300Y-101644300D02*
X144871000Y-101644300D01*
X184360000Y-100480000D02*
X146940000Y-100480000D01*
X184800000Y-100920000D02*
X184360000Y-100480000D01*
G04 #@! TO.N,Net-(J1-Pin_W)*
X180255000Y-128640000D02*
X184800000Y-128640000D01*
X126321900Y-119005600D02*
X121067200Y-119005600D01*
X111372800Y-128700000D02*
X106100000Y-128700000D01*
X145788300Y-117972000D02*
X144924600Y-117108300D01*
X145788300Y-118260000D02*
X145788300Y-117972000D01*
X143868300Y-117108300D02*
X143248300Y-116488300D01*
X144924600Y-117108300D02*
X143868300Y-117108300D01*
X146940000Y-118260000D02*
X145788300Y-118260000D01*
X150291600Y-120459900D02*
X172074900Y-120459900D01*
X128839200Y-116488300D02*
X126321900Y-119005600D01*
X146940000Y-118260000D02*
X148091700Y-118260000D01*
X148091700Y-118260000D02*
X150291600Y-120459900D01*
X121067200Y-119005600D02*
X111372800Y-128700000D01*
X143248300Y-116488300D02*
X128839200Y-116488300D01*
X172074900Y-120459900D02*
X180255000Y-128640000D01*
G04 #@! TO.N,Net-(J1-Pin_H)*
X106100000Y-81180000D02*
X137415000Y-81180000D01*
X184800000Y-81120000D02*
X154751700Y-81120000D01*
X142863300Y-86628300D02*
X144944300Y-86628300D01*
X145954600Y-87638600D02*
X145954600Y-87780000D01*
X137415000Y-81180000D02*
X142863300Y-86628300D01*
X146940000Y-87780000D02*
X148091700Y-87780000D01*
X146940000Y-87780000D02*
X145954600Y-87780000D01*
X144944300Y-86628300D02*
X145954600Y-87638600D01*
X154751700Y-81120000D02*
X148091700Y-87780000D01*
G04 #@! TO.N,Net-(J1-Pin_M)*
X106361000Y-96759000D02*
X144875800Y-96759000D01*
X106100000Y-97020000D02*
X106361000Y-96759000D01*
X184066700Y-97693300D02*
X148338400Y-97693300D01*
X145788300Y-97671500D02*
X145788300Y-97940000D01*
X148338400Y-97693300D02*
X148091700Y-97940000D01*
X184800000Y-96960000D02*
X184066700Y-97693300D01*
X144875800Y-96759000D02*
X145788300Y-97671500D01*
X146940000Y-97940000D02*
X148091700Y-97940000D01*
X146940000Y-97940000D02*
X145788300Y-97940000D01*
G04 #@! TO.N,Net-(J1-Pin_J)*
X146940000Y-90320000D02*
X148091700Y-90320000D01*
X145788300Y-90051500D02*
X145788300Y-90320000D01*
X146940000Y-90320000D02*
X145788300Y-90320000D01*
X153331700Y-85080000D02*
X184800000Y-85080000D01*
X144785400Y-89048600D02*
X145788300Y-90051500D01*
X148091700Y-90320000D02*
X153331700Y-85080000D01*
X138346500Y-89048600D02*
X144785400Y-89048600D01*
X107777100Y-86817100D02*
X136115000Y-86817100D01*
X106100000Y-85140000D02*
X107777100Y-86817100D01*
X136115000Y-86817100D02*
X138346500Y-89048600D01*
G04 #@! TO.N,Net-(J1-Pin_C)*
X145788300Y-77620000D02*
X145788300Y-77351500D01*
X160431700Y-65280000D02*
X148091700Y-77620000D01*
X144785300Y-76348500D02*
X142382200Y-76348500D01*
X142382200Y-76348500D02*
X131373700Y-65340000D01*
X145788300Y-77351500D02*
X144785300Y-76348500D01*
X146940000Y-77620000D02*
X148091700Y-77620000D01*
X131373700Y-65340000D02*
X106100000Y-65340000D01*
X184800000Y-65280000D02*
X160431700Y-65280000D01*
X146940000Y-77620000D02*
X145788300Y-77620000D01*
G04 #@! TO.N,Net-(J1-Pin_B)*
X161851700Y-61320000D02*
X184800000Y-61320000D01*
X145788300Y-74811500D02*
X145788300Y-75080000D01*
X146940000Y-75080000D02*
X145788300Y-75080000D01*
X144726800Y-73750000D02*
X145788300Y-74811500D01*
X106100000Y-61380000D02*
X130385400Y-61380000D01*
X148091700Y-75080000D02*
X161851700Y-61320000D01*
X142755400Y-73750000D02*
X144726800Y-73750000D01*
X130385400Y-61380000D02*
X142755400Y-73750000D01*
X146940000Y-75080000D02*
X148091700Y-75080000D01*
G04 #@! TO.N,Net-(J1-Pin_R)*
X144804700Y-106812100D02*
X145788300Y-105828500D01*
X123813600Y-106812100D02*
X144804700Y-106812100D01*
X121725700Y-108900000D02*
X123813600Y-106812100D01*
X145788300Y-105828500D02*
X145788300Y-105560000D01*
X148091700Y-105560000D02*
X151371700Y-108840000D01*
X146940000Y-105560000D02*
X145788300Y-105560000D01*
X146940000Y-105560000D02*
X148091700Y-105560000D01*
X106100000Y-108900000D02*
X121725700Y-108900000D01*
X151371700Y-108840000D02*
X184800000Y-108840000D01*
G04 #@! TO.N,Net-(D2-A)*
X136500000Y-135547500D02*
X136500000Y-134445800D01*
X132100000Y-130045800D02*
X136500000Y-134445800D01*
X132100000Y-125510000D02*
X132100000Y-130045800D01*
G04 #@! TD*
M02*
