G04 #@! TF.GenerationSoftware,KiCad,Pcbnew,8.0.6-8.0.6-0~ubuntu24.10.1*
G04 #@! TF.CreationDate,2024-10-17T11:16:10-07:00*
G04 #@! TF.ProjectId,kim1-power,6b696d31-2d70-46f7-9765-722e6b696361,1.2*
G04 #@! TF.SameCoordinates,Original*
G04 #@! TF.FileFunction,Copper,L1,Top*
G04 #@! TF.FilePolarity,Positive*
%FSLAX46Y46*%
G04 Gerber Fmt 4.6, Leading zero omitted, Abs format (unit mm)*
G04 Created by KiCad (PCBNEW 8.0.6-8.0.6-0~ubuntu24.10.1) date 2024-10-17 11:16:10*
%MOMM*%
%LPD*%
G01*
G04 APERTURE LIST*
G04 Aperture macros list*
%AMRoundRect*
0 Rectangle with rounded corners*
0 $1 Rounding radius*
0 $2 $3 $4 $5 $6 $7 $8 $9 X,Y pos of 4 corners*
0 Add a 4 corners polygon primitive as box body*
4,1,4,$2,$3,$4,$5,$6,$7,$8,$9,$2,$3,0*
0 Add four circle primitives for the rounded corners*
1,1,$1+$1,$2,$3*
1,1,$1+$1,$4,$5*
1,1,$1+$1,$6,$7*
1,1,$1+$1,$8,$9*
0 Add four rect primitives between the rounded corners*
20,1,$1+$1,$2,$3,$4,$5,0*
20,1,$1+$1,$4,$5,$6,$7,0*
20,1,$1+$1,$6,$7,$8,$9,0*
20,1,$1+$1,$8,$9,$2,$3,0*%
G04 Aperture macros list end*
G04 #@! TA.AperFunction,SMDPad,CuDef*
%ADD10RoundRect,0.500000X-3.250000X-0.500000X3.250000X-0.500000X3.250000X0.500000X-3.250000X0.500000X0*%
G04 #@! TD*
G04 #@! TA.AperFunction,ComponentPad*
%ADD11R,4.600000X2.000000*%
G04 #@! TD*
G04 #@! TA.AperFunction,ComponentPad*
%ADD12O,4.200000X2.000000*%
G04 #@! TD*
G04 #@! TA.AperFunction,ComponentPad*
%ADD13O,2.000000X4.200000*%
G04 #@! TD*
G04 #@! TA.AperFunction,ComponentPad*
%ADD14R,1.600000X1.600000*%
G04 #@! TD*
G04 #@! TA.AperFunction,ComponentPad*
%ADD15O,1.600000X1.600000*%
G04 #@! TD*
G04 #@! TA.AperFunction,ComponentPad*
%ADD16C,1.600000*%
G04 #@! TD*
G04 #@! TA.AperFunction,ComponentPad*
%ADD17R,2.200000X2.200000*%
G04 #@! TD*
G04 #@! TA.AperFunction,ComponentPad*
%ADD18O,2.200000X2.200000*%
G04 #@! TD*
G04 #@! TA.AperFunction,ComponentPad*
%ADD19R,1.700000X1.700000*%
G04 #@! TD*
G04 #@! TA.AperFunction,ComponentPad*
%ADD20O,1.700000X1.700000*%
G04 #@! TD*
G04 #@! TA.AperFunction,ComponentPad*
%ADD21R,1.800000X1.800000*%
G04 #@! TD*
G04 #@! TA.AperFunction,ComponentPad*
%ADD22C,1.800000*%
G04 #@! TD*
G04 #@! TA.AperFunction,ViaPad*
%ADD23C,0.600000*%
G04 #@! TD*
G04 #@! TA.AperFunction,Conductor*
%ADD24C,0.200000*%
G04 #@! TD*
G04 #@! TA.AperFunction,Conductor*
%ADD25C,0.600000*%
G04 #@! TD*
G04 APERTURE END LIST*
D10*
G04 #@! TO.P,J1,1,Pin_1*
G04 #@! TO.N,GND*
X106100000Y-57420000D03*
G04 #@! TO.P,J1,2,Pin_2*
G04 #@! TO.N,Net-(J1-Pin_2)*
X106100000Y-61380000D03*
G04 #@! TO.P,J1,3,Pin_3*
G04 #@! TO.N,Net-(J1-Pin_3)*
X106100000Y-65340000D03*
G04 #@! TO.P,J1,4,Pin_4*
G04 #@! TO.N,Net-(J1-Pin_4)*
X106100000Y-69300000D03*
G04 #@! TO.P,J1,5,Pin_5*
G04 #@! TO.N,Net-(J1-Pin_5)*
X106100000Y-73260000D03*
G04 #@! TO.P,J1,6,Pin_6*
G04 #@! TO.N,Net-(J1-Pin_6)*
X106100000Y-77220000D03*
G04 #@! TO.P,J1,7,Pin_7*
G04 #@! TO.N,Net-(J1-Pin_7)*
X106100000Y-81180000D03*
G04 #@! TO.P,J1,8,Pin_8*
G04 #@! TO.N,Net-(J1-Pin_8)*
X106100000Y-85140000D03*
G04 #@! TO.P,J1,9,Pin_9*
G04 #@! TO.N,Net-(J1-Pin_9)*
X106100000Y-89100000D03*
G04 #@! TO.P,J1,10,Pin_10*
G04 #@! TO.N,Net-(J1-Pin_10)*
X106100000Y-93060000D03*
G04 #@! TO.P,J1,11,Pin_11*
G04 #@! TO.N,Net-(J1-Pin_11)*
X106100000Y-97020000D03*
G04 #@! TO.P,J1,12,Pin_12*
G04 #@! TO.N,Net-(J1-Pin_12)*
X106100000Y-100980000D03*
G04 #@! TO.P,J1,13,Pin_13*
G04 #@! TO.N,Net-(J1-Pin_13)*
X106100000Y-104940000D03*
G04 #@! TO.P,J1,14,Pin_14*
G04 #@! TO.N,Net-(J1-Pin_14)*
X106100000Y-108900000D03*
G04 #@! TO.P,J1,15,Pin_15*
G04 #@! TO.N,Net-(J1-Pin_15)*
X106100000Y-112860000D03*
G04 #@! TO.P,J1,16,Pin_16*
G04 #@! TO.N,Net-(J1-Pin_16)*
X106100000Y-116820000D03*
G04 #@! TO.P,J1,17,Pin_17*
G04 #@! TO.N,Net-(J1-Pin_17)*
X106100000Y-120780000D03*
G04 #@! TO.P,J1,18,Pin_18*
G04 #@! TO.N,Net-(J1-Pin_18)*
X106100000Y-124740000D03*
G04 #@! TO.P,J1,19,Pin_19*
G04 #@! TO.N,Net-(J1-Pin_19)*
X106100000Y-128700000D03*
G04 #@! TO.P,J1,20,Pin_20*
G04 #@! TO.N,Net-(J1-Pin_20)*
X106100000Y-132660000D03*
G04 #@! TO.P,J1,21,Pin_21*
G04 #@! TO.N,Net-(J1-Pin_21)*
X106100000Y-136620000D03*
G04 #@! TO.P,J1,22,Pin_22*
G04 #@! TO.N,Net-(J1-Pin_22)*
X106100000Y-140580000D03*
G04 #@! TD*
D11*
G04 #@! TO.P,J4,1*
G04 #@! TO.N,Net-(J4-Pad1)*
X124450000Y-131050000D03*
D12*
G04 #@! TO.P,J4,2*
G04 #@! TO.N,GND*
X124450000Y-137350000D03*
D13*
G04 #@! TO.P,J4,3*
G04 #@! TO.N,N/C*
X129250000Y-133950000D03*
G04 #@! TD*
D14*
G04 #@! TO.P,SW1,1*
G04 #@! TO.N,Net-(J4-Pad1)*
X136500000Y-143167500D03*
D15*
G04 #@! TO.P,SW1,2*
G04 #@! TO.N,Net-(D2-A)*
X136500000Y-135547500D03*
G04 #@! TD*
D16*
G04 #@! TO.P,R1,1*
G04 #@! TO.N,Net-(D2-A)*
X124600000Y-114780000D03*
D15*
G04 #@! TO.P,R1,2*
G04 #@! TO.N,Net-(D1-A)*
X124600000Y-104620000D03*
G04 #@! TD*
D17*
G04 #@! TO.P,D2,1,K*
G04 #@! TO.N,+5V*
X132100000Y-117890000D03*
D18*
G04 #@! TO.P,D2,2,A*
G04 #@! TO.N,Net-(D2-A)*
X132100000Y-125510000D03*
G04 #@! TD*
D19*
G04 #@! TO.P,J5,1,Pin_1*
G04 #@! TO.N,Net-(J1-Pin_K)*
X166200000Y-138260000D03*
D20*
G04 #@! TO.P,J5,2,Pin_2*
G04 #@! TO.N,GND*
X166200000Y-140800000D03*
G04 #@! TD*
D10*
G04 #@! TO.P,J2,1,Pin_1*
G04 #@! TO.N,GND*
X184800000Y-57360000D03*
G04 #@! TO.P,J2,2,Pin_2*
G04 #@! TO.N,Net-(J1-Pin_2)*
X184800000Y-61320000D03*
G04 #@! TO.P,J2,3,Pin_3*
G04 #@! TO.N,Net-(J1-Pin_3)*
X184800000Y-65280000D03*
G04 #@! TO.P,J2,4,Pin_4*
G04 #@! TO.N,Net-(J1-Pin_4)*
X184800000Y-69240000D03*
G04 #@! TO.P,J2,5,Pin_5*
G04 #@! TO.N,Net-(J1-Pin_5)*
X184800000Y-73200000D03*
G04 #@! TO.P,J2,6,Pin_6*
G04 #@! TO.N,Net-(J1-Pin_6)*
X184800000Y-77160000D03*
G04 #@! TO.P,J2,7,Pin_7*
G04 #@! TO.N,Net-(J1-Pin_7)*
X184800000Y-81120000D03*
G04 #@! TO.P,J2,8,Pin_8*
G04 #@! TO.N,Net-(J1-Pin_8)*
X184800000Y-85080000D03*
G04 #@! TO.P,J2,9,Pin_9*
G04 #@! TO.N,Net-(J1-Pin_9)*
X184800000Y-89040000D03*
G04 #@! TO.P,J2,10,Pin_10*
G04 #@! TO.N,Net-(J1-Pin_10)*
X184800000Y-93000000D03*
G04 #@! TO.P,J2,11,Pin_11*
G04 #@! TO.N,Net-(J1-Pin_11)*
X184800000Y-96960000D03*
G04 #@! TO.P,J2,12,Pin_12*
G04 #@! TO.N,Net-(J1-Pin_12)*
X184800000Y-100920000D03*
G04 #@! TO.P,J2,13,Pin_13*
G04 #@! TO.N,Net-(J1-Pin_13)*
X184800000Y-104880000D03*
G04 #@! TO.P,J2,14,Pin_14*
G04 #@! TO.N,Net-(J1-Pin_14)*
X184800000Y-108840000D03*
G04 #@! TO.P,J2,15,Pin_15*
G04 #@! TO.N,Net-(J1-Pin_15)*
X184800000Y-112800000D03*
G04 #@! TO.P,J2,16,Pin_16*
G04 #@! TO.N,Net-(J1-Pin_16)*
X184800000Y-116760000D03*
G04 #@! TO.P,J2,17,Pin_17*
G04 #@! TO.N,Net-(J1-Pin_17)*
X184800000Y-120720000D03*
G04 #@! TO.P,J2,18,Pin_18*
G04 #@! TO.N,Net-(J1-Pin_18)*
X184800000Y-124680000D03*
G04 #@! TO.P,J2,19,Pin_19*
G04 #@! TO.N,Net-(J1-Pin_19)*
X184800000Y-128640000D03*
G04 #@! TO.P,J2,20,Pin_20*
G04 #@! TO.N,Net-(J1-Pin_20)*
X184800000Y-132600000D03*
G04 #@! TO.P,J2,21,Pin_21*
G04 #@! TO.N,Net-(J1-Pin_21)*
X184800000Y-136560000D03*
G04 #@! TO.P,J2,22,Pin_22*
G04 #@! TO.N,Net-(J1-Pin_22)*
X184800000Y-140520000D03*
G04 #@! TD*
D21*
G04 #@! TO.P,D1,1,K*
G04 #@! TO.N,GND*
X123325000Y-122000000D03*
D22*
G04 #@! TO.P,D1,2,A*
G04 #@! TO.N,Net-(D1-A)*
X125865000Y-122000000D03*
G04 #@! TD*
D19*
G04 #@! TO.P,J3,1,Pin_1*
G04 #@! TO.N,GND*
X144400000Y-72540000D03*
D20*
G04 #@! TO.P,J3,2,Pin_2*
G04 #@! TO.N,Net-(J1-Pin_2)*
X144400000Y-75080000D03*
G04 #@! TO.P,J3,3,Pin_3*
G04 #@! TO.N,Net-(J1-Pin_3)*
X144400000Y-77620000D03*
G04 #@! TO.P,J3,4,Pin_4*
G04 #@! TO.N,Net-(J1-Pin_4)*
X144400000Y-80160000D03*
G04 #@! TO.P,J3,5,Pin_5*
G04 #@! TO.N,Net-(J1-Pin_5)*
X144400000Y-82700000D03*
G04 #@! TO.P,J3,6,Pin_6*
G04 #@! TO.N,Net-(J1-Pin_6)*
X144400000Y-85240000D03*
G04 #@! TO.P,J3,7,Pin_7*
G04 #@! TO.N,Net-(J1-Pin_7)*
X144400000Y-87780000D03*
G04 #@! TO.P,J3,8,Pin_8*
G04 #@! TO.N,Net-(J1-Pin_8)*
X144400000Y-90320000D03*
G04 #@! TO.P,J3,9,Pin_9*
G04 #@! TO.N,Net-(J1-Pin_9)*
X144400000Y-92860000D03*
G04 #@! TO.P,J3,10,Pin_10*
G04 #@! TO.N,Net-(J1-Pin_10)*
X144400000Y-95400000D03*
G04 #@! TO.P,J3,11,Pin_11*
G04 #@! TO.N,Net-(J1-Pin_11)*
X144400000Y-97940000D03*
G04 #@! TO.P,J3,12,Pin_12*
G04 #@! TO.N,Net-(J1-Pin_12)*
X144400000Y-100480000D03*
G04 #@! TO.P,J3,13,Pin_13*
G04 #@! TO.N,Net-(J1-Pin_13)*
X144400000Y-103020000D03*
G04 #@! TO.P,J3,14,Pin_14*
G04 #@! TO.N,Net-(J1-Pin_14)*
X144400000Y-105560000D03*
G04 #@! TO.P,J3,15,Pin_15*
G04 #@! TO.N,Net-(J1-Pin_15)*
X144400000Y-108100000D03*
G04 #@! TO.P,J3,16,Pin_16*
G04 #@! TO.N,Net-(J1-Pin_16)*
X144400000Y-110640000D03*
G04 #@! TO.P,J3,17,Pin_17*
G04 #@! TO.N,Net-(J1-Pin_17)*
X144400000Y-113180000D03*
G04 #@! TO.P,J3,18,Pin_18*
G04 #@! TO.N,Net-(J1-Pin_18)*
X144400000Y-115720000D03*
G04 #@! TO.P,J3,19,Pin_19*
G04 #@! TO.N,Net-(J1-Pin_19)*
X144400000Y-118260000D03*
G04 #@! TO.P,J3,20,Pin_20*
G04 #@! TO.N,Net-(J1-Pin_20)*
X144400000Y-120800000D03*
G04 #@! TO.P,J3,21,Pin_21*
G04 #@! TO.N,Net-(J1-Pin_21)*
X144400000Y-123340000D03*
G04 #@! TO.P,J3,22,Pin_22*
G04 #@! TO.N,Net-(J1-Pin_22)*
X144400000Y-125880000D03*
G04 #@! TO.P,J3,A,Pin_A*
G04 #@! TO.N,+5V*
X146940000Y-72540000D03*
G04 #@! TO.P,J3,B,Pin_B*
G04 #@! TO.N,Net-(J1-Pin_B)*
X146940000Y-75080000D03*
G04 #@! TO.P,J3,C,Pin_C*
G04 #@! TO.N,Net-(J1-Pin_C)*
X146940000Y-77620000D03*
G04 #@! TO.P,J3,D,Pin_D*
G04 #@! TO.N,Net-(J1-Pin_D)*
X146940000Y-80160000D03*
G04 #@! TO.P,J3,E,Pin_E*
G04 #@! TO.N,Net-(J1-Pin_E)*
X146940000Y-82700000D03*
G04 #@! TO.P,J3,F,Pin_F*
G04 #@! TO.N,Net-(J1-Pin_F)*
X146940000Y-85240000D03*
G04 #@! TO.P,J3,H,Pin_H*
G04 #@! TO.N,Net-(J1-Pin_H)*
X146940000Y-87780000D03*
G04 #@! TO.P,J3,J,Pin_J*
G04 #@! TO.N,Net-(J1-Pin_J)*
X146940000Y-90320000D03*
G04 #@! TO.P,J3,K,Pin_K*
G04 #@! TO.N,Net-(J1-Pin_K)*
X146940000Y-92860000D03*
G04 #@! TO.P,J3,L,Pin_L*
G04 #@! TO.N,Net-(J1-Pin_L)*
X146940000Y-95400000D03*
G04 #@! TO.P,J3,M,Pin_M*
G04 #@! TO.N,Net-(J1-Pin_M)*
X146940000Y-97940000D03*
G04 #@! TO.P,J3,N,Pin_N*
G04 #@! TO.N,Net-(J1-Pin_N)*
X146940000Y-100480000D03*
G04 #@! TO.P,J3,P,Pin_P*
G04 #@! TO.N,Net-(J1-Pin_P)*
X146940000Y-103020000D03*
G04 #@! TO.P,J3,R,Pin_R*
G04 #@! TO.N,Net-(J1-Pin_R)*
X146940000Y-105560000D03*
G04 #@! TO.P,J3,S,Pin_S*
G04 #@! TO.N,Net-(J1-Pin_S)*
X146940000Y-108100000D03*
G04 #@! TO.P,J3,T,Pin_T*
G04 #@! TO.N,Net-(J1-Pin_T)*
X146940000Y-110640000D03*
G04 #@! TO.P,J3,U,Pin_U*
G04 #@! TO.N,Net-(J1-Pin_U)*
X146940000Y-113180000D03*
G04 #@! TO.P,J3,V,Pin_V*
G04 #@! TO.N,Net-(J1-Pin_V)*
X146940000Y-115720000D03*
G04 #@! TO.P,J3,W,Pin_W*
G04 #@! TO.N,Net-(J1-Pin_W)*
X146940000Y-118260000D03*
G04 #@! TO.P,J3,X,Pin_X*
G04 #@! TO.N,Net-(J1-Pin_X)*
X146940000Y-120800000D03*
G04 #@! TO.P,J3,Y,Pin_Y*
G04 #@! TO.N,Net-(J1-Pin_Y)*
X146940000Y-123340000D03*
G04 #@! TO.P,J3,Z,Pin_Z*
G04 #@! TO.N,Net-(J1-Pin_Z)*
X146940000Y-125880000D03*
G04 #@! TD*
D23*
G04 #@! TO.N,Net-(J1-Pin_6)*
X113195400Y-78785700D03*
G04 #@! TO.N,Net-(J1-Pin_13)*
X121739600Y-102843000D03*
G04 #@! TO.N,Net-(J1-Pin_9)*
X109824800Y-90546000D03*
G04 #@! TO.N,Net-(J1-Pin_11)*
X110240000Y-98054700D03*
G04 #@! TO.N,Net-(J1-Pin_8)*
X108382800Y-87422800D03*
G04 #@! TO.N,Net-(J1-Pin_5)*
X119060000Y-75625500D03*
G04 #@! TO.N,Net-(J1-Pin_17)*
X166871500Y-113140100D03*
G04 #@! TO.N,Net-(J1-Pin_14)*
X121739600Y-107239700D03*
G04 #@! TO.N,Net-(J1-Pin_10)*
X121739600Y-94630400D03*
G04 #@! TO.N,Net-(J1-Pin_12)*
X113195400Y-99567600D03*
G04 #@! TO.N,Net-(J1-Pin_4)*
X119060000Y-71051100D03*
G04 #@! TO.N,Net-(J1-Pin_2)*
X112125400Y-62107200D03*
G04 #@! TO.N,Net-(J1-Pin_3)*
X113195400Y-66925500D03*
G04 #@! TO.N,Net-(J1-Pin_7)*
X121739600Y-84693300D03*
G04 #@! TO.N,Net-(J1-Pin_U)*
X142929600Y-114321200D03*
G04 #@! TD*
D24*
G04 #@! TO.N,Net-(J1-Pin_21)*
X144400000Y-123340000D02*
X144400000Y-124491700D01*
X144400000Y-123340000D02*
X143248300Y-123340000D01*
X184800000Y-136560000D02*
X155906600Y-136560000D01*
X143248300Y-123340000D02*
X136094700Y-130493600D01*
X136094700Y-130493600D02*
X129716200Y-130493600D01*
X129716200Y-130493600D02*
X126247700Y-133962100D01*
X119391900Y-136620000D02*
X106100000Y-136620000D01*
X122049800Y-133962100D02*
X119391900Y-136620000D01*
X155906600Y-136560000D02*
X145670000Y-126323400D01*
X145670000Y-125493200D02*
X144668500Y-124491700D01*
X144668500Y-124491700D02*
X144400000Y-124491700D01*
X126247700Y-133962100D02*
X122049800Y-133962100D01*
X145670000Y-126323400D02*
X145670000Y-125493200D01*
G04 #@! TO.N,Net-(J1-Pin_20)*
X145551700Y-121068500D02*
X145551700Y-120800000D01*
X146553200Y-122070000D02*
X145551700Y-121068500D01*
X143248300Y-120800000D02*
X134948100Y-129100200D01*
X184800000Y-132600000D02*
X159827900Y-132600000D01*
X113185300Y-132660000D02*
X106100000Y-132660000D01*
X116745100Y-129100200D02*
X113185300Y-132660000D01*
X144400000Y-120800000D02*
X145551700Y-120800000D01*
X144400000Y-120800000D02*
X143248300Y-120800000D01*
X149297900Y-122070000D02*
X146553200Y-122070000D01*
X134948100Y-129100200D02*
X116745100Y-129100200D01*
X159827900Y-132600000D02*
X149297900Y-122070000D01*
G04 #@! TO.N,Net-(J1-Pin_6)*
X113195400Y-78785700D02*
X107665700Y-78785700D01*
X107665700Y-78785700D02*
X106100000Y-77220000D01*
X144400000Y-85240000D02*
X145551700Y-85240000D01*
X163030000Y-84088300D02*
X169958300Y-77160000D01*
X169958300Y-77160000D02*
X184800000Y-77160000D01*
X145551700Y-84952000D02*
X146415400Y-84088300D01*
X145551700Y-85240000D02*
X145551700Y-84952000D01*
X146415400Y-84088300D02*
X163030000Y-84088300D01*
G04 #@! TO.N,Net-(J1-Pin_13)*
X184091700Y-104171700D02*
X184800000Y-104880000D01*
X146415400Y-104171700D02*
X184091700Y-104171700D01*
X121739600Y-102843000D02*
X108197000Y-102843000D01*
X145551700Y-103308000D02*
X146415400Y-104171700D01*
X144400000Y-103020000D02*
X145551700Y-103020000D01*
X145551700Y-103020000D02*
X145551700Y-103308000D01*
X108197000Y-102843000D02*
X106100000Y-104940000D01*
G04 #@! TO.N,Net-(J1-Pin_9)*
X145551700Y-92572100D02*
X146467400Y-91656400D01*
X146467400Y-91656400D02*
X182183600Y-91656400D01*
X145551700Y-92860000D02*
X145551700Y-92572100D01*
X109824800Y-90546000D02*
X107546000Y-90546000D01*
X182183600Y-91656400D02*
X184800000Y-89040000D01*
X144400000Y-92860000D02*
X145551700Y-92860000D01*
X107546000Y-90546000D02*
X106100000Y-89100000D01*
G04 #@! TO.N,Net-(J1-Pin_11)*
X184582500Y-96742500D02*
X184800000Y-96960000D01*
X146461300Y-96742500D02*
X184582500Y-96742500D01*
X144400000Y-97940000D02*
X145551700Y-97940000D01*
X109205300Y-97020000D02*
X106100000Y-97020000D01*
X145551700Y-97940000D02*
X145551700Y-97652100D01*
X110240000Y-98054700D02*
X109205300Y-97020000D01*
X145551700Y-97652100D02*
X146461300Y-96742500D01*
G04 #@! TO.N,Net-(J1-Pin_8)*
X108382800Y-87422800D02*
X106100000Y-85140000D01*
X183873500Y-85080000D02*
X184800000Y-85080000D01*
X145551700Y-90032000D02*
X146415400Y-89168300D01*
X179785200Y-89168300D02*
X183873500Y-85080000D01*
X145551700Y-90320000D02*
X145551700Y-90032000D01*
X146415400Y-89168300D02*
X179785200Y-89168300D01*
X144400000Y-90320000D02*
X145551700Y-90320000D01*
G04 #@! TO.N,Net-(J1-Pin_5)*
X145551700Y-82700000D02*
X145551700Y-82431500D01*
X146553200Y-81430000D02*
X151605300Y-81430000D01*
X108465500Y-75625500D02*
X106100000Y-73260000D01*
X145551700Y-82431500D02*
X146553200Y-81430000D01*
X144400000Y-82700000D02*
X145551700Y-82700000D01*
X119060000Y-75625500D02*
X108465500Y-75625500D01*
X151605300Y-81430000D02*
X159835300Y-73200000D01*
X159835300Y-73200000D02*
X184800000Y-73200000D01*
G04 #@! TO.N,Net-(J1-Pin_17)*
X144400000Y-113180000D02*
X143219700Y-113180000D01*
X114994200Y-120780000D02*
X106100000Y-120780000D01*
X174451400Y-120720000D02*
X184800000Y-120720000D01*
X134601800Y-126138500D02*
X133025200Y-127715100D01*
X166871500Y-113140100D02*
X174451400Y-120720000D01*
X143219700Y-113180000D02*
X134601800Y-121797900D01*
X134601800Y-121797900D02*
X134601800Y-126138500D01*
X133025200Y-127715100D02*
X121929300Y-127715100D01*
X121929300Y-127715100D02*
X114994200Y-120780000D01*
G04 #@! TO.N,Net-(J1-Pin_16)*
X143968100Y-111791700D02*
X144400000Y-111791700D01*
X134200100Y-125972200D02*
X134200100Y-121559700D01*
X144400000Y-110640000D02*
X144400000Y-111791700D01*
X144400000Y-111791700D02*
X169656700Y-111791700D01*
X106100000Y-116820000D02*
X111802400Y-116820000D01*
X174625000Y-116760000D02*
X184800000Y-116760000D01*
X122295800Y-127313400D02*
X132858900Y-127313400D01*
X169656700Y-111791700D02*
X174625000Y-116760000D01*
X134200100Y-121559700D02*
X143968100Y-111791700D01*
X111802400Y-116820000D02*
X122295800Y-127313400D01*
X132858900Y-127313400D02*
X134200100Y-125972200D01*
G04 #@! TO.N,Net-(J1-Pin_15)*
X168574500Y-110143600D02*
X182143600Y-110143600D01*
X182143600Y-110143600D02*
X184800000Y-112800000D01*
X123029500Y-126911700D02*
X132680600Y-126911700D01*
X144112100Y-109251700D02*
X144400000Y-109251700D01*
X106100000Y-112860000D02*
X108977800Y-112860000D01*
X167682600Y-109251700D02*
X168574500Y-110143600D01*
X133791700Y-125800600D02*
X133791700Y-119572100D01*
X144400000Y-108100000D02*
X144400000Y-109251700D01*
X132680600Y-126911700D02*
X133791700Y-125800600D01*
X108977800Y-112860000D02*
X123029500Y-126911700D01*
X133791700Y-119572100D02*
X144112100Y-109251700D01*
X144400000Y-109251700D02*
X167682600Y-109251700D01*
G04 #@! TO.N,Net-(J1-Pin_22)*
X144400000Y-125880000D02*
X155628300Y-137108300D01*
X128548300Y-140580000D02*
X106100000Y-140580000D01*
X144400000Y-125880000D02*
X143248300Y-125880000D01*
X176874100Y-137108300D02*
X180285800Y-140520000D01*
X180285800Y-140520000D02*
X184800000Y-140520000D01*
X155628300Y-137108300D02*
X176874100Y-137108300D01*
X143248300Y-125880000D02*
X128548300Y-140580000D01*
G04 #@! TO.N,Net-(J1-Pin_18)*
X144400000Y-115720000D02*
X144400000Y-116871700D01*
X168955700Y-116871700D02*
X176764000Y-124680000D01*
X133166800Y-128141600D02*
X133192300Y-128116100D01*
X112519400Y-124740000D02*
X115921000Y-128141600D01*
X137613000Y-123695400D02*
X137613000Y-123298800D01*
X133192300Y-128116000D02*
X133192400Y-128116000D01*
X137613000Y-123298800D02*
X144040100Y-116871700D01*
X115921000Y-128141600D02*
X133166800Y-128141600D01*
X144040100Y-116871700D02*
X144400000Y-116871700D01*
X144400000Y-116871700D02*
X168955700Y-116871700D01*
X176764000Y-124680000D02*
X184800000Y-124680000D01*
X133192400Y-128116000D02*
X137613000Y-123695400D01*
X106100000Y-124740000D02*
X112519400Y-124740000D01*
X133192300Y-128116100D02*
X133192300Y-128116000D01*
G04 #@! TO.N,Net-(J1-Pin_14)*
X121739600Y-107239700D02*
X107760300Y-107239700D01*
X144400000Y-105560000D02*
X145551700Y-105560000D01*
X145551700Y-105848000D02*
X146415400Y-106711700D01*
X146415400Y-106711700D02*
X182671700Y-106711700D01*
X145551700Y-105560000D02*
X145551700Y-105848000D01*
X182671700Y-106711700D02*
X184800000Y-108840000D01*
X107760300Y-107239700D02*
X106100000Y-108900000D01*
G04 #@! TO.N,Net-(J1-Pin_10)*
X144400000Y-95400000D02*
X145551700Y-95400000D01*
X107670400Y-94630400D02*
X106100000Y-93060000D01*
X145551700Y-95400000D02*
X145551700Y-95112000D01*
X146415400Y-94248300D02*
X183551700Y-94248300D01*
X145551700Y-95112000D02*
X146415400Y-94248300D01*
X121739600Y-94630400D02*
X107670400Y-94630400D01*
X183551700Y-94248300D02*
X184800000Y-93000000D01*
G04 #@! TO.N,Net-(J1-Pin_19)*
X176874800Y-128640000D02*
X184800000Y-128640000D01*
X167764800Y-119530000D02*
X176874800Y-128640000D01*
X144204600Y-118260000D02*
X144009100Y-118260000D01*
X133256200Y-128698500D02*
X106101500Y-128698500D01*
X144400000Y-118260000D02*
X144204600Y-118260000D01*
X144204600Y-118260000D02*
X145474600Y-119530000D01*
X143824200Y-118260000D02*
X143248300Y-118260000D01*
X143248300Y-118706400D02*
X133256200Y-128698500D01*
X145474600Y-119530000D02*
X167764800Y-119530000D01*
X106101500Y-128698500D02*
X106100000Y-128700000D01*
X143824200Y-118260000D02*
X144009100Y-118260000D01*
X143248300Y-118260000D02*
X143248300Y-118706400D01*
G04 #@! TO.N,Net-(J1-Pin_12)*
X144400000Y-100480000D02*
X145551700Y-100480000D01*
X145551700Y-100480000D02*
X145551700Y-100767900D01*
X146430000Y-101646200D02*
X184073800Y-101646200D01*
X184073800Y-101646200D02*
X184800000Y-100920000D01*
X145551700Y-100767900D02*
X146430000Y-101646200D01*
X111783000Y-100980000D02*
X106100000Y-100980000D01*
X113195400Y-99567600D02*
X111783000Y-100980000D01*
G04 #@! TO.N,Net-(J1-Pin_4)*
X145551700Y-79872000D02*
X146415400Y-79008300D01*
X153201200Y-79008300D02*
X161117300Y-71092200D01*
X146415400Y-79008300D02*
X153201200Y-79008300D01*
X182947800Y-71092200D02*
X184800000Y-69240000D01*
X144400000Y-80160000D02*
X145551700Y-80160000D01*
X107851100Y-71051100D02*
X106100000Y-69300000D01*
X119060000Y-71051100D02*
X107851100Y-71051100D01*
X145551700Y-80160000D02*
X145551700Y-79872000D01*
X161117300Y-71092200D02*
X182947800Y-71092200D01*
G04 #@! TO.N,Net-(J1-Pin_2)*
X162935400Y-61320000D02*
X150327100Y-73928300D01*
X144400000Y-75080000D02*
X145551700Y-75080000D01*
X112125400Y-62107200D02*
X106827200Y-62107200D01*
X184800000Y-61320000D02*
X162935400Y-61320000D01*
X146462900Y-73928300D02*
X145551700Y-74839500D01*
X106827200Y-62107200D02*
X106100000Y-61380000D01*
X145551700Y-74839500D02*
X145551700Y-75080000D01*
X150327100Y-73928300D02*
X146462900Y-73928300D01*
G04 #@! TO.N,Net-(J1-Pin_3)*
X107685500Y-66925500D02*
X106100000Y-65340000D01*
X113195400Y-66925500D02*
X107685500Y-66925500D01*
X145551700Y-77332000D02*
X146415400Y-76468300D01*
X148355100Y-76468300D02*
X154274300Y-70549100D01*
X144400000Y-77620000D02*
X145551700Y-77620000D01*
X161589600Y-70549100D02*
X166858700Y-65280000D01*
X166858700Y-65280000D02*
X184800000Y-65280000D01*
X154274300Y-70549100D02*
X161589600Y-70549100D01*
X146415400Y-76468300D02*
X148355100Y-76468300D01*
X145551700Y-77620000D02*
X145551700Y-77332000D01*
G04 #@! TO.N,Net-(J1-Pin_7)*
X145551700Y-87780000D02*
X145551700Y-87492000D01*
X145551700Y-87492000D02*
X146415400Y-86628300D01*
X168223000Y-81120000D02*
X184800000Y-81120000D01*
X146415400Y-86628300D02*
X162714700Y-86628300D01*
X118226300Y-81180000D02*
X106100000Y-81180000D01*
X144400000Y-87780000D02*
X145551700Y-87780000D01*
X121739600Y-84693300D02*
X118226300Y-81180000D01*
X162714700Y-86628300D02*
X168223000Y-81120000D01*
D25*
G04 #@! TO.N,GND*
X123253100Y-120526400D02*
X123253100Y-72540000D01*
X123325000Y-122000000D02*
X123325000Y-120598300D01*
X108572000Y-57420000D02*
X106100000Y-57420000D01*
X143048300Y-72540000D02*
X123253100Y-72540000D01*
X159580000Y-57360000D02*
X144400000Y-72540000D01*
X123253100Y-72101100D02*
X108572000Y-57420000D01*
X123253100Y-72540000D02*
X123253100Y-72101100D01*
X123325000Y-120598300D02*
X123253100Y-120526400D01*
X144400000Y-72540000D02*
X143048300Y-72540000D01*
X184800000Y-57360000D02*
X159580000Y-57360000D01*
D24*
G04 #@! TO.N,Net-(D1-A)*
X124600000Y-104620000D02*
X124600000Y-105721700D01*
X125865000Y-106986700D02*
X124600000Y-105721700D01*
X125865000Y-122000000D02*
X125865000Y-106986700D01*
G04 #@! TO.N,+5V*
X145788300Y-73354500D02*
X145788300Y-72540000D01*
X132100000Y-117890000D02*
X132100000Y-85742400D01*
X132100000Y-85742400D02*
X143969400Y-73873000D01*
X146940000Y-72540000D02*
X145788300Y-72540000D01*
X145269800Y-73873000D02*
X145788300Y-73354500D01*
X143969400Y-73873000D02*
X145269800Y-73873000D01*
G04 #@! TO.N,Net-(J1-Pin_U)*
X146940000Y-113180000D02*
X145788300Y-113180000D01*
X142929600Y-114321200D02*
X142949700Y-114341300D01*
X145788300Y-113467900D02*
X145788300Y-113180000D01*
X142949700Y-114341300D02*
X144914900Y-114341300D01*
X144914900Y-114341300D02*
X145788300Y-113467900D01*
G04 #@! TO.N,Net-(D2-A)*
X124600000Y-122472000D02*
X127638000Y-125510000D01*
X127638000Y-125510000D02*
X132100000Y-125510000D01*
X124600000Y-114780000D02*
X124600000Y-122472000D01*
G04 #@! TD*
M02*
