M48
; DRILL file {KiCad 8.0.6-8.0.6-0~ubuntu24.10.1} date 2024-10-17T11:16:13-0700
; FORMAT={-:-/ absolute / inch / decimal}
; #@! TF.CreationDate,2024-10-17T11:16:13-07:00
; #@! TF.GenerationSoftware,Kicad,Pcbnew,8.0.6-8.0.6-0~ubuntu24.10.1
; #@! TF.FileFunction,Plated,1,2,PTH
FMAT,2
INCH
; #@! TA.AperFunction,Plated,PTH,ViaDrill
T1C0.0118
; #@! TA.AperFunction,Plated,PTH,ComponentDrill
T2C0.0315
; #@! TA.AperFunction,Plated,PTH,ComponentDrill
T3C0.0354
; #@! TA.AperFunction,Plated,PTH,ComponentDrill
T4C0.0394
; #@! TA.AperFunction,Plated,PTH,ComponentDrill
T5C0.0433
%
G90
G05
T1
X4.267Y-3.4418
X4.3238Y-3.5648
X4.3402Y-3.8604
X4.4144Y-2.4452
X4.4565Y-2.6349
X4.4565Y-3.1018
X4.4565Y-3.92
X4.6874Y-2.7973
X4.6874Y-2.9774
X4.7929Y-3.3344
X4.7929Y-3.7256
X4.7929Y-4.0489
X4.7929Y-4.222
X5.6271Y-4.5008
X6.5697Y-4.4543
T2
X4.9055Y-4.1189
X4.9055Y-4.5189
X5.374Y-5.3365
X5.374Y-5.6365
T3
X4.8553Y-4.8031
X4.9553Y-4.8031
T4
X5.685Y-2.8559
X5.685Y-2.9559
X5.685Y-3.0559
X5.685Y-3.1559
X5.685Y-3.2559
X5.685Y-3.3559
X5.685Y-3.4559
X5.685Y-3.5559
X5.685Y-3.6559
X5.685Y-3.7559
X5.685Y-3.8559
X5.685Y-3.9559
X5.685Y-4.0559
X5.685Y-4.1559
X5.685Y-4.2559
X5.685Y-4.3559
X5.685Y-4.4559
X5.685Y-4.5559
X5.685Y-4.6559
X5.685Y-4.7559
X5.685Y-4.8559
X5.685Y-4.9559
X5.785Y-2.8559
X5.785Y-2.9559
X5.785Y-3.0559
X5.785Y-3.1559
X5.785Y-3.2559
X5.785Y-3.3559
X5.785Y-3.4559
X5.785Y-3.5559
X5.785Y-3.6559
X5.785Y-3.7559
X5.785Y-3.8559
X5.785Y-3.9559
X5.785Y-4.0559
X5.785Y-4.1559
X5.785Y-4.2559
X5.785Y-4.3559
X5.785Y-4.4559
X5.785Y-4.5559
X5.785Y-4.6559
X5.785Y-4.7559
X5.785Y-4.8559
X5.785Y-4.9559
X6.5433Y-5.4433
X6.5433Y-5.5433
T5
X5.2008Y-4.6413
X5.2008Y-4.9413
T4
G00X4.8484Y-5.1594
M15
G01X4.9508Y-5.1594
M16
G05
G00X4.8563Y-5.4075
M15
G01X4.9429Y-5.4075
M16
G05
G00X5.0886Y-5.2303
M15
G01X5.0886Y-5.3169
M16
G05
M30
