G04 #@! TF.GenerationSoftware,KiCad,Pcbnew,8.0.6-8.0.6-0~ubuntu24.10.1*
G04 #@! TF.CreationDate,2024-10-17T11:16:10-07:00*
G04 #@! TF.ProjectId,kim1-power,6b696d31-2d70-46f7-9765-722e6b696361,1.2*
G04 #@! TF.SameCoordinates,Original*
G04 #@! TF.FileFunction,Legend,Top*
G04 #@! TF.FilePolarity,Positive*
%FSLAX46Y46*%
G04 Gerber Fmt 4.6, Leading zero omitted, Abs format (unit mm)*
G04 Created by KiCad (PCBNEW 8.0.6-8.0.6-0~ubuntu24.10.1) date 2024-10-17 11:16:10*
%MOMM*%
%LPD*%
G01*
G04 APERTURE LIST*
%ADD10C,0.100000*%
%ADD11C,0.500000*%
%ADD12C,0.125000*%
%ADD13C,0.300000*%
%ADD14C,0.150000*%
%ADD15C,0.120000*%
G04 APERTURE END LIST*
D10*
X151003884Y-112372419D02*
X151003884Y-113181942D01*
X151003884Y-113181942D02*
X151051503Y-113277180D01*
X151051503Y-113277180D02*
X151099122Y-113324800D01*
X151099122Y-113324800D02*
X151194360Y-113372419D01*
X151194360Y-113372419D02*
X151384836Y-113372419D01*
X151384836Y-113372419D02*
X151480074Y-113324800D01*
X151480074Y-113324800D02*
X151527693Y-113277180D01*
X151527693Y-113277180D02*
X151575312Y-113181942D01*
X151575312Y-113181942D02*
X151575312Y-112372419D01*
X139299122Y-89900990D02*
X139203884Y-89853371D01*
X139203884Y-89853371D02*
X139156265Y-89805752D01*
X139156265Y-89805752D02*
X139108646Y-89710514D01*
X139108646Y-89710514D02*
X139108646Y-89662895D01*
X139108646Y-89662895D02*
X139156265Y-89567657D01*
X139156265Y-89567657D02*
X139203884Y-89520038D01*
X139203884Y-89520038D02*
X139299122Y-89472419D01*
X139299122Y-89472419D02*
X139489598Y-89472419D01*
X139489598Y-89472419D02*
X139584836Y-89520038D01*
X139584836Y-89520038D02*
X139632455Y-89567657D01*
X139632455Y-89567657D02*
X139680074Y-89662895D01*
X139680074Y-89662895D02*
X139680074Y-89710514D01*
X139680074Y-89710514D02*
X139632455Y-89805752D01*
X139632455Y-89805752D02*
X139584836Y-89853371D01*
X139584836Y-89853371D02*
X139489598Y-89900990D01*
X139489598Y-89900990D02*
X139299122Y-89900990D01*
X139299122Y-89900990D02*
X139203884Y-89948609D01*
X139203884Y-89948609D02*
X139156265Y-89996228D01*
X139156265Y-89996228D02*
X139108646Y-90091466D01*
X139108646Y-90091466D02*
X139108646Y-90281942D01*
X139108646Y-90281942D02*
X139156265Y-90377180D01*
X139156265Y-90377180D02*
X139203884Y-90424800D01*
X139203884Y-90424800D02*
X139299122Y-90472419D01*
X139299122Y-90472419D02*
X139489598Y-90472419D01*
X139489598Y-90472419D02*
X139584836Y-90424800D01*
X139584836Y-90424800D02*
X139632455Y-90377180D01*
X139632455Y-90377180D02*
X139680074Y-90281942D01*
X139680074Y-90281942D02*
X139680074Y-90091466D01*
X139680074Y-90091466D02*
X139632455Y-89996228D01*
X139632455Y-89996228D02*
X139584836Y-89948609D01*
X139584836Y-89948609D02*
X139489598Y-89900990D01*
X138727693Y-113472419D02*
X138156265Y-113472419D01*
X138441979Y-113472419D02*
X138441979Y-112472419D01*
X138441979Y-112472419D02*
X138346741Y-112615276D01*
X138346741Y-112615276D02*
X138251503Y-112710514D01*
X138251503Y-112710514D02*
X138156265Y-112758133D01*
X139061027Y-112472419D02*
X139727693Y-112472419D01*
X139727693Y-112472419D02*
X139299122Y-113472419D01*
D11*
X124285713Y-57447193D02*
X124285713Y-54447193D01*
X125999999Y-57447193D02*
X124714285Y-55732907D01*
X125999999Y-54447193D02*
X124285713Y-56161478D01*
X127285713Y-57447193D02*
X127285713Y-54447193D01*
X128714284Y-57447193D02*
X128714284Y-54447193D01*
X128714284Y-54447193D02*
X129714284Y-56590050D01*
X129714284Y-56590050D02*
X130714284Y-54447193D01*
X130714284Y-54447193D02*
X130714284Y-57447193D01*
X132142855Y-56304336D02*
X134428570Y-56304336D01*
X137428570Y-57447193D02*
X135714284Y-57447193D01*
X136571427Y-57447193D02*
X136571427Y-54447193D01*
X136571427Y-54447193D02*
X136285713Y-54875764D01*
X136285713Y-54875764D02*
X135999998Y-55161478D01*
X135999998Y-55161478D02*
X135714284Y-55304336D01*
X140857141Y-56590050D02*
X142285713Y-56590050D01*
X140571427Y-57447193D02*
X141571427Y-54447193D01*
X141571427Y-54447193D02*
X142571427Y-57447193D01*
X143571427Y-55447193D02*
X143571427Y-58447193D01*
X143571427Y-55590050D02*
X143857142Y-55447193D01*
X143857142Y-55447193D02*
X144428570Y-55447193D01*
X144428570Y-55447193D02*
X144714284Y-55590050D01*
X144714284Y-55590050D02*
X144857142Y-55732907D01*
X144857142Y-55732907D02*
X144999999Y-56018621D01*
X144999999Y-56018621D02*
X144999999Y-56875764D01*
X144999999Y-56875764D02*
X144857142Y-57161478D01*
X144857142Y-57161478D02*
X144714284Y-57304336D01*
X144714284Y-57304336D02*
X144428570Y-57447193D01*
X144428570Y-57447193D02*
X143857142Y-57447193D01*
X143857142Y-57447193D02*
X143571427Y-57304336D01*
X146285713Y-55447193D02*
X146285713Y-58447193D01*
X146285713Y-55590050D02*
X146571428Y-55447193D01*
X146571428Y-55447193D02*
X147142856Y-55447193D01*
X147142856Y-55447193D02*
X147428570Y-55590050D01*
X147428570Y-55590050D02*
X147571428Y-55732907D01*
X147571428Y-55732907D02*
X147714285Y-56018621D01*
X147714285Y-56018621D02*
X147714285Y-56875764D01*
X147714285Y-56875764D02*
X147571428Y-57161478D01*
X147571428Y-57161478D02*
X147428570Y-57304336D01*
X147428570Y-57304336D02*
X147142856Y-57447193D01*
X147142856Y-57447193D02*
X146571428Y-57447193D01*
X146571428Y-57447193D02*
X146285713Y-57304336D01*
X149428571Y-57447193D02*
X149142856Y-57304336D01*
X149142856Y-57304336D02*
X148999999Y-57018621D01*
X148999999Y-57018621D02*
X148999999Y-54447193D01*
X150571428Y-57447193D02*
X150571428Y-55447193D01*
X150571428Y-54447193D02*
X150428571Y-54590050D01*
X150428571Y-54590050D02*
X150571428Y-54732907D01*
X150571428Y-54732907D02*
X150714285Y-54590050D01*
X150714285Y-54590050D02*
X150571428Y-54447193D01*
X150571428Y-54447193D02*
X150571428Y-54732907D01*
X153285714Y-57304336D02*
X152999999Y-57447193D01*
X152999999Y-57447193D02*
X152428571Y-57447193D01*
X152428571Y-57447193D02*
X152142856Y-57304336D01*
X152142856Y-57304336D02*
X151999999Y-57161478D01*
X151999999Y-57161478D02*
X151857142Y-56875764D01*
X151857142Y-56875764D02*
X151857142Y-56018621D01*
X151857142Y-56018621D02*
X151999999Y-55732907D01*
X151999999Y-55732907D02*
X152142856Y-55590050D01*
X152142856Y-55590050D02*
X152428571Y-55447193D01*
X152428571Y-55447193D02*
X152999999Y-55447193D01*
X152999999Y-55447193D02*
X153285714Y-55590050D01*
X155857143Y-57447193D02*
X155857143Y-55875764D01*
X155857143Y-55875764D02*
X155714285Y-55590050D01*
X155714285Y-55590050D02*
X155428571Y-55447193D01*
X155428571Y-55447193D02*
X154857143Y-55447193D01*
X154857143Y-55447193D02*
X154571428Y-55590050D01*
X155857143Y-57304336D02*
X155571428Y-57447193D01*
X155571428Y-57447193D02*
X154857143Y-57447193D01*
X154857143Y-57447193D02*
X154571428Y-57304336D01*
X154571428Y-57304336D02*
X154428571Y-57018621D01*
X154428571Y-57018621D02*
X154428571Y-56732907D01*
X154428571Y-56732907D02*
X154571428Y-56447193D01*
X154571428Y-56447193D02*
X154857143Y-56304336D01*
X154857143Y-56304336D02*
X155571428Y-56304336D01*
X155571428Y-56304336D02*
X155857143Y-56161478D01*
X156857143Y-55447193D02*
X158000000Y-55447193D01*
X157285714Y-54447193D02*
X157285714Y-57018621D01*
X157285714Y-57018621D02*
X157428571Y-57304336D01*
X157428571Y-57304336D02*
X157714286Y-57447193D01*
X157714286Y-57447193D02*
X158000000Y-57447193D01*
X159000000Y-57447193D02*
X159000000Y-55447193D01*
X159000000Y-54447193D02*
X158857143Y-54590050D01*
X158857143Y-54590050D02*
X159000000Y-54732907D01*
X159000000Y-54732907D02*
X159142857Y-54590050D01*
X159142857Y-54590050D02*
X159000000Y-54447193D01*
X159000000Y-54447193D02*
X159000000Y-54732907D01*
X160857143Y-57447193D02*
X160571428Y-57304336D01*
X160571428Y-57304336D02*
X160428571Y-57161478D01*
X160428571Y-57161478D02*
X160285714Y-56875764D01*
X160285714Y-56875764D02*
X160285714Y-56018621D01*
X160285714Y-56018621D02*
X160428571Y-55732907D01*
X160428571Y-55732907D02*
X160571428Y-55590050D01*
X160571428Y-55590050D02*
X160857143Y-55447193D01*
X160857143Y-55447193D02*
X161285714Y-55447193D01*
X161285714Y-55447193D02*
X161571428Y-55590050D01*
X161571428Y-55590050D02*
X161714286Y-55732907D01*
X161714286Y-55732907D02*
X161857143Y-56018621D01*
X161857143Y-56018621D02*
X161857143Y-56875764D01*
X161857143Y-56875764D02*
X161714286Y-57161478D01*
X161714286Y-57161478D02*
X161571428Y-57304336D01*
X161571428Y-57304336D02*
X161285714Y-57447193D01*
X161285714Y-57447193D02*
X160857143Y-57447193D01*
X163142857Y-55447193D02*
X163142857Y-57447193D01*
X163142857Y-55732907D02*
X163285714Y-55590050D01*
X163285714Y-55590050D02*
X163571429Y-55447193D01*
X163571429Y-55447193D02*
X164000000Y-55447193D01*
X164000000Y-55447193D02*
X164285714Y-55590050D01*
X164285714Y-55590050D02*
X164428572Y-55875764D01*
X164428572Y-55875764D02*
X164428572Y-57447193D01*
X122642855Y-61991310D02*
X122499998Y-62134168D01*
X122499998Y-62134168D02*
X122071426Y-62277025D01*
X122071426Y-62277025D02*
X121785712Y-62277025D01*
X121785712Y-62277025D02*
X121357141Y-62134168D01*
X121357141Y-62134168D02*
X121071426Y-61848453D01*
X121071426Y-61848453D02*
X120928569Y-61562739D01*
X120928569Y-61562739D02*
X120785712Y-60991310D01*
X120785712Y-60991310D02*
X120785712Y-60562739D01*
X120785712Y-60562739D02*
X120928569Y-59991310D01*
X120928569Y-59991310D02*
X121071426Y-59705596D01*
X121071426Y-59705596D02*
X121357141Y-59419882D01*
X121357141Y-59419882D02*
X121785712Y-59277025D01*
X121785712Y-59277025D02*
X122071426Y-59277025D01*
X122071426Y-59277025D02*
X122499998Y-59419882D01*
X122499998Y-59419882D02*
X122642855Y-59562739D01*
X124357141Y-62277025D02*
X124071426Y-62134168D01*
X124071426Y-62134168D02*
X123928569Y-61991310D01*
X123928569Y-61991310D02*
X123785712Y-61705596D01*
X123785712Y-61705596D02*
X123785712Y-60848453D01*
X123785712Y-60848453D02*
X123928569Y-60562739D01*
X123928569Y-60562739D02*
X124071426Y-60419882D01*
X124071426Y-60419882D02*
X124357141Y-60277025D01*
X124357141Y-60277025D02*
X124785712Y-60277025D01*
X124785712Y-60277025D02*
X125071426Y-60419882D01*
X125071426Y-60419882D02*
X125214284Y-60562739D01*
X125214284Y-60562739D02*
X125357141Y-60848453D01*
X125357141Y-60848453D02*
X125357141Y-61705596D01*
X125357141Y-61705596D02*
X125214284Y-61991310D01*
X125214284Y-61991310D02*
X125071426Y-62134168D01*
X125071426Y-62134168D02*
X124785712Y-62277025D01*
X124785712Y-62277025D02*
X124357141Y-62277025D01*
X126642855Y-60277025D02*
X126642855Y-62277025D01*
X126642855Y-60562739D02*
X126785712Y-60419882D01*
X126785712Y-60419882D02*
X127071427Y-60277025D01*
X127071427Y-60277025D02*
X127499998Y-60277025D01*
X127499998Y-60277025D02*
X127785712Y-60419882D01*
X127785712Y-60419882D02*
X127928570Y-60705596D01*
X127928570Y-60705596D02*
X127928570Y-62277025D01*
X129357141Y-60277025D02*
X129357141Y-62277025D01*
X129357141Y-60562739D02*
X129499998Y-60419882D01*
X129499998Y-60419882D02*
X129785713Y-60277025D01*
X129785713Y-60277025D02*
X130214284Y-60277025D01*
X130214284Y-60277025D02*
X130499998Y-60419882D01*
X130499998Y-60419882D02*
X130642856Y-60705596D01*
X130642856Y-60705596D02*
X130642856Y-62277025D01*
X133214284Y-62134168D02*
X132928570Y-62277025D01*
X132928570Y-62277025D02*
X132357142Y-62277025D01*
X132357142Y-62277025D02*
X132071427Y-62134168D01*
X132071427Y-62134168D02*
X131928570Y-61848453D01*
X131928570Y-61848453D02*
X131928570Y-60705596D01*
X131928570Y-60705596D02*
X132071427Y-60419882D01*
X132071427Y-60419882D02*
X132357142Y-60277025D01*
X132357142Y-60277025D02*
X132928570Y-60277025D01*
X132928570Y-60277025D02*
X133214284Y-60419882D01*
X133214284Y-60419882D02*
X133357142Y-60705596D01*
X133357142Y-60705596D02*
X133357142Y-60991310D01*
X133357142Y-60991310D02*
X131928570Y-61277025D01*
X135928571Y-62134168D02*
X135642856Y-62277025D01*
X135642856Y-62277025D02*
X135071428Y-62277025D01*
X135071428Y-62277025D02*
X134785713Y-62134168D01*
X134785713Y-62134168D02*
X134642856Y-61991310D01*
X134642856Y-61991310D02*
X134499999Y-61705596D01*
X134499999Y-61705596D02*
X134499999Y-60848453D01*
X134499999Y-60848453D02*
X134642856Y-60562739D01*
X134642856Y-60562739D02*
X134785713Y-60419882D01*
X134785713Y-60419882D02*
X135071428Y-60277025D01*
X135071428Y-60277025D02*
X135642856Y-60277025D01*
X135642856Y-60277025D02*
X135928571Y-60419882D01*
X136785714Y-60277025D02*
X137928571Y-60277025D01*
X137214285Y-59277025D02*
X137214285Y-61848453D01*
X137214285Y-61848453D02*
X137357142Y-62134168D01*
X137357142Y-62134168D02*
X137642857Y-62277025D01*
X137642857Y-62277025D02*
X137928571Y-62277025D01*
X139357143Y-62277025D02*
X139071428Y-62134168D01*
X139071428Y-62134168D02*
X138928571Y-61991310D01*
X138928571Y-61991310D02*
X138785714Y-61705596D01*
X138785714Y-61705596D02*
X138785714Y-60848453D01*
X138785714Y-60848453D02*
X138928571Y-60562739D01*
X138928571Y-60562739D02*
X139071428Y-60419882D01*
X139071428Y-60419882D02*
X139357143Y-60277025D01*
X139357143Y-60277025D02*
X139785714Y-60277025D01*
X139785714Y-60277025D02*
X140071428Y-60419882D01*
X140071428Y-60419882D02*
X140214286Y-60562739D01*
X140214286Y-60562739D02*
X140357143Y-60848453D01*
X140357143Y-60848453D02*
X140357143Y-61705596D01*
X140357143Y-61705596D02*
X140214286Y-61991310D01*
X140214286Y-61991310D02*
X140071428Y-62134168D01*
X140071428Y-62134168D02*
X139785714Y-62277025D01*
X139785714Y-62277025D02*
X139357143Y-62277025D01*
X141642857Y-62277025D02*
X141642857Y-60277025D01*
X141642857Y-60848453D02*
X141785714Y-60562739D01*
X141785714Y-60562739D02*
X141928572Y-60419882D01*
X141928572Y-60419882D02*
X142214286Y-60277025D01*
X142214286Y-60277025D02*
X142500000Y-60277025D01*
X146785714Y-60705596D02*
X147214286Y-60848453D01*
X147214286Y-60848453D02*
X147357143Y-60991310D01*
X147357143Y-60991310D02*
X147500000Y-61277025D01*
X147500000Y-61277025D02*
X147500000Y-61705596D01*
X147500000Y-61705596D02*
X147357143Y-61991310D01*
X147357143Y-61991310D02*
X147214286Y-62134168D01*
X147214286Y-62134168D02*
X146928571Y-62277025D01*
X146928571Y-62277025D02*
X145785714Y-62277025D01*
X145785714Y-62277025D02*
X145785714Y-59277025D01*
X145785714Y-59277025D02*
X146785714Y-59277025D01*
X146785714Y-59277025D02*
X147071429Y-59419882D01*
X147071429Y-59419882D02*
X147214286Y-59562739D01*
X147214286Y-59562739D02*
X147357143Y-59848453D01*
X147357143Y-59848453D02*
X147357143Y-60134168D01*
X147357143Y-60134168D02*
X147214286Y-60419882D01*
X147214286Y-60419882D02*
X147071429Y-60562739D01*
X147071429Y-60562739D02*
X146785714Y-60705596D01*
X146785714Y-60705596D02*
X145785714Y-60705596D01*
X148785714Y-62277025D02*
X148785714Y-60277025D01*
X148785714Y-60848453D02*
X148928571Y-60562739D01*
X148928571Y-60562739D02*
X149071429Y-60419882D01*
X149071429Y-60419882D02*
X149357143Y-60277025D01*
X149357143Y-60277025D02*
X149642857Y-60277025D01*
X151785714Y-62134168D02*
X151500000Y-62277025D01*
X151500000Y-62277025D02*
X150928572Y-62277025D01*
X150928572Y-62277025D02*
X150642857Y-62134168D01*
X150642857Y-62134168D02*
X150500000Y-61848453D01*
X150500000Y-61848453D02*
X150500000Y-60705596D01*
X150500000Y-60705596D02*
X150642857Y-60419882D01*
X150642857Y-60419882D02*
X150928572Y-60277025D01*
X150928572Y-60277025D02*
X151500000Y-60277025D01*
X151500000Y-60277025D02*
X151785714Y-60419882D01*
X151785714Y-60419882D02*
X151928572Y-60705596D01*
X151928572Y-60705596D02*
X151928572Y-60991310D01*
X151928572Y-60991310D02*
X150500000Y-61277025D01*
X154500001Y-62277025D02*
X154500001Y-60705596D01*
X154500001Y-60705596D02*
X154357143Y-60419882D01*
X154357143Y-60419882D02*
X154071429Y-60277025D01*
X154071429Y-60277025D02*
X153500001Y-60277025D01*
X153500001Y-60277025D02*
X153214286Y-60419882D01*
X154500001Y-62134168D02*
X154214286Y-62277025D01*
X154214286Y-62277025D02*
X153500001Y-62277025D01*
X153500001Y-62277025D02*
X153214286Y-62134168D01*
X153214286Y-62134168D02*
X153071429Y-61848453D01*
X153071429Y-61848453D02*
X153071429Y-61562739D01*
X153071429Y-61562739D02*
X153214286Y-61277025D01*
X153214286Y-61277025D02*
X153500001Y-61134168D01*
X153500001Y-61134168D02*
X154214286Y-61134168D01*
X154214286Y-61134168D02*
X154500001Y-60991310D01*
X155928572Y-62277025D02*
X155928572Y-59277025D01*
X156214287Y-61134168D02*
X157071429Y-62277025D01*
X157071429Y-60277025D02*
X155928572Y-61419882D01*
X158785715Y-62277025D02*
X158500000Y-62134168D01*
X158500000Y-62134168D02*
X158357143Y-61991310D01*
X158357143Y-61991310D02*
X158214286Y-61705596D01*
X158214286Y-61705596D02*
X158214286Y-60848453D01*
X158214286Y-60848453D02*
X158357143Y-60562739D01*
X158357143Y-60562739D02*
X158500000Y-60419882D01*
X158500000Y-60419882D02*
X158785715Y-60277025D01*
X158785715Y-60277025D02*
X159214286Y-60277025D01*
X159214286Y-60277025D02*
X159500000Y-60419882D01*
X159500000Y-60419882D02*
X159642858Y-60562739D01*
X159642858Y-60562739D02*
X159785715Y-60848453D01*
X159785715Y-60848453D02*
X159785715Y-61705596D01*
X159785715Y-61705596D02*
X159642858Y-61991310D01*
X159642858Y-61991310D02*
X159500000Y-62134168D01*
X159500000Y-62134168D02*
X159214286Y-62277025D01*
X159214286Y-62277025D02*
X158785715Y-62277025D01*
X162357144Y-60277025D02*
X162357144Y-62277025D01*
X161071429Y-60277025D02*
X161071429Y-61848453D01*
X161071429Y-61848453D02*
X161214286Y-62134168D01*
X161214286Y-62134168D02*
X161500001Y-62277025D01*
X161500001Y-62277025D02*
X161928572Y-62277025D01*
X161928572Y-62277025D02*
X162214286Y-62134168D01*
X162214286Y-62134168D02*
X162357144Y-61991310D01*
X163357144Y-60277025D02*
X164500001Y-60277025D01*
X163785715Y-59277025D02*
X163785715Y-61848453D01*
X163785715Y-61848453D02*
X163928572Y-62134168D01*
X163928572Y-62134168D02*
X164214287Y-62277025D01*
X164214287Y-62277025D02*
X164500001Y-62277025D01*
X170214287Y-62277025D02*
X170071430Y-62277025D01*
X170071430Y-62277025D02*
X169785715Y-62134168D01*
X169785715Y-62134168D02*
X169357144Y-61705596D01*
X169357144Y-61705596D02*
X168642858Y-60848453D01*
X168642858Y-60848453D02*
X168357144Y-60419882D01*
X168357144Y-60419882D02*
X168214287Y-59991310D01*
X168214287Y-59991310D02*
X168214287Y-59705596D01*
X168214287Y-59705596D02*
X168357144Y-59419882D01*
X168357144Y-59419882D02*
X168642858Y-59277025D01*
X168642858Y-59277025D02*
X168785715Y-59277025D01*
X168785715Y-59277025D02*
X169071430Y-59419882D01*
X169071430Y-59419882D02*
X169214287Y-59705596D01*
X169214287Y-59705596D02*
X169214287Y-59848453D01*
X169214287Y-59848453D02*
X169071430Y-60134168D01*
X169071430Y-60134168D02*
X168928572Y-60277025D01*
X168928572Y-60277025D02*
X168071430Y-60848453D01*
X168071430Y-60848453D02*
X167928572Y-60991310D01*
X167928572Y-60991310D02*
X167785715Y-61277025D01*
X167785715Y-61277025D02*
X167785715Y-61705596D01*
X167785715Y-61705596D02*
X167928572Y-61991310D01*
X167928572Y-61991310D02*
X168071430Y-62134168D01*
X168071430Y-62134168D02*
X168357144Y-62277025D01*
X168357144Y-62277025D02*
X168785715Y-62277025D01*
X168785715Y-62277025D02*
X169071430Y-62134168D01*
X169071430Y-62134168D02*
X169214287Y-61991310D01*
X169214287Y-61991310D02*
X169642858Y-61419882D01*
X169642858Y-61419882D02*
X169785715Y-60991310D01*
X169785715Y-60991310D02*
X169785715Y-60705596D01*
X139571428Y-67106857D02*
X139571428Y-64106857D01*
X139571428Y-64106857D02*
X140714285Y-64106857D01*
X140714285Y-64106857D02*
X141000000Y-64249714D01*
X141000000Y-64249714D02*
X141142857Y-64392571D01*
X141142857Y-64392571D02*
X141285714Y-64678285D01*
X141285714Y-64678285D02*
X141285714Y-65106857D01*
X141285714Y-65106857D02*
X141142857Y-65392571D01*
X141142857Y-65392571D02*
X141000000Y-65535428D01*
X141000000Y-65535428D02*
X140714285Y-65678285D01*
X140714285Y-65678285D02*
X139571428Y-65678285D01*
X143000000Y-67106857D02*
X142714285Y-66964000D01*
X142714285Y-66964000D02*
X142571428Y-66821142D01*
X142571428Y-66821142D02*
X142428571Y-66535428D01*
X142428571Y-66535428D02*
X142428571Y-65678285D01*
X142428571Y-65678285D02*
X142571428Y-65392571D01*
X142571428Y-65392571D02*
X142714285Y-65249714D01*
X142714285Y-65249714D02*
X143000000Y-65106857D01*
X143000000Y-65106857D02*
X143428571Y-65106857D01*
X143428571Y-65106857D02*
X143714285Y-65249714D01*
X143714285Y-65249714D02*
X143857143Y-65392571D01*
X143857143Y-65392571D02*
X144000000Y-65678285D01*
X144000000Y-65678285D02*
X144000000Y-66535428D01*
X144000000Y-66535428D02*
X143857143Y-66821142D01*
X143857143Y-66821142D02*
X143714285Y-66964000D01*
X143714285Y-66964000D02*
X143428571Y-67106857D01*
X143428571Y-67106857D02*
X143000000Y-67106857D01*
X145000000Y-65106857D02*
X145571429Y-67106857D01*
X145571429Y-67106857D02*
X146142857Y-65678285D01*
X146142857Y-65678285D02*
X146714286Y-67106857D01*
X146714286Y-67106857D02*
X147285714Y-65106857D01*
X149571428Y-66964000D02*
X149285714Y-67106857D01*
X149285714Y-67106857D02*
X148714286Y-67106857D01*
X148714286Y-67106857D02*
X148428571Y-66964000D01*
X148428571Y-66964000D02*
X148285714Y-66678285D01*
X148285714Y-66678285D02*
X148285714Y-65535428D01*
X148285714Y-65535428D02*
X148428571Y-65249714D01*
X148428571Y-65249714D02*
X148714286Y-65106857D01*
X148714286Y-65106857D02*
X149285714Y-65106857D01*
X149285714Y-65106857D02*
X149571428Y-65249714D01*
X149571428Y-65249714D02*
X149714286Y-65535428D01*
X149714286Y-65535428D02*
X149714286Y-65821142D01*
X149714286Y-65821142D02*
X148285714Y-66106857D01*
X151000000Y-67106857D02*
X151000000Y-65106857D01*
X151000000Y-65678285D02*
X151142857Y-65392571D01*
X151142857Y-65392571D02*
X151285715Y-65249714D01*
X151285715Y-65249714D02*
X151571429Y-65106857D01*
X151571429Y-65106857D02*
X151857143Y-65106857D01*
D10*
X139584836Y-79805752D02*
X139584836Y-80472419D01*
X139346741Y-79424800D02*
X139108646Y-80139085D01*
X139108646Y-80139085D02*
X139727693Y-80139085D01*
X151337217Y-74748609D02*
X151480074Y-74796228D01*
X151480074Y-74796228D02*
X151527693Y-74843847D01*
X151527693Y-74843847D02*
X151575312Y-74939085D01*
X151575312Y-74939085D02*
X151575312Y-75081942D01*
X151575312Y-75081942D02*
X151527693Y-75177180D01*
X151527693Y-75177180D02*
X151480074Y-75224800D01*
X151480074Y-75224800D02*
X151384836Y-75272419D01*
X151384836Y-75272419D02*
X151003884Y-75272419D01*
X151003884Y-75272419D02*
X151003884Y-74272419D01*
X151003884Y-74272419D02*
X151337217Y-74272419D01*
X151337217Y-74272419D02*
X151432455Y-74320038D01*
X151432455Y-74320038D02*
X151480074Y-74367657D01*
X151480074Y-74367657D02*
X151527693Y-74462895D01*
X151527693Y-74462895D02*
X151527693Y-74558133D01*
X151527693Y-74558133D02*
X151480074Y-74653371D01*
X151480074Y-74653371D02*
X151432455Y-74700990D01*
X151432455Y-74700990D02*
X151337217Y-74748609D01*
X151337217Y-74748609D02*
X151003884Y-74748609D01*
X138156265Y-125267657D02*
X138203884Y-125220038D01*
X138203884Y-125220038D02*
X138299122Y-125172419D01*
X138299122Y-125172419D02*
X138537217Y-125172419D01*
X138537217Y-125172419D02*
X138632455Y-125220038D01*
X138632455Y-125220038D02*
X138680074Y-125267657D01*
X138680074Y-125267657D02*
X138727693Y-125362895D01*
X138727693Y-125362895D02*
X138727693Y-125458133D01*
X138727693Y-125458133D02*
X138680074Y-125600990D01*
X138680074Y-125600990D02*
X138108646Y-126172419D01*
X138108646Y-126172419D02*
X138727693Y-126172419D01*
X139108646Y-125267657D02*
X139156265Y-125220038D01*
X139156265Y-125220038D02*
X139251503Y-125172419D01*
X139251503Y-125172419D02*
X139489598Y-125172419D01*
X139489598Y-125172419D02*
X139584836Y-125220038D01*
X139584836Y-125220038D02*
X139632455Y-125267657D01*
X139632455Y-125267657D02*
X139680074Y-125362895D01*
X139680074Y-125362895D02*
X139680074Y-125458133D01*
X139680074Y-125458133D02*
X139632455Y-125600990D01*
X139632455Y-125600990D02*
X139061027Y-126172419D01*
X139061027Y-126172419D02*
X139680074Y-126172419D01*
D12*
X139621521Y-72871119D02*
X139050093Y-72871119D01*
X139335807Y-72871119D02*
X139335807Y-71871119D01*
X139335807Y-71871119D02*
X139240569Y-72013976D01*
X139240569Y-72013976D02*
X139145331Y-72109214D01*
X139145331Y-72109214D02*
X139050093Y-72156833D01*
D10*
X150908646Y-125172419D02*
X151575312Y-125172419D01*
X151575312Y-125172419D02*
X150908646Y-126172419D01*
X150908646Y-126172419D02*
X151575312Y-126172419D01*
X151003884Y-82348609D02*
X151337217Y-82348609D01*
X151480074Y-82872419D02*
X151003884Y-82872419D01*
X151003884Y-82872419D02*
X151003884Y-81872419D01*
X151003884Y-81872419D02*
X151480074Y-81872419D01*
X163275312Y-68372419D02*
X162941979Y-67896228D01*
X162703884Y-68372419D02*
X162703884Y-67372419D01*
X162703884Y-67372419D02*
X163084836Y-67372419D01*
X163084836Y-67372419D02*
X163180074Y-67420038D01*
X163180074Y-67420038D02*
X163227693Y-67467657D01*
X163227693Y-67467657D02*
X163275312Y-67562895D01*
X163275312Y-67562895D02*
X163275312Y-67705752D01*
X163275312Y-67705752D02*
X163227693Y-67800990D01*
X163227693Y-67800990D02*
X163180074Y-67848609D01*
X163180074Y-67848609D02*
X163084836Y-67896228D01*
X163084836Y-67896228D02*
X162703884Y-67896228D01*
X164084836Y-68324800D02*
X163989598Y-68372419D01*
X163989598Y-68372419D02*
X163799122Y-68372419D01*
X163799122Y-68372419D02*
X163703884Y-68324800D01*
X163703884Y-68324800D02*
X163656265Y-68229561D01*
X163656265Y-68229561D02*
X163656265Y-67848609D01*
X163656265Y-67848609D02*
X163703884Y-67753371D01*
X163703884Y-67753371D02*
X163799122Y-67705752D01*
X163799122Y-67705752D02*
X163989598Y-67705752D01*
X163989598Y-67705752D02*
X164084836Y-67753371D01*
X164084836Y-67753371D02*
X164132455Y-67848609D01*
X164132455Y-67848609D02*
X164132455Y-67943847D01*
X164132455Y-67943847D02*
X163656265Y-68039085D01*
X164465789Y-67705752D02*
X164703884Y-68372419D01*
X164703884Y-68372419D02*
X164941979Y-67705752D01*
X165322932Y-68372419D02*
X165322932Y-67705752D01*
X165322932Y-67372419D02*
X165275313Y-67420038D01*
X165275313Y-67420038D02*
X165322932Y-67467657D01*
X165322932Y-67467657D02*
X165370551Y-67420038D01*
X165370551Y-67420038D02*
X165322932Y-67372419D01*
X165322932Y-67372419D02*
X165322932Y-67467657D01*
X165751503Y-68324800D02*
X165846741Y-68372419D01*
X165846741Y-68372419D02*
X166037217Y-68372419D01*
X166037217Y-68372419D02*
X166132455Y-68324800D01*
X166132455Y-68324800D02*
X166180074Y-68229561D01*
X166180074Y-68229561D02*
X166180074Y-68181942D01*
X166180074Y-68181942D02*
X166132455Y-68086704D01*
X166132455Y-68086704D02*
X166037217Y-68039085D01*
X166037217Y-68039085D02*
X165894360Y-68039085D01*
X165894360Y-68039085D02*
X165799122Y-67991466D01*
X165799122Y-67991466D02*
X165751503Y-67896228D01*
X165751503Y-67896228D02*
X165751503Y-67848609D01*
X165751503Y-67848609D02*
X165799122Y-67753371D01*
X165799122Y-67753371D02*
X165894360Y-67705752D01*
X165894360Y-67705752D02*
X166037217Y-67705752D01*
X166037217Y-67705752D02*
X166132455Y-67753371D01*
X166608646Y-68372419D02*
X166608646Y-67705752D01*
X166608646Y-67372419D02*
X166561027Y-67420038D01*
X166561027Y-67420038D02*
X166608646Y-67467657D01*
X166608646Y-67467657D02*
X166656265Y-67420038D01*
X166656265Y-67420038D02*
X166608646Y-67372419D01*
X166608646Y-67372419D02*
X166608646Y-67467657D01*
X167227693Y-68372419D02*
X167132455Y-68324800D01*
X167132455Y-68324800D02*
X167084836Y-68277180D01*
X167084836Y-68277180D02*
X167037217Y-68181942D01*
X167037217Y-68181942D02*
X167037217Y-67896228D01*
X167037217Y-67896228D02*
X167084836Y-67800990D01*
X167084836Y-67800990D02*
X167132455Y-67753371D01*
X167132455Y-67753371D02*
X167227693Y-67705752D01*
X167227693Y-67705752D02*
X167370550Y-67705752D01*
X167370550Y-67705752D02*
X167465788Y-67753371D01*
X167465788Y-67753371D02*
X167513407Y-67800990D01*
X167513407Y-67800990D02*
X167561026Y-67896228D01*
X167561026Y-67896228D02*
X167561026Y-68181942D01*
X167561026Y-68181942D02*
X167513407Y-68277180D01*
X167513407Y-68277180D02*
X167465788Y-68324800D01*
X167465788Y-68324800D02*
X167370550Y-68372419D01*
X167370550Y-68372419D02*
X167227693Y-68372419D01*
X167989598Y-67705752D02*
X167989598Y-68372419D01*
X167989598Y-67800990D02*
X168037217Y-67753371D01*
X168037217Y-67753371D02*
X168132455Y-67705752D01*
X168132455Y-67705752D02*
X168275312Y-67705752D01*
X168275312Y-67705752D02*
X168370550Y-67753371D01*
X168370550Y-67753371D02*
X168418169Y-67848609D01*
X168418169Y-67848609D02*
X168418169Y-68372419D01*
X170180074Y-68372419D02*
X169608646Y-68372419D01*
X169894360Y-68372419D02*
X169894360Y-67372419D01*
X169894360Y-67372419D02*
X169799122Y-67515276D01*
X169799122Y-67515276D02*
X169703884Y-67610514D01*
X169703884Y-67610514D02*
X169608646Y-67658133D01*
X170608646Y-68277180D02*
X170656265Y-68324800D01*
X170656265Y-68324800D02*
X170608646Y-68372419D01*
X170608646Y-68372419D02*
X170561027Y-68324800D01*
X170561027Y-68324800D02*
X170608646Y-68277180D01*
X170608646Y-68277180D02*
X170608646Y-68372419D01*
X171037217Y-67467657D02*
X171084836Y-67420038D01*
X171084836Y-67420038D02*
X171180074Y-67372419D01*
X171180074Y-67372419D02*
X171418169Y-67372419D01*
X171418169Y-67372419D02*
X171513407Y-67420038D01*
X171513407Y-67420038D02*
X171561026Y-67467657D01*
X171561026Y-67467657D02*
X171608645Y-67562895D01*
X171608645Y-67562895D02*
X171608645Y-67658133D01*
X171608645Y-67658133D02*
X171561026Y-67800990D01*
X171561026Y-67800990D02*
X170989598Y-68372419D01*
X170989598Y-68372419D02*
X171608645Y-68372419D01*
X139108646Y-74367657D02*
X139156265Y-74320038D01*
X139156265Y-74320038D02*
X139251503Y-74272419D01*
X139251503Y-74272419D02*
X139489598Y-74272419D01*
X139489598Y-74272419D02*
X139584836Y-74320038D01*
X139584836Y-74320038D02*
X139632455Y-74367657D01*
X139632455Y-74367657D02*
X139680074Y-74462895D01*
X139680074Y-74462895D02*
X139680074Y-74558133D01*
X139680074Y-74558133D02*
X139632455Y-74700990D01*
X139632455Y-74700990D02*
X139061027Y-75272419D01*
X139061027Y-75272419D02*
X139680074Y-75272419D01*
X150908646Y-117472419D02*
X151146741Y-118472419D01*
X151146741Y-118472419D02*
X151337217Y-117758133D01*
X151337217Y-117758133D02*
X151527693Y-118472419D01*
X151527693Y-118472419D02*
X151765789Y-117472419D01*
X150956265Y-108224800D02*
X151099122Y-108272419D01*
X151099122Y-108272419D02*
X151337217Y-108272419D01*
X151337217Y-108272419D02*
X151432455Y-108224800D01*
X151432455Y-108224800D02*
X151480074Y-108177180D01*
X151480074Y-108177180D02*
X151527693Y-108081942D01*
X151527693Y-108081942D02*
X151527693Y-107986704D01*
X151527693Y-107986704D02*
X151480074Y-107891466D01*
X151480074Y-107891466D02*
X151432455Y-107843847D01*
X151432455Y-107843847D02*
X151337217Y-107796228D01*
X151337217Y-107796228D02*
X151146741Y-107748609D01*
X151146741Y-107748609D02*
X151051503Y-107700990D01*
X151051503Y-107700990D02*
X151003884Y-107653371D01*
X151003884Y-107653371D02*
X150956265Y-107558133D01*
X150956265Y-107558133D02*
X150956265Y-107462895D01*
X150956265Y-107462895D02*
X151003884Y-107367657D01*
X151003884Y-107367657D02*
X151051503Y-107320038D01*
X151051503Y-107320038D02*
X151146741Y-107272419D01*
X151146741Y-107272419D02*
X151384836Y-107272419D01*
X151384836Y-107272419D02*
X151527693Y-107320038D01*
X171372419Y-131696115D02*
X170372419Y-131696115D01*
X171372419Y-131267544D02*
X170848609Y-131267544D01*
X170848609Y-131267544D02*
X170753371Y-131315163D01*
X170753371Y-131315163D02*
X170705752Y-131410401D01*
X170705752Y-131410401D02*
X170705752Y-131553258D01*
X170705752Y-131553258D02*
X170753371Y-131648496D01*
X170753371Y-131648496D02*
X170800990Y-131696115D01*
X170705752Y-130934210D02*
X170705752Y-130553258D01*
X170372419Y-130791353D02*
X171229561Y-130791353D01*
X171229561Y-130791353D02*
X171324800Y-130743734D01*
X171324800Y-130743734D02*
X171372419Y-130648496D01*
X171372419Y-130648496D02*
X171372419Y-130553258D01*
X170705752Y-130362781D02*
X170705752Y-129981829D01*
X170372419Y-130219924D02*
X171229561Y-130219924D01*
X171229561Y-130219924D02*
X171324800Y-130172305D01*
X171324800Y-130172305D02*
X171372419Y-130077067D01*
X171372419Y-130077067D02*
X171372419Y-129981829D01*
X170705752Y-129648495D02*
X171705752Y-129648495D01*
X170753371Y-129648495D02*
X170705752Y-129553257D01*
X170705752Y-129553257D02*
X170705752Y-129362781D01*
X170705752Y-129362781D02*
X170753371Y-129267543D01*
X170753371Y-129267543D02*
X170800990Y-129219924D01*
X170800990Y-129219924D02*
X170896228Y-129172305D01*
X170896228Y-129172305D02*
X171181942Y-129172305D01*
X171181942Y-129172305D02*
X171277180Y-129219924D01*
X171277180Y-129219924D02*
X171324800Y-129267543D01*
X171324800Y-129267543D02*
X171372419Y-129362781D01*
X171372419Y-129362781D02*
X171372419Y-129553257D01*
X171372419Y-129553257D02*
X171324800Y-129648495D01*
X171324800Y-128791352D02*
X171372419Y-128696114D01*
X171372419Y-128696114D02*
X171372419Y-128505638D01*
X171372419Y-128505638D02*
X171324800Y-128410400D01*
X171324800Y-128410400D02*
X171229561Y-128362781D01*
X171229561Y-128362781D02*
X171181942Y-128362781D01*
X171181942Y-128362781D02*
X171086704Y-128410400D01*
X171086704Y-128410400D02*
X171039085Y-128505638D01*
X171039085Y-128505638D02*
X171039085Y-128648495D01*
X171039085Y-128648495D02*
X170991466Y-128743733D01*
X170991466Y-128743733D02*
X170896228Y-128791352D01*
X170896228Y-128791352D02*
X170848609Y-128791352D01*
X170848609Y-128791352D02*
X170753371Y-128743733D01*
X170753371Y-128743733D02*
X170705752Y-128648495D01*
X170705752Y-128648495D02*
X170705752Y-128505638D01*
X170705752Y-128505638D02*
X170753371Y-128410400D01*
X171277180Y-127934209D02*
X171324800Y-127886590D01*
X171324800Y-127886590D02*
X171372419Y-127934209D01*
X171372419Y-127934209D02*
X171324800Y-127981828D01*
X171324800Y-127981828D02*
X171277180Y-127934209D01*
X171277180Y-127934209D02*
X171372419Y-127934209D01*
X170753371Y-127934209D02*
X170800990Y-127886590D01*
X170800990Y-127886590D02*
X170848609Y-127934209D01*
X170848609Y-127934209D02*
X170800990Y-127981828D01*
X170800990Y-127981828D02*
X170753371Y-127934209D01*
X170753371Y-127934209D02*
X170848609Y-127934209D01*
X170324800Y-126743734D02*
X171610514Y-127600876D01*
X170324800Y-125696115D02*
X171610514Y-126553257D01*
X170705752Y-124934210D02*
X171515276Y-124934210D01*
X171515276Y-124934210D02*
X171610514Y-124981829D01*
X171610514Y-124981829D02*
X171658133Y-125029448D01*
X171658133Y-125029448D02*
X171705752Y-125124686D01*
X171705752Y-125124686D02*
X171705752Y-125267543D01*
X171705752Y-125267543D02*
X171658133Y-125362781D01*
X171324800Y-124934210D02*
X171372419Y-125029448D01*
X171372419Y-125029448D02*
X171372419Y-125219924D01*
X171372419Y-125219924D02*
X171324800Y-125315162D01*
X171324800Y-125315162D02*
X171277180Y-125362781D01*
X171277180Y-125362781D02*
X171181942Y-125410400D01*
X171181942Y-125410400D02*
X170896228Y-125410400D01*
X170896228Y-125410400D02*
X170800990Y-125362781D01*
X170800990Y-125362781D02*
X170753371Y-125315162D01*
X170753371Y-125315162D02*
X170705752Y-125219924D01*
X170705752Y-125219924D02*
X170705752Y-125029448D01*
X170705752Y-125029448D02*
X170753371Y-124934210D01*
X171372419Y-124458019D02*
X170705752Y-124458019D01*
X170372419Y-124458019D02*
X170420038Y-124505638D01*
X170420038Y-124505638D02*
X170467657Y-124458019D01*
X170467657Y-124458019D02*
X170420038Y-124410400D01*
X170420038Y-124410400D02*
X170372419Y-124458019D01*
X170372419Y-124458019D02*
X170467657Y-124458019D01*
X170705752Y-124124686D02*
X170705752Y-123743734D01*
X170372419Y-123981829D02*
X171229561Y-123981829D01*
X171229561Y-123981829D02*
X171324800Y-123934210D01*
X171324800Y-123934210D02*
X171372419Y-123838972D01*
X171372419Y-123838972D02*
X171372419Y-123743734D01*
X171372419Y-123410400D02*
X170372419Y-123410400D01*
X171372419Y-122981829D02*
X170848609Y-122981829D01*
X170848609Y-122981829D02*
X170753371Y-123029448D01*
X170753371Y-123029448D02*
X170705752Y-123124686D01*
X170705752Y-123124686D02*
X170705752Y-123267543D01*
X170705752Y-123267543D02*
X170753371Y-123362781D01*
X170753371Y-123362781D02*
X170800990Y-123410400D01*
X170705752Y-122077067D02*
X171372419Y-122077067D01*
X170705752Y-122505638D02*
X171229561Y-122505638D01*
X171229561Y-122505638D02*
X171324800Y-122458019D01*
X171324800Y-122458019D02*
X171372419Y-122362781D01*
X171372419Y-122362781D02*
X171372419Y-122219924D01*
X171372419Y-122219924D02*
X171324800Y-122124686D01*
X171324800Y-122124686D02*
X171277180Y-122077067D01*
X171372419Y-121600876D02*
X170372419Y-121600876D01*
X170753371Y-121600876D02*
X170705752Y-121505638D01*
X170705752Y-121505638D02*
X170705752Y-121315162D01*
X170705752Y-121315162D02*
X170753371Y-121219924D01*
X170753371Y-121219924D02*
X170800990Y-121172305D01*
X170800990Y-121172305D02*
X170896228Y-121124686D01*
X170896228Y-121124686D02*
X171181942Y-121124686D01*
X171181942Y-121124686D02*
X171277180Y-121172305D01*
X171277180Y-121172305D02*
X171324800Y-121219924D01*
X171324800Y-121219924D02*
X171372419Y-121315162D01*
X171372419Y-121315162D02*
X171372419Y-121505638D01*
X171372419Y-121505638D02*
X171324800Y-121600876D01*
X171277180Y-120696114D02*
X171324800Y-120648495D01*
X171324800Y-120648495D02*
X171372419Y-120696114D01*
X171372419Y-120696114D02*
X171324800Y-120743733D01*
X171324800Y-120743733D02*
X171277180Y-120696114D01*
X171277180Y-120696114D02*
X171372419Y-120696114D01*
X171324800Y-119791353D02*
X171372419Y-119886591D01*
X171372419Y-119886591D02*
X171372419Y-120077067D01*
X171372419Y-120077067D02*
X171324800Y-120172305D01*
X171324800Y-120172305D02*
X171277180Y-120219924D01*
X171277180Y-120219924D02*
X171181942Y-120267543D01*
X171181942Y-120267543D02*
X170896228Y-120267543D01*
X170896228Y-120267543D02*
X170800990Y-120219924D01*
X170800990Y-120219924D02*
X170753371Y-120172305D01*
X170753371Y-120172305D02*
X170705752Y-120077067D01*
X170705752Y-120077067D02*
X170705752Y-119886591D01*
X170705752Y-119886591D02*
X170753371Y-119791353D01*
X171372419Y-119219924D02*
X171324800Y-119315162D01*
X171324800Y-119315162D02*
X171277180Y-119362781D01*
X171277180Y-119362781D02*
X171181942Y-119410400D01*
X171181942Y-119410400D02*
X170896228Y-119410400D01*
X170896228Y-119410400D02*
X170800990Y-119362781D01*
X170800990Y-119362781D02*
X170753371Y-119315162D01*
X170753371Y-119315162D02*
X170705752Y-119219924D01*
X170705752Y-119219924D02*
X170705752Y-119077067D01*
X170705752Y-119077067D02*
X170753371Y-118981829D01*
X170753371Y-118981829D02*
X170800990Y-118934210D01*
X170800990Y-118934210D02*
X170896228Y-118886591D01*
X170896228Y-118886591D02*
X171181942Y-118886591D01*
X171181942Y-118886591D02*
X171277180Y-118934210D01*
X171277180Y-118934210D02*
X171324800Y-118981829D01*
X171324800Y-118981829D02*
X171372419Y-119077067D01*
X171372419Y-119077067D02*
X171372419Y-119219924D01*
X171372419Y-118458019D02*
X170705752Y-118458019D01*
X170800990Y-118458019D02*
X170753371Y-118410400D01*
X170753371Y-118410400D02*
X170705752Y-118315162D01*
X170705752Y-118315162D02*
X170705752Y-118172305D01*
X170705752Y-118172305D02*
X170753371Y-118077067D01*
X170753371Y-118077067D02*
X170848609Y-118029448D01*
X170848609Y-118029448D02*
X171372419Y-118029448D01*
X170848609Y-118029448D02*
X170753371Y-117981829D01*
X170753371Y-117981829D02*
X170705752Y-117886591D01*
X170705752Y-117886591D02*
X170705752Y-117743734D01*
X170705752Y-117743734D02*
X170753371Y-117648495D01*
X170753371Y-117648495D02*
X170848609Y-117600876D01*
X170848609Y-117600876D02*
X171372419Y-117600876D01*
X170324800Y-116410401D02*
X171610514Y-117267543D01*
X170705752Y-116172305D02*
X171372419Y-115981829D01*
X171372419Y-115981829D02*
X170896228Y-115791353D01*
X170896228Y-115791353D02*
X171372419Y-115600877D01*
X171372419Y-115600877D02*
X170705752Y-115410401D01*
X170705752Y-115172305D02*
X170705752Y-114791353D01*
X171372419Y-115029448D02*
X170515276Y-115029448D01*
X170515276Y-115029448D02*
X170420038Y-114981829D01*
X170420038Y-114981829D02*
X170372419Y-114886591D01*
X170372419Y-114886591D02*
X170372419Y-114791353D01*
X171372419Y-114029448D02*
X170372419Y-114029448D01*
X171324800Y-114029448D02*
X171372419Y-114124686D01*
X171372419Y-114124686D02*
X171372419Y-114315162D01*
X171372419Y-114315162D02*
X171324800Y-114410400D01*
X171324800Y-114410400D02*
X171277180Y-114458019D01*
X171277180Y-114458019D02*
X171181942Y-114505638D01*
X171181942Y-114505638D02*
X170896228Y-114505638D01*
X170896228Y-114505638D02*
X170800990Y-114458019D01*
X170800990Y-114458019D02*
X170753371Y-114410400D01*
X170753371Y-114410400D02*
X170705752Y-114315162D01*
X170705752Y-114315162D02*
X170705752Y-114124686D01*
X170705752Y-114124686D02*
X170753371Y-114029448D01*
X170372419Y-113648495D02*
X170372419Y-113029448D01*
X170372419Y-113029448D02*
X170753371Y-113362781D01*
X170753371Y-113362781D02*
X170753371Y-113219924D01*
X170753371Y-113219924D02*
X170800990Y-113124686D01*
X170800990Y-113124686D02*
X170848609Y-113077067D01*
X170848609Y-113077067D02*
X170943847Y-113029448D01*
X170943847Y-113029448D02*
X171181942Y-113029448D01*
X171181942Y-113029448D02*
X171277180Y-113077067D01*
X171277180Y-113077067D02*
X171324800Y-113124686D01*
X171324800Y-113124686D02*
X171372419Y-113219924D01*
X171372419Y-113219924D02*
X171372419Y-113505638D01*
X171372419Y-113505638D02*
X171324800Y-113600876D01*
X171324800Y-113600876D02*
X171277180Y-113648495D01*
X170324800Y-111886591D02*
X171610514Y-112743733D01*
X171372419Y-111553257D02*
X170372419Y-111553257D01*
X171372419Y-110981829D02*
X170800990Y-111410400D01*
X170372419Y-110981829D02*
X170943847Y-111553257D01*
X171372419Y-110553257D02*
X170372419Y-110553257D01*
X171372419Y-110077067D02*
X170372419Y-110077067D01*
X170372419Y-110077067D02*
X171086704Y-109743734D01*
X171086704Y-109743734D02*
X170372419Y-109410401D01*
X170372419Y-109410401D02*
X171372419Y-109410401D01*
X171372419Y-108410401D02*
X171372419Y-108981829D01*
X171372419Y-108696115D02*
X170372419Y-108696115D01*
X170372419Y-108696115D02*
X170515276Y-108791353D01*
X170515276Y-108791353D02*
X170610514Y-108886591D01*
X170610514Y-108886591D02*
X170658133Y-108981829D01*
X170991466Y-107981829D02*
X170991466Y-107219925D01*
X171372419Y-106743734D02*
X170372419Y-106743734D01*
X170753371Y-106743734D02*
X170705752Y-106648496D01*
X170705752Y-106648496D02*
X170705752Y-106458020D01*
X170705752Y-106458020D02*
X170753371Y-106362782D01*
X170753371Y-106362782D02*
X170800990Y-106315163D01*
X170800990Y-106315163D02*
X170896228Y-106267544D01*
X170896228Y-106267544D02*
X171181942Y-106267544D01*
X171181942Y-106267544D02*
X171277180Y-106315163D01*
X171277180Y-106315163D02*
X171324800Y-106362782D01*
X171324800Y-106362782D02*
X171372419Y-106458020D01*
X171372419Y-106458020D02*
X171372419Y-106648496D01*
X171372419Y-106648496D02*
X171324800Y-106743734D01*
X171372419Y-105838972D02*
X170705752Y-105838972D01*
X170896228Y-105838972D02*
X170800990Y-105791353D01*
X170800990Y-105791353D02*
X170753371Y-105743734D01*
X170753371Y-105743734D02*
X170705752Y-105648496D01*
X170705752Y-105648496D02*
X170705752Y-105553258D01*
X171324800Y-104838972D02*
X171372419Y-104934210D01*
X171372419Y-104934210D02*
X171372419Y-105124686D01*
X171372419Y-105124686D02*
X171324800Y-105219924D01*
X171324800Y-105219924D02*
X171229561Y-105267543D01*
X171229561Y-105267543D02*
X170848609Y-105267543D01*
X170848609Y-105267543D02*
X170753371Y-105219924D01*
X170753371Y-105219924D02*
X170705752Y-105124686D01*
X170705752Y-105124686D02*
X170705752Y-104934210D01*
X170705752Y-104934210D02*
X170753371Y-104838972D01*
X170753371Y-104838972D02*
X170848609Y-104791353D01*
X170848609Y-104791353D02*
X170943847Y-104791353D01*
X170943847Y-104791353D02*
X171039085Y-105267543D01*
X171372419Y-103934210D02*
X170848609Y-103934210D01*
X170848609Y-103934210D02*
X170753371Y-103981829D01*
X170753371Y-103981829D02*
X170705752Y-104077067D01*
X170705752Y-104077067D02*
X170705752Y-104267543D01*
X170705752Y-104267543D02*
X170753371Y-104362781D01*
X171324800Y-103934210D02*
X171372419Y-104029448D01*
X171372419Y-104029448D02*
X171372419Y-104267543D01*
X171372419Y-104267543D02*
X171324800Y-104362781D01*
X171324800Y-104362781D02*
X171229561Y-104410400D01*
X171229561Y-104410400D02*
X171134323Y-104410400D01*
X171134323Y-104410400D02*
X171039085Y-104362781D01*
X171039085Y-104362781D02*
X170991466Y-104267543D01*
X170991466Y-104267543D02*
X170991466Y-104029448D01*
X170991466Y-104029448D02*
X170943847Y-103934210D01*
X171372419Y-103458019D02*
X170372419Y-103458019D01*
X170991466Y-103362781D02*
X171372419Y-103077067D01*
X170705752Y-103077067D02*
X171086704Y-103458019D01*
X171372419Y-102505638D02*
X171324800Y-102600876D01*
X171324800Y-102600876D02*
X171277180Y-102648495D01*
X171277180Y-102648495D02*
X171181942Y-102696114D01*
X171181942Y-102696114D02*
X170896228Y-102696114D01*
X170896228Y-102696114D02*
X170800990Y-102648495D01*
X170800990Y-102648495D02*
X170753371Y-102600876D01*
X170753371Y-102600876D02*
X170705752Y-102505638D01*
X170705752Y-102505638D02*
X170705752Y-102362781D01*
X170705752Y-102362781D02*
X170753371Y-102267543D01*
X170753371Y-102267543D02*
X170800990Y-102219924D01*
X170800990Y-102219924D02*
X170896228Y-102172305D01*
X170896228Y-102172305D02*
X171181942Y-102172305D01*
X171181942Y-102172305D02*
X171277180Y-102219924D01*
X171277180Y-102219924D02*
X171324800Y-102267543D01*
X171324800Y-102267543D02*
X171372419Y-102362781D01*
X171372419Y-102362781D02*
X171372419Y-102505638D01*
X170705752Y-101315162D02*
X171372419Y-101315162D01*
X170705752Y-101743733D02*
X171229561Y-101743733D01*
X171229561Y-101743733D02*
X171324800Y-101696114D01*
X171324800Y-101696114D02*
X171372419Y-101600876D01*
X171372419Y-101600876D02*
X171372419Y-101458019D01*
X171372419Y-101458019D02*
X171324800Y-101362781D01*
X171324800Y-101362781D02*
X171277180Y-101315162D01*
X170705752Y-100981828D02*
X170705752Y-100600876D01*
X170372419Y-100838971D02*
X171229561Y-100838971D01*
X171229561Y-100838971D02*
X171324800Y-100791352D01*
X171324800Y-100791352D02*
X171372419Y-100696114D01*
X171372419Y-100696114D02*
X171372419Y-100600876D01*
X170991466Y-100267542D02*
X170991466Y-99505638D01*
X171372419Y-99029447D02*
X170372419Y-99029447D01*
X170753371Y-99029447D02*
X170705752Y-98934209D01*
X170705752Y-98934209D02*
X170705752Y-98743733D01*
X170705752Y-98743733D02*
X170753371Y-98648495D01*
X170753371Y-98648495D02*
X170800990Y-98600876D01*
X170800990Y-98600876D02*
X170896228Y-98553257D01*
X170896228Y-98553257D02*
X171181942Y-98553257D01*
X171181942Y-98553257D02*
X171277180Y-98600876D01*
X171277180Y-98600876D02*
X171324800Y-98648495D01*
X171324800Y-98648495D02*
X171372419Y-98743733D01*
X171372419Y-98743733D02*
X171372419Y-98934209D01*
X171372419Y-98934209D02*
X171324800Y-99029447D01*
X171372419Y-97981828D02*
X171324800Y-98077066D01*
X171324800Y-98077066D02*
X171277180Y-98124685D01*
X171277180Y-98124685D02*
X171181942Y-98172304D01*
X171181942Y-98172304D02*
X170896228Y-98172304D01*
X170896228Y-98172304D02*
X170800990Y-98124685D01*
X170800990Y-98124685D02*
X170753371Y-98077066D01*
X170753371Y-98077066D02*
X170705752Y-97981828D01*
X170705752Y-97981828D02*
X170705752Y-97838971D01*
X170705752Y-97838971D02*
X170753371Y-97743733D01*
X170753371Y-97743733D02*
X170800990Y-97696114D01*
X170800990Y-97696114D02*
X170896228Y-97648495D01*
X170896228Y-97648495D02*
X171181942Y-97648495D01*
X171181942Y-97648495D02*
X171277180Y-97696114D01*
X171277180Y-97696114D02*
X171324800Y-97743733D01*
X171324800Y-97743733D02*
X171372419Y-97838971D01*
X171372419Y-97838971D02*
X171372419Y-97981828D01*
X171372419Y-96791352D02*
X170848609Y-96791352D01*
X170848609Y-96791352D02*
X170753371Y-96838971D01*
X170753371Y-96838971D02*
X170705752Y-96934209D01*
X170705752Y-96934209D02*
X170705752Y-97124685D01*
X170705752Y-97124685D02*
X170753371Y-97219923D01*
X171324800Y-96791352D02*
X171372419Y-96886590D01*
X171372419Y-96886590D02*
X171372419Y-97124685D01*
X171372419Y-97124685D02*
X171324800Y-97219923D01*
X171324800Y-97219923D02*
X171229561Y-97267542D01*
X171229561Y-97267542D02*
X171134323Y-97267542D01*
X171134323Y-97267542D02*
X171039085Y-97219923D01*
X171039085Y-97219923D02*
X170991466Y-97124685D01*
X170991466Y-97124685D02*
X170991466Y-96886590D01*
X170991466Y-96886590D02*
X170943847Y-96791352D01*
X171372419Y-96315161D02*
X170705752Y-96315161D01*
X170896228Y-96315161D02*
X170800990Y-96267542D01*
X170800990Y-96267542D02*
X170753371Y-96219923D01*
X170753371Y-96219923D02*
X170705752Y-96124685D01*
X170705752Y-96124685D02*
X170705752Y-96029447D01*
X171372419Y-95267542D02*
X170372419Y-95267542D01*
X171324800Y-95267542D02*
X171372419Y-95362780D01*
X171372419Y-95362780D02*
X171372419Y-95553256D01*
X171372419Y-95553256D02*
X171324800Y-95648494D01*
X171324800Y-95648494D02*
X171277180Y-95696113D01*
X171277180Y-95696113D02*
X171181942Y-95743732D01*
X171181942Y-95743732D02*
X170896228Y-95743732D01*
X170896228Y-95743732D02*
X170800990Y-95696113D01*
X170800990Y-95696113D02*
X170753371Y-95648494D01*
X170753371Y-95648494D02*
X170705752Y-95553256D01*
X170705752Y-95553256D02*
X170705752Y-95362780D01*
X170705752Y-95362780D02*
X170753371Y-95267542D01*
X139203884Y-93172419D02*
X139394360Y-93172419D01*
X139394360Y-93172419D02*
X139489598Y-93124800D01*
X139489598Y-93124800D02*
X139537217Y-93077180D01*
X139537217Y-93077180D02*
X139632455Y-92934323D01*
X139632455Y-92934323D02*
X139680074Y-92743847D01*
X139680074Y-92743847D02*
X139680074Y-92362895D01*
X139680074Y-92362895D02*
X139632455Y-92267657D01*
X139632455Y-92267657D02*
X139584836Y-92220038D01*
X139584836Y-92220038D02*
X139489598Y-92172419D01*
X139489598Y-92172419D02*
X139299122Y-92172419D01*
X139299122Y-92172419D02*
X139203884Y-92220038D01*
X139203884Y-92220038D02*
X139156265Y-92267657D01*
X139156265Y-92267657D02*
X139108646Y-92362895D01*
X139108646Y-92362895D02*
X139108646Y-92600990D01*
X139108646Y-92600990D02*
X139156265Y-92696228D01*
X139156265Y-92696228D02*
X139203884Y-92743847D01*
X139203884Y-92743847D02*
X139299122Y-92791466D01*
X139299122Y-92791466D02*
X139489598Y-92791466D01*
X139489598Y-92791466D02*
X139584836Y-92743847D01*
X139584836Y-92743847D02*
X139632455Y-92696228D01*
X139632455Y-92696228D02*
X139680074Y-92600990D01*
X151003884Y-103072419D02*
X151003884Y-102072419D01*
X151003884Y-102072419D02*
X151384836Y-102072419D01*
X151384836Y-102072419D02*
X151480074Y-102120038D01*
X151480074Y-102120038D02*
X151527693Y-102167657D01*
X151527693Y-102167657D02*
X151575312Y-102262895D01*
X151575312Y-102262895D02*
X151575312Y-102405752D01*
X151575312Y-102405752D02*
X151527693Y-102500990D01*
X151527693Y-102500990D02*
X151480074Y-102548609D01*
X151480074Y-102548609D02*
X151384836Y-102596228D01*
X151384836Y-102596228D02*
X151003884Y-102596228D01*
X150861027Y-114772419D02*
X151194360Y-115772419D01*
X151194360Y-115772419D02*
X151527693Y-114772419D01*
X151003884Y-80472419D02*
X151003884Y-79472419D01*
X151003884Y-79472419D02*
X151241979Y-79472419D01*
X151241979Y-79472419D02*
X151384836Y-79520038D01*
X151384836Y-79520038D02*
X151480074Y-79615276D01*
X151480074Y-79615276D02*
X151527693Y-79710514D01*
X151527693Y-79710514D02*
X151575312Y-79900990D01*
X151575312Y-79900990D02*
X151575312Y-80043847D01*
X151575312Y-80043847D02*
X151527693Y-80234323D01*
X151527693Y-80234323D02*
X151480074Y-80329561D01*
X151480074Y-80329561D02*
X151384836Y-80424800D01*
X151384836Y-80424800D02*
X151241979Y-80472419D01*
X151241979Y-80472419D02*
X151003884Y-80472419D01*
X138727693Y-115872419D02*
X138156265Y-115872419D01*
X138441979Y-115872419D02*
X138441979Y-114872419D01*
X138441979Y-114872419D02*
X138346741Y-115015276D01*
X138346741Y-115015276D02*
X138251503Y-115110514D01*
X138251503Y-115110514D02*
X138156265Y-115158133D01*
X139299122Y-115300990D02*
X139203884Y-115253371D01*
X139203884Y-115253371D02*
X139156265Y-115205752D01*
X139156265Y-115205752D02*
X139108646Y-115110514D01*
X139108646Y-115110514D02*
X139108646Y-115062895D01*
X139108646Y-115062895D02*
X139156265Y-114967657D01*
X139156265Y-114967657D02*
X139203884Y-114920038D01*
X139203884Y-114920038D02*
X139299122Y-114872419D01*
X139299122Y-114872419D02*
X139489598Y-114872419D01*
X139489598Y-114872419D02*
X139584836Y-114920038D01*
X139584836Y-114920038D02*
X139632455Y-114967657D01*
X139632455Y-114967657D02*
X139680074Y-115062895D01*
X139680074Y-115062895D02*
X139680074Y-115110514D01*
X139680074Y-115110514D02*
X139632455Y-115205752D01*
X139632455Y-115205752D02*
X139584836Y-115253371D01*
X139584836Y-115253371D02*
X139489598Y-115300990D01*
X139489598Y-115300990D02*
X139299122Y-115300990D01*
X139299122Y-115300990D02*
X139203884Y-115348609D01*
X139203884Y-115348609D02*
X139156265Y-115396228D01*
X139156265Y-115396228D02*
X139108646Y-115491466D01*
X139108646Y-115491466D02*
X139108646Y-115681942D01*
X139108646Y-115681942D02*
X139156265Y-115777180D01*
X139156265Y-115777180D02*
X139203884Y-115824800D01*
X139203884Y-115824800D02*
X139299122Y-115872419D01*
X139299122Y-115872419D02*
X139489598Y-115872419D01*
X139489598Y-115872419D02*
X139584836Y-115824800D01*
X139584836Y-115824800D02*
X139632455Y-115777180D01*
X139632455Y-115777180D02*
X139680074Y-115681942D01*
X139680074Y-115681942D02*
X139680074Y-115491466D01*
X139680074Y-115491466D02*
X139632455Y-115396228D01*
X139632455Y-115396228D02*
X139584836Y-115348609D01*
X139584836Y-115348609D02*
X139489598Y-115300990D01*
X138727693Y-95572419D02*
X138156265Y-95572419D01*
X138441979Y-95572419D02*
X138441979Y-94572419D01*
X138441979Y-94572419D02*
X138346741Y-94715276D01*
X138346741Y-94715276D02*
X138251503Y-94810514D01*
X138251503Y-94810514D02*
X138156265Y-94858133D01*
X139346741Y-94572419D02*
X139441979Y-94572419D01*
X139441979Y-94572419D02*
X139537217Y-94620038D01*
X139537217Y-94620038D02*
X139584836Y-94667657D01*
X139584836Y-94667657D02*
X139632455Y-94762895D01*
X139632455Y-94762895D02*
X139680074Y-94953371D01*
X139680074Y-94953371D02*
X139680074Y-95191466D01*
X139680074Y-95191466D02*
X139632455Y-95381942D01*
X139632455Y-95381942D02*
X139584836Y-95477180D01*
X139584836Y-95477180D02*
X139537217Y-95524800D01*
X139537217Y-95524800D02*
X139441979Y-95572419D01*
X139441979Y-95572419D02*
X139346741Y-95572419D01*
X139346741Y-95572419D02*
X139251503Y-95524800D01*
X139251503Y-95524800D02*
X139203884Y-95477180D01*
X139203884Y-95477180D02*
X139156265Y-95381942D01*
X139156265Y-95381942D02*
X139108646Y-95191466D01*
X139108646Y-95191466D02*
X139108646Y-94953371D01*
X139108646Y-94953371D02*
X139156265Y-94762895D01*
X139156265Y-94762895D02*
X139203884Y-94667657D01*
X139203884Y-94667657D02*
X139251503Y-94620038D01*
X139251503Y-94620038D02*
X139346741Y-94572419D01*
X138727693Y-100672419D02*
X138156265Y-100672419D01*
X138441979Y-100672419D02*
X138441979Y-99672419D01*
X138441979Y-99672419D02*
X138346741Y-99815276D01*
X138346741Y-99815276D02*
X138251503Y-99910514D01*
X138251503Y-99910514D02*
X138156265Y-99958133D01*
X139108646Y-99767657D02*
X139156265Y-99720038D01*
X139156265Y-99720038D02*
X139251503Y-99672419D01*
X139251503Y-99672419D02*
X139489598Y-99672419D01*
X139489598Y-99672419D02*
X139584836Y-99720038D01*
X139584836Y-99720038D02*
X139632455Y-99767657D01*
X139632455Y-99767657D02*
X139680074Y-99862895D01*
X139680074Y-99862895D02*
X139680074Y-99958133D01*
X139680074Y-99958133D02*
X139632455Y-100100990D01*
X139632455Y-100100990D02*
X139061027Y-100672419D01*
X139061027Y-100672419D02*
X139680074Y-100672419D01*
X151003884Y-100572419D02*
X151003884Y-99572419D01*
X151003884Y-99572419D02*
X151575312Y-100572419D01*
X151575312Y-100572419D02*
X151575312Y-99572419D01*
X139061027Y-76872419D02*
X139680074Y-76872419D01*
X139680074Y-76872419D02*
X139346741Y-77253371D01*
X139346741Y-77253371D02*
X139489598Y-77253371D01*
X139489598Y-77253371D02*
X139584836Y-77300990D01*
X139584836Y-77300990D02*
X139632455Y-77348609D01*
X139632455Y-77348609D02*
X139680074Y-77443847D01*
X139680074Y-77443847D02*
X139680074Y-77681942D01*
X139680074Y-77681942D02*
X139632455Y-77777180D01*
X139632455Y-77777180D02*
X139584836Y-77824800D01*
X139584836Y-77824800D02*
X139489598Y-77872419D01*
X139489598Y-77872419D02*
X139203884Y-77872419D01*
X139203884Y-77872419D02*
X139108646Y-77824800D01*
X139108646Y-77824800D02*
X139061027Y-77777180D01*
D13*
X168240225Y-54700828D02*
X169097368Y-54700828D01*
X168668796Y-56200828D02*
X168668796Y-54700828D01*
X169883082Y-54700828D02*
X170168796Y-54700828D01*
X170168796Y-54700828D02*
X170311653Y-54772257D01*
X170311653Y-54772257D02*
X170454510Y-54915114D01*
X170454510Y-54915114D02*
X170525939Y-55200828D01*
X170525939Y-55200828D02*
X170525939Y-55700828D01*
X170525939Y-55700828D02*
X170454510Y-55986542D01*
X170454510Y-55986542D02*
X170311653Y-56129400D01*
X170311653Y-56129400D02*
X170168796Y-56200828D01*
X170168796Y-56200828D02*
X169883082Y-56200828D01*
X169883082Y-56200828D02*
X169740225Y-56129400D01*
X169740225Y-56129400D02*
X169597367Y-55986542D01*
X169597367Y-55986542D02*
X169525939Y-55700828D01*
X169525939Y-55700828D02*
X169525939Y-55200828D01*
X169525939Y-55200828D02*
X169597367Y-54915114D01*
X169597367Y-54915114D02*
X169740225Y-54772257D01*
X169740225Y-54772257D02*
X169883082Y-54700828D01*
X171168796Y-56200828D02*
X171168796Y-54700828D01*
X171168796Y-54700828D02*
X171740225Y-54700828D01*
X171740225Y-54700828D02*
X171883082Y-54772257D01*
X171883082Y-54772257D02*
X171954511Y-54843685D01*
X171954511Y-54843685D02*
X172025939Y-54986542D01*
X172025939Y-54986542D02*
X172025939Y-55200828D01*
X172025939Y-55200828D02*
X171954511Y-55343685D01*
X171954511Y-55343685D02*
X171883082Y-55415114D01*
X171883082Y-55415114D02*
X171740225Y-55486542D01*
X171740225Y-55486542D02*
X171168796Y-55486542D01*
D10*
X150861027Y-109772419D02*
X151432455Y-109772419D01*
X151146741Y-110772419D02*
X151146741Y-109772419D01*
X116189598Y-54172419D02*
X116189598Y-54886704D01*
X116189598Y-54886704D02*
X116141979Y-55029561D01*
X116141979Y-55029561D02*
X116046741Y-55124800D01*
X116046741Y-55124800D02*
X115903884Y-55172419D01*
X115903884Y-55172419D02*
X115808646Y-55172419D01*
X117189598Y-55172419D02*
X116618170Y-55172419D01*
X116903884Y-55172419D02*
X116903884Y-54172419D01*
X116903884Y-54172419D02*
X116808646Y-54315276D01*
X116808646Y-54315276D02*
X116713408Y-54410514D01*
X116713408Y-54410514D02*
X116618170Y-54458133D01*
X139061027Y-87072419D02*
X139727693Y-87072419D01*
X139727693Y-87072419D02*
X139299122Y-88072419D01*
D13*
X160340225Y-140972257D02*
X160197368Y-140900828D01*
X160197368Y-140900828D02*
X159983082Y-140900828D01*
X159983082Y-140900828D02*
X159768796Y-140972257D01*
X159768796Y-140972257D02*
X159625939Y-141115114D01*
X159625939Y-141115114D02*
X159554510Y-141257971D01*
X159554510Y-141257971D02*
X159483082Y-141543685D01*
X159483082Y-141543685D02*
X159483082Y-141757971D01*
X159483082Y-141757971D02*
X159554510Y-142043685D01*
X159554510Y-142043685D02*
X159625939Y-142186542D01*
X159625939Y-142186542D02*
X159768796Y-142329400D01*
X159768796Y-142329400D02*
X159983082Y-142400828D01*
X159983082Y-142400828D02*
X160125939Y-142400828D01*
X160125939Y-142400828D02*
X160340225Y-142329400D01*
X160340225Y-142329400D02*
X160411653Y-142257971D01*
X160411653Y-142257971D02*
X160411653Y-141757971D01*
X160411653Y-141757971D02*
X160125939Y-141757971D01*
X161054510Y-142400828D02*
X161054510Y-140900828D01*
X161054510Y-140900828D02*
X161911653Y-142400828D01*
X161911653Y-142400828D02*
X161911653Y-140900828D01*
X162625939Y-142400828D02*
X162625939Y-140900828D01*
X162625939Y-140900828D02*
X162983082Y-140900828D01*
X162983082Y-140900828D02*
X163197368Y-140972257D01*
X163197368Y-140972257D02*
X163340225Y-141115114D01*
X163340225Y-141115114D02*
X163411654Y-141257971D01*
X163411654Y-141257971D02*
X163483082Y-141543685D01*
X163483082Y-141543685D02*
X163483082Y-141757971D01*
X163483082Y-141757971D02*
X163411654Y-142043685D01*
X163411654Y-142043685D02*
X163340225Y-142186542D01*
X163340225Y-142186542D02*
X163197368Y-142329400D01*
X163197368Y-142329400D02*
X162983082Y-142400828D01*
X162983082Y-142400828D02*
X162625939Y-142400828D01*
D10*
X150908646Y-119872419D02*
X151575312Y-120872419D01*
X151575312Y-119872419D02*
X150908646Y-120872419D01*
X151480074Y-95472419D02*
X151003884Y-95472419D01*
X151003884Y-95472419D02*
X151003884Y-94472419D01*
D14*
X129954819Y-143119047D02*
X129954819Y-143595237D01*
X129954819Y-143595237D02*
X130431009Y-143642856D01*
X130431009Y-143642856D02*
X130383390Y-143595237D01*
X130383390Y-143595237D02*
X130335771Y-143499999D01*
X130335771Y-143499999D02*
X130335771Y-143261904D01*
X130335771Y-143261904D02*
X130383390Y-143166666D01*
X130383390Y-143166666D02*
X130431009Y-143119047D01*
X130431009Y-143119047D02*
X130526247Y-143071428D01*
X130526247Y-143071428D02*
X130764342Y-143071428D01*
X130764342Y-143071428D02*
X130859580Y-143119047D01*
X130859580Y-143119047D02*
X130907200Y-143166666D01*
X130907200Y-143166666D02*
X130954819Y-143261904D01*
X130954819Y-143261904D02*
X130954819Y-143499999D01*
X130954819Y-143499999D02*
X130907200Y-143595237D01*
X130907200Y-143595237D02*
X130859580Y-143642856D01*
X129954819Y-142785713D02*
X130954819Y-142452380D01*
X130954819Y-142452380D02*
X129954819Y-142119047D01*
X130954819Y-141023808D02*
X129954819Y-141023808D01*
X129954819Y-141023808D02*
X129954819Y-140642856D01*
X129954819Y-140642856D02*
X130002438Y-140547618D01*
X130002438Y-140547618D02*
X130050057Y-140499999D01*
X130050057Y-140499999D02*
X130145295Y-140452380D01*
X130145295Y-140452380D02*
X130288152Y-140452380D01*
X130288152Y-140452380D02*
X130383390Y-140499999D01*
X130383390Y-140499999D02*
X130431009Y-140547618D01*
X130431009Y-140547618D02*
X130478628Y-140642856D01*
X130478628Y-140642856D02*
X130478628Y-141023808D01*
X129954819Y-139833332D02*
X129954819Y-139642856D01*
X129954819Y-139642856D02*
X130002438Y-139547618D01*
X130002438Y-139547618D02*
X130097676Y-139452380D01*
X130097676Y-139452380D02*
X130288152Y-139404761D01*
X130288152Y-139404761D02*
X130621485Y-139404761D01*
X130621485Y-139404761D02*
X130811961Y-139452380D01*
X130811961Y-139452380D02*
X130907200Y-139547618D01*
X130907200Y-139547618D02*
X130954819Y-139642856D01*
X130954819Y-139642856D02*
X130954819Y-139833332D01*
X130954819Y-139833332D02*
X130907200Y-139928570D01*
X130907200Y-139928570D02*
X130811961Y-140023808D01*
X130811961Y-140023808D02*
X130621485Y-140071427D01*
X130621485Y-140071427D02*
X130288152Y-140071427D01*
X130288152Y-140071427D02*
X130097676Y-140023808D01*
X130097676Y-140023808D02*
X130002438Y-139928570D01*
X130002438Y-139928570D02*
X129954819Y-139833332D01*
X129954819Y-139071427D02*
X130954819Y-138833332D01*
X130954819Y-138833332D02*
X130240533Y-138642856D01*
X130240533Y-138642856D02*
X130954819Y-138452380D01*
X130954819Y-138452380D02*
X129954819Y-138214285D01*
X130431009Y-137833332D02*
X130431009Y-137499999D01*
X130954819Y-137357142D02*
X130954819Y-137833332D01*
X130954819Y-137833332D02*
X129954819Y-137833332D01*
X129954819Y-137833332D02*
X129954819Y-137357142D01*
X130954819Y-136357142D02*
X130478628Y-136690475D01*
X130954819Y-136928570D02*
X129954819Y-136928570D01*
X129954819Y-136928570D02*
X129954819Y-136547618D01*
X129954819Y-136547618D02*
X130002438Y-136452380D01*
X130002438Y-136452380D02*
X130050057Y-136404761D01*
X130050057Y-136404761D02*
X130145295Y-136357142D01*
X130145295Y-136357142D02*
X130288152Y-136357142D01*
X130288152Y-136357142D02*
X130383390Y-136404761D01*
X130383390Y-136404761D02*
X130431009Y-136452380D01*
X130431009Y-136452380D02*
X130478628Y-136547618D01*
X130478628Y-136547618D02*
X130478628Y-136928570D01*
D10*
X151575312Y-105672419D02*
X151241979Y-105196228D01*
X151003884Y-105672419D02*
X151003884Y-104672419D01*
X151003884Y-104672419D02*
X151384836Y-104672419D01*
X151384836Y-104672419D02*
X151480074Y-104720038D01*
X151480074Y-104720038D02*
X151527693Y-104767657D01*
X151527693Y-104767657D02*
X151575312Y-104862895D01*
X151575312Y-104862895D02*
X151575312Y-105005752D01*
X151575312Y-105005752D02*
X151527693Y-105100990D01*
X151527693Y-105100990D02*
X151480074Y-105148609D01*
X151480074Y-105148609D02*
X151384836Y-105196228D01*
X151384836Y-105196228D02*
X151003884Y-105196228D01*
D13*
X157654510Y-138700828D02*
X157654510Y-137200828D01*
X157654510Y-137200828D02*
X158225939Y-137200828D01*
X158225939Y-137200828D02*
X158368796Y-137272257D01*
X158368796Y-137272257D02*
X158440225Y-137343685D01*
X158440225Y-137343685D02*
X158511653Y-137486542D01*
X158511653Y-137486542D02*
X158511653Y-137700828D01*
X158511653Y-137700828D02*
X158440225Y-137843685D01*
X158440225Y-137843685D02*
X158368796Y-137915114D01*
X158368796Y-137915114D02*
X158225939Y-137986542D01*
X158225939Y-137986542D02*
X157654510Y-137986542D01*
X159154510Y-138700828D02*
X159154510Y-137700828D01*
X159154510Y-137200828D02*
X159083082Y-137272257D01*
X159083082Y-137272257D02*
X159154510Y-137343685D01*
X159154510Y-137343685D02*
X159225939Y-137272257D01*
X159225939Y-137272257D02*
X159154510Y-137200828D01*
X159154510Y-137200828D02*
X159154510Y-137343685D01*
X159868796Y-137700828D02*
X159868796Y-138700828D01*
X159868796Y-137843685D02*
X159940225Y-137772257D01*
X159940225Y-137772257D02*
X160083082Y-137700828D01*
X160083082Y-137700828D02*
X160297368Y-137700828D01*
X160297368Y-137700828D02*
X160440225Y-137772257D01*
X160440225Y-137772257D02*
X160511654Y-137915114D01*
X160511654Y-137915114D02*
X160511654Y-138700828D01*
X162368796Y-138700828D02*
X162368796Y-137200828D01*
X163225939Y-138700828D02*
X162583082Y-137843685D01*
X163225939Y-137200828D02*
X162368796Y-138057971D01*
D10*
X151194360Y-122996228D02*
X151194360Y-123472419D01*
X150861027Y-122472419D02*
X151194360Y-122996228D01*
X151194360Y-122996228D02*
X151527693Y-122472419D01*
X151003884Y-87972419D02*
X151003884Y-86972419D01*
X151003884Y-87448609D02*
X151575312Y-87448609D01*
X151575312Y-87972419D02*
X151575312Y-86972419D01*
X139632455Y-81972419D02*
X139156265Y-81972419D01*
X139156265Y-81972419D02*
X139108646Y-82448609D01*
X139108646Y-82448609D02*
X139156265Y-82400990D01*
X139156265Y-82400990D02*
X139251503Y-82353371D01*
X139251503Y-82353371D02*
X139489598Y-82353371D01*
X139489598Y-82353371D02*
X139584836Y-82400990D01*
X139584836Y-82400990D02*
X139632455Y-82448609D01*
X139632455Y-82448609D02*
X139680074Y-82543847D01*
X139680074Y-82543847D02*
X139680074Y-82781942D01*
X139680074Y-82781942D02*
X139632455Y-82877180D01*
X139632455Y-82877180D02*
X139584836Y-82924800D01*
X139584836Y-82924800D02*
X139489598Y-82972419D01*
X139489598Y-82972419D02*
X139251503Y-82972419D01*
X139251503Y-82972419D02*
X139156265Y-82924800D01*
X139156265Y-82924800D02*
X139108646Y-82877180D01*
X151575312Y-77677180D02*
X151527693Y-77724800D01*
X151527693Y-77724800D02*
X151384836Y-77772419D01*
X151384836Y-77772419D02*
X151289598Y-77772419D01*
X151289598Y-77772419D02*
X151146741Y-77724800D01*
X151146741Y-77724800D02*
X151051503Y-77629561D01*
X151051503Y-77629561D02*
X151003884Y-77534323D01*
X151003884Y-77534323D02*
X150956265Y-77343847D01*
X150956265Y-77343847D02*
X150956265Y-77200990D01*
X150956265Y-77200990D02*
X151003884Y-77010514D01*
X151003884Y-77010514D02*
X151051503Y-76915276D01*
X151051503Y-76915276D02*
X151146741Y-76820038D01*
X151146741Y-76820038D02*
X151289598Y-76772419D01*
X151289598Y-76772419D02*
X151384836Y-76772419D01*
X151384836Y-76772419D02*
X151527693Y-76820038D01*
X151527693Y-76820038D02*
X151575312Y-76867657D01*
X138727693Y-105772419D02*
X138156265Y-105772419D01*
X138441979Y-105772419D02*
X138441979Y-104772419D01*
X138441979Y-104772419D02*
X138346741Y-104915276D01*
X138346741Y-104915276D02*
X138251503Y-105010514D01*
X138251503Y-105010514D02*
X138156265Y-105058133D01*
X139584836Y-105105752D02*
X139584836Y-105772419D01*
X139346741Y-104724800D02*
X139108646Y-105439085D01*
X139108646Y-105439085D02*
X139727693Y-105439085D01*
X151003884Y-93072419D02*
X151003884Y-92072419D01*
X151575312Y-93072419D02*
X151146741Y-92500990D01*
X151575312Y-92072419D02*
X151003884Y-92643847D01*
X139584836Y-84472419D02*
X139394360Y-84472419D01*
X139394360Y-84472419D02*
X139299122Y-84520038D01*
X139299122Y-84520038D02*
X139251503Y-84567657D01*
X139251503Y-84567657D02*
X139156265Y-84710514D01*
X139156265Y-84710514D02*
X139108646Y-84900990D01*
X139108646Y-84900990D02*
X139108646Y-85281942D01*
X139108646Y-85281942D02*
X139156265Y-85377180D01*
X139156265Y-85377180D02*
X139203884Y-85424800D01*
X139203884Y-85424800D02*
X139299122Y-85472419D01*
X139299122Y-85472419D02*
X139489598Y-85472419D01*
X139489598Y-85472419D02*
X139584836Y-85424800D01*
X139584836Y-85424800D02*
X139632455Y-85377180D01*
X139632455Y-85377180D02*
X139680074Y-85281942D01*
X139680074Y-85281942D02*
X139680074Y-85043847D01*
X139680074Y-85043847D02*
X139632455Y-84948609D01*
X139632455Y-84948609D02*
X139584836Y-84900990D01*
X139584836Y-84900990D02*
X139489598Y-84853371D01*
X139489598Y-84853371D02*
X139299122Y-84853371D01*
X139299122Y-84853371D02*
X139203884Y-84900990D01*
X139203884Y-84900990D02*
X139156265Y-84948609D01*
X139156265Y-84948609D02*
X139108646Y-85043847D01*
X138156265Y-122667657D02*
X138203884Y-122620038D01*
X138203884Y-122620038D02*
X138299122Y-122572419D01*
X138299122Y-122572419D02*
X138537217Y-122572419D01*
X138537217Y-122572419D02*
X138632455Y-122620038D01*
X138632455Y-122620038D02*
X138680074Y-122667657D01*
X138680074Y-122667657D02*
X138727693Y-122762895D01*
X138727693Y-122762895D02*
X138727693Y-122858133D01*
X138727693Y-122858133D02*
X138680074Y-123000990D01*
X138680074Y-123000990D02*
X138108646Y-123572419D01*
X138108646Y-123572419D02*
X138727693Y-123572419D01*
X139680074Y-123572419D02*
X139108646Y-123572419D01*
X139394360Y-123572419D02*
X139394360Y-122572419D01*
X139394360Y-122572419D02*
X139299122Y-122715276D01*
X139299122Y-122715276D02*
X139203884Y-122810514D01*
X139203884Y-122810514D02*
X139108646Y-122858133D01*
X138727693Y-98172419D02*
X138156265Y-98172419D01*
X138441979Y-98172419D02*
X138441979Y-97172419D01*
X138441979Y-97172419D02*
X138346741Y-97315276D01*
X138346741Y-97315276D02*
X138251503Y-97410514D01*
X138251503Y-97410514D02*
X138156265Y-97458133D01*
X139680074Y-98172419D02*
X139108646Y-98172419D01*
X139394360Y-98172419D02*
X139394360Y-97172419D01*
X139394360Y-97172419D02*
X139299122Y-97315276D01*
X139299122Y-97315276D02*
X139203884Y-97410514D01*
X139203884Y-97410514D02*
X139108646Y-97458133D01*
X151056265Y-72586704D02*
X151532455Y-72586704D01*
X150961027Y-72872419D02*
X151294360Y-71872419D01*
X151294360Y-71872419D02*
X151627693Y-72872419D01*
X138727693Y-103172419D02*
X138156265Y-103172419D01*
X138441979Y-103172419D02*
X138441979Y-102172419D01*
X138441979Y-102172419D02*
X138346741Y-102315276D01*
X138346741Y-102315276D02*
X138251503Y-102410514D01*
X138251503Y-102410514D02*
X138156265Y-102458133D01*
X139061027Y-102172419D02*
X139680074Y-102172419D01*
X139680074Y-102172419D02*
X139346741Y-102553371D01*
X139346741Y-102553371D02*
X139489598Y-102553371D01*
X139489598Y-102553371D02*
X139584836Y-102600990D01*
X139584836Y-102600990D02*
X139632455Y-102648609D01*
X139632455Y-102648609D02*
X139680074Y-102743847D01*
X139680074Y-102743847D02*
X139680074Y-102981942D01*
X139680074Y-102981942D02*
X139632455Y-103077180D01*
X139632455Y-103077180D02*
X139584836Y-103124800D01*
X139584836Y-103124800D02*
X139489598Y-103172419D01*
X139489598Y-103172419D02*
X139203884Y-103172419D01*
X139203884Y-103172419D02*
X139108646Y-103124800D01*
X139108646Y-103124800D02*
X139061027Y-103077180D01*
X151289598Y-89372419D02*
X151289598Y-90086704D01*
X151289598Y-90086704D02*
X151241979Y-90229561D01*
X151241979Y-90229561D02*
X151146741Y-90324800D01*
X151146741Y-90324800D02*
X151003884Y-90372419D01*
X151003884Y-90372419D02*
X150908646Y-90372419D01*
X144989598Y-68872419D02*
X144989598Y-69586704D01*
X144989598Y-69586704D02*
X144941979Y-69729561D01*
X144941979Y-69729561D02*
X144846741Y-69824800D01*
X144846741Y-69824800D02*
X144703884Y-69872419D01*
X144703884Y-69872419D02*
X144608646Y-69872419D01*
X145370551Y-68872419D02*
X145989598Y-68872419D01*
X145989598Y-68872419D02*
X145656265Y-69253371D01*
X145656265Y-69253371D02*
X145799122Y-69253371D01*
X145799122Y-69253371D02*
X145894360Y-69300990D01*
X145894360Y-69300990D02*
X145941979Y-69348609D01*
X145941979Y-69348609D02*
X145989598Y-69443847D01*
X145989598Y-69443847D02*
X145989598Y-69681942D01*
X145989598Y-69681942D02*
X145941979Y-69777180D01*
X145941979Y-69777180D02*
X145894360Y-69824800D01*
X145894360Y-69824800D02*
X145799122Y-69872419D01*
X145799122Y-69872419D02*
X145513408Y-69872419D01*
X145513408Y-69872419D02*
X145418170Y-69824800D01*
X145418170Y-69824800D02*
X145370551Y-69777180D01*
X174589598Y-54172419D02*
X174589598Y-54886704D01*
X174589598Y-54886704D02*
X174541979Y-55029561D01*
X174541979Y-55029561D02*
X174446741Y-55124800D01*
X174446741Y-55124800D02*
X174303884Y-55172419D01*
X174303884Y-55172419D02*
X174208646Y-55172419D01*
X175018170Y-54267657D02*
X175065789Y-54220038D01*
X175065789Y-54220038D02*
X175161027Y-54172419D01*
X175161027Y-54172419D02*
X175399122Y-54172419D01*
X175399122Y-54172419D02*
X175494360Y-54220038D01*
X175494360Y-54220038D02*
X175541979Y-54267657D01*
X175541979Y-54267657D02*
X175589598Y-54362895D01*
X175589598Y-54362895D02*
X175589598Y-54458133D01*
X175589598Y-54458133D02*
X175541979Y-54600990D01*
X175541979Y-54600990D02*
X174970551Y-55172419D01*
X174970551Y-55172419D02*
X175589598Y-55172419D01*
X151337217Y-84848609D02*
X151003884Y-84848609D01*
X151003884Y-85372419D02*
X151003884Y-84372419D01*
X151003884Y-84372419D02*
X151480074Y-84372419D01*
X138727693Y-118572419D02*
X138156265Y-118572419D01*
X138441979Y-118572419D02*
X138441979Y-117572419D01*
X138441979Y-117572419D02*
X138346741Y-117715276D01*
X138346741Y-117715276D02*
X138251503Y-117810514D01*
X138251503Y-117810514D02*
X138156265Y-117858133D01*
X139203884Y-118572419D02*
X139394360Y-118572419D01*
X139394360Y-118572419D02*
X139489598Y-118524800D01*
X139489598Y-118524800D02*
X139537217Y-118477180D01*
X139537217Y-118477180D02*
X139632455Y-118334323D01*
X139632455Y-118334323D02*
X139680074Y-118143847D01*
X139680074Y-118143847D02*
X139680074Y-117762895D01*
X139680074Y-117762895D02*
X139632455Y-117667657D01*
X139632455Y-117667657D02*
X139584836Y-117620038D01*
X139584836Y-117620038D02*
X139489598Y-117572419D01*
X139489598Y-117572419D02*
X139299122Y-117572419D01*
X139299122Y-117572419D02*
X139203884Y-117620038D01*
X139203884Y-117620038D02*
X139156265Y-117667657D01*
X139156265Y-117667657D02*
X139108646Y-117762895D01*
X139108646Y-117762895D02*
X139108646Y-118000990D01*
X139108646Y-118000990D02*
X139156265Y-118096228D01*
X139156265Y-118096228D02*
X139203884Y-118143847D01*
X139203884Y-118143847D02*
X139299122Y-118191466D01*
X139299122Y-118191466D02*
X139489598Y-118191466D01*
X139489598Y-118191466D02*
X139584836Y-118143847D01*
X139584836Y-118143847D02*
X139632455Y-118096228D01*
X139632455Y-118096228D02*
X139680074Y-118000990D01*
X151003884Y-98072419D02*
X151003884Y-97072419D01*
X151003884Y-97072419D02*
X151337217Y-97786704D01*
X151337217Y-97786704D02*
X151670550Y-97072419D01*
X151670550Y-97072419D02*
X151670550Y-98072419D01*
X138156265Y-120067657D02*
X138203884Y-120020038D01*
X138203884Y-120020038D02*
X138299122Y-119972419D01*
X138299122Y-119972419D02*
X138537217Y-119972419D01*
X138537217Y-119972419D02*
X138632455Y-120020038D01*
X138632455Y-120020038D02*
X138680074Y-120067657D01*
X138680074Y-120067657D02*
X138727693Y-120162895D01*
X138727693Y-120162895D02*
X138727693Y-120258133D01*
X138727693Y-120258133D02*
X138680074Y-120400990D01*
X138680074Y-120400990D02*
X138108646Y-120972419D01*
X138108646Y-120972419D02*
X138727693Y-120972419D01*
X139346741Y-119972419D02*
X139441979Y-119972419D01*
X139441979Y-119972419D02*
X139537217Y-120020038D01*
X139537217Y-120020038D02*
X139584836Y-120067657D01*
X139584836Y-120067657D02*
X139632455Y-120162895D01*
X139632455Y-120162895D02*
X139680074Y-120353371D01*
X139680074Y-120353371D02*
X139680074Y-120591466D01*
X139680074Y-120591466D02*
X139632455Y-120781942D01*
X139632455Y-120781942D02*
X139584836Y-120877180D01*
X139584836Y-120877180D02*
X139537217Y-120924800D01*
X139537217Y-120924800D02*
X139441979Y-120972419D01*
X139441979Y-120972419D02*
X139346741Y-120972419D01*
X139346741Y-120972419D02*
X139251503Y-120924800D01*
X139251503Y-120924800D02*
X139203884Y-120877180D01*
X139203884Y-120877180D02*
X139156265Y-120781942D01*
X139156265Y-120781942D02*
X139108646Y-120591466D01*
X139108646Y-120591466D02*
X139108646Y-120353371D01*
X139108646Y-120353371D02*
X139156265Y-120162895D01*
X139156265Y-120162895D02*
X139203884Y-120067657D01*
X139203884Y-120067657D02*
X139251503Y-120020038D01*
X139251503Y-120020038D02*
X139346741Y-119972419D01*
X138727693Y-108372419D02*
X138156265Y-108372419D01*
X138441979Y-108372419D02*
X138441979Y-107372419D01*
X138441979Y-107372419D02*
X138346741Y-107515276D01*
X138346741Y-107515276D02*
X138251503Y-107610514D01*
X138251503Y-107610514D02*
X138156265Y-107658133D01*
X139632455Y-107372419D02*
X139156265Y-107372419D01*
X139156265Y-107372419D02*
X139108646Y-107848609D01*
X139108646Y-107848609D02*
X139156265Y-107800990D01*
X139156265Y-107800990D02*
X139251503Y-107753371D01*
X139251503Y-107753371D02*
X139489598Y-107753371D01*
X139489598Y-107753371D02*
X139584836Y-107800990D01*
X139584836Y-107800990D02*
X139632455Y-107848609D01*
X139632455Y-107848609D02*
X139680074Y-107943847D01*
X139680074Y-107943847D02*
X139680074Y-108181942D01*
X139680074Y-108181942D02*
X139632455Y-108277180D01*
X139632455Y-108277180D02*
X139584836Y-108324800D01*
X139584836Y-108324800D02*
X139489598Y-108372419D01*
X139489598Y-108372419D02*
X139251503Y-108372419D01*
X139251503Y-108372419D02*
X139156265Y-108324800D01*
X139156265Y-108324800D02*
X139108646Y-108277180D01*
X138727693Y-110872419D02*
X138156265Y-110872419D01*
X138441979Y-110872419D02*
X138441979Y-109872419D01*
X138441979Y-109872419D02*
X138346741Y-110015276D01*
X138346741Y-110015276D02*
X138251503Y-110110514D01*
X138251503Y-110110514D02*
X138156265Y-110158133D01*
X139584836Y-109872419D02*
X139394360Y-109872419D01*
X139394360Y-109872419D02*
X139299122Y-109920038D01*
X139299122Y-109920038D02*
X139251503Y-109967657D01*
X139251503Y-109967657D02*
X139156265Y-110110514D01*
X139156265Y-110110514D02*
X139108646Y-110300990D01*
X139108646Y-110300990D02*
X139108646Y-110681942D01*
X139108646Y-110681942D02*
X139156265Y-110777180D01*
X139156265Y-110777180D02*
X139203884Y-110824800D01*
X139203884Y-110824800D02*
X139299122Y-110872419D01*
X139299122Y-110872419D02*
X139489598Y-110872419D01*
X139489598Y-110872419D02*
X139584836Y-110824800D01*
X139584836Y-110824800D02*
X139632455Y-110777180D01*
X139632455Y-110777180D02*
X139680074Y-110681942D01*
X139680074Y-110681942D02*
X139680074Y-110443847D01*
X139680074Y-110443847D02*
X139632455Y-110348609D01*
X139632455Y-110348609D02*
X139584836Y-110300990D01*
X139584836Y-110300990D02*
X139489598Y-110253371D01*
X139489598Y-110253371D02*
X139299122Y-110253371D01*
X139299122Y-110253371D02*
X139203884Y-110300990D01*
X139203884Y-110300990D02*
X139156265Y-110348609D01*
X139156265Y-110348609D02*
X139108646Y-110443847D01*
X115822931Y-89352419D02*
X116013407Y-89352419D01*
X116013407Y-89352419D02*
X116108645Y-89304800D01*
X116108645Y-89304800D02*
X116156264Y-89257180D01*
X116156264Y-89257180D02*
X116251502Y-89114323D01*
X116251502Y-89114323D02*
X116299121Y-88923847D01*
X116299121Y-88923847D02*
X116299121Y-88542895D01*
X116299121Y-88542895D02*
X116251502Y-88447657D01*
X116251502Y-88447657D02*
X116203883Y-88400038D01*
X116203883Y-88400038D02*
X116108645Y-88352419D01*
X116108645Y-88352419D02*
X115918169Y-88352419D01*
X115918169Y-88352419D02*
X115822931Y-88400038D01*
X115822931Y-88400038D02*
X115775312Y-88447657D01*
X115775312Y-88447657D02*
X115727693Y-88542895D01*
X115727693Y-88542895D02*
X115727693Y-88780990D01*
X115727693Y-88780990D02*
X115775312Y-88876228D01*
X115775312Y-88876228D02*
X115822931Y-88923847D01*
X115822931Y-88923847D02*
X115918169Y-88971466D01*
X115918169Y-88971466D02*
X116108645Y-88971466D01*
X116108645Y-88971466D02*
X116203883Y-88923847D01*
X116203883Y-88923847D02*
X116251502Y-88876228D01*
X116251502Y-88876228D02*
X116299121Y-88780990D01*
X116299121Y-105352419D02*
X115727693Y-105352419D01*
X116013407Y-105352419D02*
X116013407Y-104352419D01*
X116013407Y-104352419D02*
X115918169Y-104495276D01*
X115918169Y-104495276D02*
X115822931Y-104590514D01*
X115822931Y-104590514D02*
X115727693Y-104638133D01*
X116632455Y-104352419D02*
X117251502Y-104352419D01*
X117251502Y-104352419D02*
X116918169Y-104733371D01*
X116918169Y-104733371D02*
X117061026Y-104733371D01*
X117061026Y-104733371D02*
X117156264Y-104780990D01*
X117156264Y-104780990D02*
X117203883Y-104828609D01*
X117203883Y-104828609D02*
X117251502Y-104923847D01*
X117251502Y-104923847D02*
X117251502Y-105161942D01*
X117251502Y-105161942D02*
X117203883Y-105257180D01*
X117203883Y-105257180D02*
X117156264Y-105304800D01*
X117156264Y-105304800D02*
X117061026Y-105352419D01*
X117061026Y-105352419D02*
X116775312Y-105352419D01*
X116775312Y-105352419D02*
X116680074Y-105304800D01*
X116680074Y-105304800D02*
X116632455Y-105257180D01*
X116227693Y-57852419D02*
X115656265Y-57852419D01*
X115941979Y-57852419D02*
X115941979Y-56852419D01*
X115941979Y-56852419D02*
X115846741Y-56995276D01*
X115846741Y-56995276D02*
X115751503Y-57090514D01*
X115751503Y-57090514D02*
X115656265Y-57138133D01*
X116370550Y-128852419D02*
X115799122Y-128852419D01*
X116084836Y-128852419D02*
X116084836Y-127852419D01*
X116084836Y-127852419D02*
X115989598Y-127995276D01*
X115989598Y-127995276D02*
X115894360Y-128090514D01*
X115894360Y-128090514D02*
X115799122Y-128138133D01*
X116846741Y-128852419D02*
X117037217Y-128852419D01*
X117037217Y-128852419D02*
X117132455Y-128804800D01*
X117132455Y-128804800D02*
X117180074Y-128757180D01*
X117180074Y-128757180D02*
X117275312Y-128614323D01*
X117275312Y-128614323D02*
X117322931Y-128423847D01*
X117322931Y-128423847D02*
X117322931Y-128042895D01*
X117322931Y-128042895D02*
X117275312Y-127947657D01*
X117275312Y-127947657D02*
X117227693Y-127900038D01*
X117227693Y-127900038D02*
X117132455Y-127852419D01*
X117132455Y-127852419D02*
X116941979Y-127852419D01*
X116941979Y-127852419D02*
X116846741Y-127900038D01*
X116846741Y-127900038D02*
X116799122Y-127947657D01*
X116799122Y-127947657D02*
X116751503Y-128042895D01*
X116751503Y-128042895D02*
X116751503Y-128280990D01*
X116751503Y-128280990D02*
X116799122Y-128376228D01*
X116799122Y-128376228D02*
X116846741Y-128423847D01*
X116846741Y-128423847D02*
X116941979Y-128471466D01*
X116941979Y-128471466D02*
X117132455Y-128471466D01*
X117132455Y-128471466D02*
X117227693Y-128423847D01*
X117227693Y-128423847D02*
X117275312Y-128376228D01*
X117275312Y-128376228D02*
X117322931Y-128280990D01*
X115656265Y-135947657D02*
X115703884Y-135900038D01*
X115703884Y-135900038D02*
X115799122Y-135852419D01*
X115799122Y-135852419D02*
X116037217Y-135852419D01*
X116037217Y-135852419D02*
X116132455Y-135900038D01*
X116132455Y-135900038D02*
X116180074Y-135947657D01*
X116180074Y-135947657D02*
X116227693Y-136042895D01*
X116227693Y-136042895D02*
X116227693Y-136138133D01*
X116227693Y-136138133D02*
X116180074Y-136280990D01*
X116180074Y-136280990D02*
X115608646Y-136852419D01*
X115608646Y-136852419D02*
X116227693Y-136852419D01*
X117180074Y-136852419D02*
X116608646Y-136852419D01*
X116894360Y-136852419D02*
X116894360Y-135852419D01*
X116894360Y-135852419D02*
X116799122Y-135995276D01*
X116799122Y-135995276D02*
X116703884Y-136090514D01*
X116703884Y-136090514D02*
X116608646Y-136138133D01*
X116370550Y-96852419D02*
X115799122Y-96852419D01*
X116084836Y-96852419D02*
X116084836Y-95852419D01*
X116084836Y-95852419D02*
X115989598Y-95995276D01*
X115989598Y-95995276D02*
X115894360Y-96090514D01*
X115894360Y-96090514D02*
X115799122Y-96138133D01*
X117322931Y-96852419D02*
X116751503Y-96852419D01*
X117037217Y-96852419D02*
X117037217Y-95852419D01*
X117037217Y-95852419D02*
X116941979Y-95995276D01*
X116941979Y-95995276D02*
X116846741Y-96090514D01*
X116846741Y-96090514D02*
X116751503Y-96138133D01*
X115680074Y-64852419D02*
X116299121Y-64852419D01*
X116299121Y-64852419D02*
X115965788Y-65233371D01*
X115965788Y-65233371D02*
X116108645Y-65233371D01*
X116108645Y-65233371D02*
X116203883Y-65280990D01*
X116203883Y-65280990D02*
X116251502Y-65328609D01*
X116251502Y-65328609D02*
X116299121Y-65423847D01*
X116299121Y-65423847D02*
X116299121Y-65661942D01*
X116299121Y-65661942D02*
X116251502Y-65757180D01*
X116251502Y-65757180D02*
X116203883Y-65804800D01*
X116203883Y-65804800D02*
X116108645Y-65852419D01*
X116108645Y-65852419D02*
X115822931Y-65852419D01*
X115822931Y-65852419D02*
X115727693Y-65804800D01*
X115727693Y-65804800D02*
X115680074Y-65757180D01*
X116322931Y-101352419D02*
X115751503Y-101352419D01*
X116037217Y-101352419D02*
X116037217Y-100352419D01*
X116037217Y-100352419D02*
X115941979Y-100495276D01*
X115941979Y-100495276D02*
X115846741Y-100590514D01*
X115846741Y-100590514D02*
X115751503Y-100638133D01*
X116703884Y-100447657D02*
X116751503Y-100400038D01*
X116751503Y-100400038D02*
X116846741Y-100352419D01*
X116846741Y-100352419D02*
X117084836Y-100352419D01*
X117084836Y-100352419D02*
X117180074Y-100400038D01*
X117180074Y-100400038D02*
X117227693Y-100447657D01*
X117227693Y-100447657D02*
X117275312Y-100542895D01*
X117275312Y-100542895D02*
X117275312Y-100638133D01*
X117275312Y-100638133D02*
X117227693Y-100780990D01*
X117227693Y-100780990D02*
X116656265Y-101352419D01*
X116656265Y-101352419D02*
X117275312Y-101352419D01*
X115703884Y-139947657D02*
X115751503Y-139900038D01*
X115751503Y-139900038D02*
X115846741Y-139852419D01*
X115846741Y-139852419D02*
X116084836Y-139852419D01*
X116084836Y-139852419D02*
X116180074Y-139900038D01*
X116180074Y-139900038D02*
X116227693Y-139947657D01*
X116227693Y-139947657D02*
X116275312Y-140042895D01*
X116275312Y-140042895D02*
X116275312Y-140138133D01*
X116275312Y-140138133D02*
X116227693Y-140280990D01*
X116227693Y-140280990D02*
X115656265Y-140852419D01*
X115656265Y-140852419D02*
X116275312Y-140852419D01*
X116656265Y-139947657D02*
X116703884Y-139900038D01*
X116703884Y-139900038D02*
X116799122Y-139852419D01*
X116799122Y-139852419D02*
X117037217Y-139852419D01*
X117037217Y-139852419D02*
X117132455Y-139900038D01*
X117132455Y-139900038D02*
X117180074Y-139947657D01*
X117180074Y-139947657D02*
X117227693Y-140042895D01*
X117227693Y-140042895D02*
X117227693Y-140138133D01*
X117227693Y-140138133D02*
X117180074Y-140280990D01*
X117180074Y-140280990D02*
X116608646Y-140852419D01*
X116608646Y-140852419D02*
X117227693Y-140852419D01*
X116203883Y-72352419D02*
X115727693Y-72352419D01*
X115727693Y-72352419D02*
X115680074Y-72828609D01*
X115680074Y-72828609D02*
X115727693Y-72780990D01*
X115727693Y-72780990D02*
X115822931Y-72733371D01*
X115822931Y-72733371D02*
X116061026Y-72733371D01*
X116061026Y-72733371D02*
X116156264Y-72780990D01*
X116156264Y-72780990D02*
X116203883Y-72828609D01*
X116203883Y-72828609D02*
X116251502Y-72923847D01*
X116251502Y-72923847D02*
X116251502Y-73161942D01*
X116251502Y-73161942D02*
X116203883Y-73257180D01*
X116203883Y-73257180D02*
X116156264Y-73304800D01*
X116156264Y-73304800D02*
X116061026Y-73352419D01*
X116061026Y-73352419D02*
X115822931Y-73352419D01*
X115822931Y-73352419D02*
X115727693Y-73304800D01*
X115727693Y-73304800D02*
X115680074Y-73257180D01*
X115703884Y-131947657D02*
X115751503Y-131900038D01*
X115751503Y-131900038D02*
X115846741Y-131852419D01*
X115846741Y-131852419D02*
X116084836Y-131852419D01*
X116084836Y-131852419D02*
X116180074Y-131900038D01*
X116180074Y-131900038D02*
X116227693Y-131947657D01*
X116227693Y-131947657D02*
X116275312Y-132042895D01*
X116275312Y-132042895D02*
X116275312Y-132138133D01*
X116275312Y-132138133D02*
X116227693Y-132280990D01*
X116227693Y-132280990D02*
X115656265Y-132852419D01*
X115656265Y-132852419D02*
X116275312Y-132852419D01*
X116894360Y-131852419D02*
X116989598Y-131852419D01*
X116989598Y-131852419D02*
X117084836Y-131900038D01*
X117084836Y-131900038D02*
X117132455Y-131947657D01*
X117132455Y-131947657D02*
X117180074Y-132042895D01*
X117180074Y-132042895D02*
X117227693Y-132233371D01*
X117227693Y-132233371D02*
X117227693Y-132471466D01*
X117227693Y-132471466D02*
X117180074Y-132661942D01*
X117180074Y-132661942D02*
X117132455Y-132757180D01*
X117132455Y-132757180D02*
X117084836Y-132804800D01*
X117084836Y-132804800D02*
X116989598Y-132852419D01*
X116989598Y-132852419D02*
X116894360Y-132852419D01*
X116894360Y-132852419D02*
X116799122Y-132804800D01*
X116799122Y-132804800D02*
X116751503Y-132757180D01*
X116751503Y-132757180D02*
X116703884Y-132661942D01*
X116703884Y-132661942D02*
X116656265Y-132471466D01*
X116656265Y-132471466D02*
X116656265Y-132233371D01*
X116656265Y-132233371D02*
X116703884Y-132042895D01*
X116703884Y-132042895D02*
X116751503Y-131947657D01*
X116751503Y-131947657D02*
X116799122Y-131900038D01*
X116799122Y-131900038D02*
X116894360Y-131852419D01*
X115703884Y-80352419D02*
X116370550Y-80352419D01*
X116370550Y-80352419D02*
X115941979Y-81352419D01*
X116132455Y-76352419D02*
X115941979Y-76352419D01*
X115941979Y-76352419D02*
X115846741Y-76400038D01*
X115846741Y-76400038D02*
X115799122Y-76447657D01*
X115799122Y-76447657D02*
X115703884Y-76590514D01*
X115703884Y-76590514D02*
X115656265Y-76780990D01*
X115656265Y-76780990D02*
X115656265Y-77161942D01*
X115656265Y-77161942D02*
X115703884Y-77257180D01*
X115703884Y-77257180D02*
X115751503Y-77304800D01*
X115751503Y-77304800D02*
X115846741Y-77352419D01*
X115846741Y-77352419D02*
X116037217Y-77352419D01*
X116037217Y-77352419D02*
X116132455Y-77304800D01*
X116132455Y-77304800D02*
X116180074Y-77257180D01*
X116180074Y-77257180D02*
X116227693Y-77161942D01*
X116227693Y-77161942D02*
X116227693Y-76923847D01*
X116227693Y-76923847D02*
X116180074Y-76828609D01*
X116180074Y-76828609D02*
X116132455Y-76780990D01*
X116132455Y-76780990D02*
X116037217Y-76733371D01*
X116037217Y-76733371D02*
X115846741Y-76733371D01*
X115846741Y-76733371D02*
X115751503Y-76780990D01*
X115751503Y-76780990D02*
X115703884Y-76828609D01*
X115703884Y-76828609D02*
X115656265Y-76923847D01*
X116275312Y-113352419D02*
X115703884Y-113352419D01*
X115989598Y-113352419D02*
X115989598Y-112352419D01*
X115989598Y-112352419D02*
X115894360Y-112495276D01*
X115894360Y-112495276D02*
X115799122Y-112590514D01*
X115799122Y-112590514D02*
X115703884Y-112638133D01*
X117180074Y-112352419D02*
X116703884Y-112352419D01*
X116703884Y-112352419D02*
X116656265Y-112828609D01*
X116656265Y-112828609D02*
X116703884Y-112780990D01*
X116703884Y-112780990D02*
X116799122Y-112733371D01*
X116799122Y-112733371D02*
X117037217Y-112733371D01*
X117037217Y-112733371D02*
X117132455Y-112780990D01*
X117132455Y-112780990D02*
X117180074Y-112828609D01*
X117180074Y-112828609D02*
X117227693Y-112923847D01*
X117227693Y-112923847D02*
X117227693Y-113161942D01*
X117227693Y-113161942D02*
X117180074Y-113257180D01*
X117180074Y-113257180D02*
X117132455Y-113304800D01*
X117132455Y-113304800D02*
X117037217Y-113352419D01*
X117037217Y-113352419D02*
X116799122Y-113352419D01*
X116799122Y-113352419D02*
X116703884Y-113304800D01*
X116703884Y-113304800D02*
X116656265Y-113257180D01*
X115799122Y-84780990D02*
X115703884Y-84733371D01*
X115703884Y-84733371D02*
X115656265Y-84685752D01*
X115656265Y-84685752D02*
X115608646Y-84590514D01*
X115608646Y-84590514D02*
X115608646Y-84542895D01*
X115608646Y-84542895D02*
X115656265Y-84447657D01*
X115656265Y-84447657D02*
X115703884Y-84400038D01*
X115703884Y-84400038D02*
X115799122Y-84352419D01*
X115799122Y-84352419D02*
X115989598Y-84352419D01*
X115989598Y-84352419D02*
X116084836Y-84400038D01*
X116084836Y-84400038D02*
X116132455Y-84447657D01*
X116132455Y-84447657D02*
X116180074Y-84542895D01*
X116180074Y-84542895D02*
X116180074Y-84590514D01*
X116180074Y-84590514D02*
X116132455Y-84685752D01*
X116132455Y-84685752D02*
X116084836Y-84733371D01*
X116084836Y-84733371D02*
X115989598Y-84780990D01*
X115989598Y-84780990D02*
X115799122Y-84780990D01*
X115799122Y-84780990D02*
X115703884Y-84828609D01*
X115703884Y-84828609D02*
X115656265Y-84876228D01*
X115656265Y-84876228D02*
X115608646Y-84971466D01*
X115608646Y-84971466D02*
X115608646Y-85161942D01*
X115608646Y-85161942D02*
X115656265Y-85257180D01*
X115656265Y-85257180D02*
X115703884Y-85304800D01*
X115703884Y-85304800D02*
X115799122Y-85352419D01*
X115799122Y-85352419D02*
X115989598Y-85352419D01*
X115989598Y-85352419D02*
X116084836Y-85304800D01*
X116084836Y-85304800D02*
X116132455Y-85257180D01*
X116132455Y-85257180D02*
X116180074Y-85161942D01*
X116180074Y-85161942D02*
X116180074Y-84971466D01*
X116180074Y-84971466D02*
X116132455Y-84876228D01*
X116132455Y-84876228D02*
X116084836Y-84828609D01*
X116084836Y-84828609D02*
X115989598Y-84780990D01*
X116203883Y-92852419D02*
X115632455Y-92852419D01*
X115918169Y-92852419D02*
X115918169Y-91852419D01*
X115918169Y-91852419D02*
X115822931Y-91995276D01*
X115822931Y-91995276D02*
X115727693Y-92090514D01*
X115727693Y-92090514D02*
X115632455Y-92138133D01*
X116822931Y-91852419D02*
X116918169Y-91852419D01*
X116918169Y-91852419D02*
X117013407Y-91900038D01*
X117013407Y-91900038D02*
X117061026Y-91947657D01*
X117061026Y-91947657D02*
X117108645Y-92042895D01*
X117108645Y-92042895D02*
X117156264Y-92233371D01*
X117156264Y-92233371D02*
X117156264Y-92471466D01*
X117156264Y-92471466D02*
X117108645Y-92661942D01*
X117108645Y-92661942D02*
X117061026Y-92757180D01*
X117061026Y-92757180D02*
X117013407Y-92804800D01*
X117013407Y-92804800D02*
X116918169Y-92852419D01*
X116918169Y-92852419D02*
X116822931Y-92852419D01*
X116822931Y-92852419D02*
X116727693Y-92804800D01*
X116727693Y-92804800D02*
X116680074Y-92757180D01*
X116680074Y-92757180D02*
X116632455Y-92661942D01*
X116632455Y-92661942D02*
X116584836Y-92471466D01*
X116584836Y-92471466D02*
X116584836Y-92233371D01*
X116584836Y-92233371D02*
X116632455Y-92042895D01*
X116632455Y-92042895D02*
X116680074Y-91947657D01*
X116680074Y-91947657D02*
X116727693Y-91900038D01*
X116727693Y-91900038D02*
X116822931Y-91852419D01*
X115727693Y-60947657D02*
X115775312Y-60900038D01*
X115775312Y-60900038D02*
X115870550Y-60852419D01*
X115870550Y-60852419D02*
X116108645Y-60852419D01*
X116108645Y-60852419D02*
X116203883Y-60900038D01*
X116203883Y-60900038D02*
X116251502Y-60947657D01*
X116251502Y-60947657D02*
X116299121Y-61042895D01*
X116299121Y-61042895D02*
X116299121Y-61138133D01*
X116299121Y-61138133D02*
X116251502Y-61280990D01*
X116251502Y-61280990D02*
X115680074Y-61852419D01*
X115680074Y-61852419D02*
X116299121Y-61852419D01*
X116180074Y-117352419D02*
X115608646Y-117352419D01*
X115894360Y-117352419D02*
X115894360Y-116352419D01*
X115894360Y-116352419D02*
X115799122Y-116495276D01*
X115799122Y-116495276D02*
X115703884Y-116590514D01*
X115703884Y-116590514D02*
X115608646Y-116638133D01*
X117037217Y-116352419D02*
X116846741Y-116352419D01*
X116846741Y-116352419D02*
X116751503Y-116400038D01*
X116751503Y-116400038D02*
X116703884Y-116447657D01*
X116703884Y-116447657D02*
X116608646Y-116590514D01*
X116608646Y-116590514D02*
X116561027Y-116780990D01*
X116561027Y-116780990D02*
X116561027Y-117161942D01*
X116561027Y-117161942D02*
X116608646Y-117257180D01*
X116608646Y-117257180D02*
X116656265Y-117304800D01*
X116656265Y-117304800D02*
X116751503Y-117352419D01*
X116751503Y-117352419D02*
X116941979Y-117352419D01*
X116941979Y-117352419D02*
X117037217Y-117304800D01*
X117037217Y-117304800D02*
X117084836Y-117257180D01*
X117084836Y-117257180D02*
X117132455Y-117161942D01*
X117132455Y-117161942D02*
X117132455Y-116923847D01*
X117132455Y-116923847D02*
X117084836Y-116828609D01*
X117084836Y-116828609D02*
X117037217Y-116780990D01*
X117037217Y-116780990D02*
X116941979Y-116733371D01*
X116941979Y-116733371D02*
X116751503Y-116733371D01*
X116751503Y-116733371D02*
X116656265Y-116780990D01*
X116656265Y-116780990D02*
X116608646Y-116828609D01*
X116608646Y-116828609D02*
X116561027Y-116923847D01*
X116203883Y-68685752D02*
X116203883Y-69352419D01*
X115965788Y-68304800D02*
X115727693Y-69019085D01*
X115727693Y-69019085D02*
X116346740Y-69019085D01*
X116322931Y-121352419D02*
X115751503Y-121352419D01*
X116037217Y-121352419D02*
X116037217Y-120352419D01*
X116037217Y-120352419D02*
X115941979Y-120495276D01*
X115941979Y-120495276D02*
X115846741Y-120590514D01*
X115846741Y-120590514D02*
X115751503Y-120638133D01*
X116656265Y-120352419D02*
X117322931Y-120352419D01*
X117322931Y-120352419D02*
X116894360Y-121352419D01*
X116227693Y-124852419D02*
X115656265Y-124852419D01*
X115941979Y-124852419D02*
X115941979Y-123852419D01*
X115941979Y-123852419D02*
X115846741Y-123995276D01*
X115846741Y-123995276D02*
X115751503Y-124090514D01*
X115751503Y-124090514D02*
X115656265Y-124138133D01*
X116799122Y-124280990D02*
X116703884Y-124233371D01*
X116703884Y-124233371D02*
X116656265Y-124185752D01*
X116656265Y-124185752D02*
X116608646Y-124090514D01*
X116608646Y-124090514D02*
X116608646Y-124042895D01*
X116608646Y-124042895D02*
X116656265Y-123947657D01*
X116656265Y-123947657D02*
X116703884Y-123900038D01*
X116703884Y-123900038D02*
X116799122Y-123852419D01*
X116799122Y-123852419D02*
X116989598Y-123852419D01*
X116989598Y-123852419D02*
X117084836Y-123900038D01*
X117084836Y-123900038D02*
X117132455Y-123947657D01*
X117132455Y-123947657D02*
X117180074Y-124042895D01*
X117180074Y-124042895D02*
X117180074Y-124090514D01*
X117180074Y-124090514D02*
X117132455Y-124185752D01*
X117132455Y-124185752D02*
X117084836Y-124233371D01*
X117084836Y-124233371D02*
X116989598Y-124280990D01*
X116989598Y-124280990D02*
X116799122Y-124280990D01*
X116799122Y-124280990D02*
X116703884Y-124328609D01*
X116703884Y-124328609D02*
X116656265Y-124376228D01*
X116656265Y-124376228D02*
X116608646Y-124471466D01*
X116608646Y-124471466D02*
X116608646Y-124661942D01*
X116608646Y-124661942D02*
X116656265Y-124757180D01*
X116656265Y-124757180D02*
X116703884Y-124804800D01*
X116703884Y-124804800D02*
X116799122Y-124852419D01*
X116799122Y-124852419D02*
X116989598Y-124852419D01*
X116989598Y-124852419D02*
X117084836Y-124804800D01*
X117084836Y-124804800D02*
X117132455Y-124757180D01*
X117132455Y-124757180D02*
X117180074Y-124661942D01*
X117180074Y-124661942D02*
X117180074Y-124471466D01*
X117180074Y-124471466D02*
X117132455Y-124376228D01*
X117132455Y-124376228D02*
X117084836Y-124328609D01*
X117084836Y-124328609D02*
X116989598Y-124280990D01*
X116299121Y-109352419D02*
X115727693Y-109352419D01*
X116013407Y-109352419D02*
X116013407Y-108352419D01*
X116013407Y-108352419D02*
X115918169Y-108495276D01*
X115918169Y-108495276D02*
X115822931Y-108590514D01*
X115822931Y-108590514D02*
X115727693Y-108638133D01*
X117156264Y-108685752D02*
X117156264Y-109352419D01*
X116918169Y-108304800D02*
X116680074Y-109019085D01*
X116680074Y-109019085D02*
X117299121Y-109019085D01*
D14*
X124116666Y-128004819D02*
X124116666Y-128719104D01*
X124116666Y-128719104D02*
X124069047Y-128861961D01*
X124069047Y-128861961D02*
X123973809Y-128957200D01*
X123973809Y-128957200D02*
X123830952Y-129004819D01*
X123830952Y-129004819D02*
X123735714Y-129004819D01*
X125021428Y-128338152D02*
X125021428Y-129004819D01*
X124783333Y-127957200D02*
X124545238Y-128671485D01*
X124545238Y-128671485D02*
X125164285Y-128671485D01*
X133487200Y-140690832D02*
X133534819Y-140547975D01*
X133534819Y-140547975D02*
X133534819Y-140309880D01*
X133534819Y-140309880D02*
X133487200Y-140214642D01*
X133487200Y-140214642D02*
X133439580Y-140167023D01*
X133439580Y-140167023D02*
X133344342Y-140119404D01*
X133344342Y-140119404D02*
X133249104Y-140119404D01*
X133249104Y-140119404D02*
X133153866Y-140167023D01*
X133153866Y-140167023D02*
X133106247Y-140214642D01*
X133106247Y-140214642D02*
X133058628Y-140309880D01*
X133058628Y-140309880D02*
X133011009Y-140500356D01*
X133011009Y-140500356D02*
X132963390Y-140595594D01*
X132963390Y-140595594D02*
X132915771Y-140643213D01*
X132915771Y-140643213D02*
X132820533Y-140690832D01*
X132820533Y-140690832D02*
X132725295Y-140690832D01*
X132725295Y-140690832D02*
X132630057Y-140643213D01*
X132630057Y-140643213D02*
X132582438Y-140595594D01*
X132582438Y-140595594D02*
X132534819Y-140500356D01*
X132534819Y-140500356D02*
X132534819Y-140262261D01*
X132534819Y-140262261D02*
X132582438Y-140119404D01*
X132534819Y-139786070D02*
X133534819Y-139547975D01*
X133534819Y-139547975D02*
X132820533Y-139357499D01*
X132820533Y-139357499D02*
X133534819Y-139167023D01*
X133534819Y-139167023D02*
X132534819Y-138928928D01*
X133534819Y-138024166D02*
X133534819Y-138595594D01*
X133534819Y-138309880D02*
X132534819Y-138309880D01*
X132534819Y-138309880D02*
X132677676Y-138405118D01*
X132677676Y-138405118D02*
X132772914Y-138500356D01*
X132772914Y-138500356D02*
X132820533Y-138595594D01*
X122684819Y-109866666D02*
X122208628Y-110199999D01*
X122684819Y-110438094D02*
X121684819Y-110438094D01*
X121684819Y-110438094D02*
X121684819Y-110057142D01*
X121684819Y-110057142D02*
X121732438Y-109961904D01*
X121732438Y-109961904D02*
X121780057Y-109914285D01*
X121780057Y-109914285D02*
X121875295Y-109866666D01*
X121875295Y-109866666D02*
X122018152Y-109866666D01*
X122018152Y-109866666D02*
X122113390Y-109914285D01*
X122113390Y-109914285D02*
X122161009Y-109961904D01*
X122161009Y-109961904D02*
X122208628Y-110057142D01*
X122208628Y-110057142D02*
X122208628Y-110438094D01*
X122684819Y-108914285D02*
X122684819Y-109485713D01*
X122684819Y-109199999D02*
X121684819Y-109199999D01*
X121684819Y-109199999D02*
X121827676Y-109295237D01*
X121827676Y-109295237D02*
X121922914Y-109390475D01*
X121922914Y-109390475D02*
X121970533Y-109485713D01*
X127424819Y-109914285D02*
X127424819Y-110485713D01*
X127424819Y-110199999D02*
X126424819Y-110199999D01*
X126424819Y-110199999D02*
X126567676Y-110295237D01*
X126567676Y-110295237D02*
X126662914Y-110390475D01*
X126662914Y-110390475D02*
X126710533Y-110485713D01*
X127424819Y-109485713D02*
X126424819Y-109485713D01*
X127424819Y-108914285D02*
X126853390Y-109342856D01*
X126424819Y-108914285D02*
X126996247Y-109485713D01*
X135024819Y-122438094D02*
X134024819Y-122438094D01*
X134024819Y-122438094D02*
X134024819Y-122199999D01*
X134024819Y-122199999D02*
X134072438Y-122057142D01*
X134072438Y-122057142D02*
X134167676Y-121961904D01*
X134167676Y-121961904D02*
X134262914Y-121914285D01*
X134262914Y-121914285D02*
X134453390Y-121866666D01*
X134453390Y-121866666D02*
X134596247Y-121866666D01*
X134596247Y-121866666D02*
X134786723Y-121914285D01*
X134786723Y-121914285D02*
X134881961Y-121961904D01*
X134881961Y-121961904D02*
X134977200Y-122057142D01*
X134977200Y-122057142D02*
X135024819Y-122199999D01*
X135024819Y-122199999D02*
X135024819Y-122438094D01*
X134120057Y-121485713D02*
X134072438Y-121438094D01*
X134072438Y-121438094D02*
X134024819Y-121342856D01*
X134024819Y-121342856D02*
X134024819Y-121104761D01*
X134024819Y-121104761D02*
X134072438Y-121009523D01*
X134072438Y-121009523D02*
X134120057Y-120961904D01*
X134120057Y-120961904D02*
X134215295Y-120914285D01*
X134215295Y-120914285D02*
X134310533Y-120914285D01*
X134310533Y-120914285D02*
X134453390Y-120961904D01*
X134453390Y-120961904D02*
X135024819Y-121533332D01*
X135024819Y-121533332D02*
X135024819Y-120914285D01*
X130084819Y-123842857D02*
X130084819Y-124414285D01*
X130084819Y-124128571D02*
X129084819Y-124128571D01*
X129084819Y-124128571D02*
X129227676Y-124223809D01*
X129227676Y-124223809D02*
X129322914Y-124319047D01*
X129322914Y-124319047D02*
X129370533Y-124414285D01*
X130084819Y-123414285D02*
X129084819Y-123414285D01*
X129084819Y-123414285D02*
X130084819Y-122842857D01*
X130084819Y-122842857D02*
X129084819Y-122842857D01*
X129084819Y-121890476D02*
X129084819Y-122366666D01*
X129084819Y-122366666D02*
X129561009Y-122414285D01*
X129561009Y-122414285D02*
X129513390Y-122366666D01*
X129513390Y-122366666D02*
X129465771Y-122271428D01*
X129465771Y-122271428D02*
X129465771Y-122033333D01*
X129465771Y-122033333D02*
X129513390Y-121938095D01*
X129513390Y-121938095D02*
X129561009Y-121890476D01*
X129561009Y-121890476D02*
X129656247Y-121842857D01*
X129656247Y-121842857D02*
X129894342Y-121842857D01*
X129894342Y-121842857D02*
X129989580Y-121890476D01*
X129989580Y-121890476D02*
X130037200Y-121938095D01*
X130037200Y-121938095D02*
X130084819Y-122033333D01*
X130084819Y-122033333D02*
X130084819Y-122271428D01*
X130084819Y-122271428D02*
X130037200Y-122366666D01*
X130037200Y-122366666D02*
X129989580Y-122414285D01*
X129513390Y-121271428D02*
X129465771Y-121366666D01*
X129465771Y-121366666D02*
X129418152Y-121414285D01*
X129418152Y-121414285D02*
X129322914Y-121461904D01*
X129322914Y-121461904D02*
X129275295Y-121461904D01*
X129275295Y-121461904D02*
X129180057Y-121414285D01*
X129180057Y-121414285D02*
X129132438Y-121366666D01*
X129132438Y-121366666D02*
X129084819Y-121271428D01*
X129084819Y-121271428D02*
X129084819Y-121080952D01*
X129084819Y-121080952D02*
X129132438Y-120985714D01*
X129132438Y-120985714D02*
X129180057Y-120938095D01*
X129180057Y-120938095D02*
X129275295Y-120890476D01*
X129275295Y-120890476D02*
X129322914Y-120890476D01*
X129322914Y-120890476D02*
X129418152Y-120938095D01*
X129418152Y-120938095D02*
X129465771Y-120985714D01*
X129465771Y-120985714D02*
X129513390Y-121080952D01*
X129513390Y-121080952D02*
X129513390Y-121271428D01*
X129513390Y-121271428D02*
X129561009Y-121366666D01*
X129561009Y-121366666D02*
X129608628Y-121414285D01*
X129608628Y-121414285D02*
X129703866Y-121461904D01*
X129703866Y-121461904D02*
X129894342Y-121461904D01*
X129894342Y-121461904D02*
X129989580Y-121414285D01*
X129989580Y-121414285D02*
X130037200Y-121366666D01*
X130037200Y-121366666D02*
X130084819Y-121271428D01*
X130084819Y-121271428D02*
X130084819Y-121080952D01*
X130084819Y-121080952D02*
X130037200Y-120985714D01*
X130037200Y-120985714D02*
X129989580Y-120938095D01*
X129989580Y-120938095D02*
X129894342Y-120890476D01*
X129894342Y-120890476D02*
X129703866Y-120890476D01*
X129703866Y-120890476D02*
X129608628Y-120938095D01*
X129608628Y-120938095D02*
X129561009Y-120985714D01*
X129561009Y-120985714D02*
X129513390Y-121080952D01*
X130084819Y-119938095D02*
X130084819Y-120509523D01*
X130084819Y-120223809D02*
X129084819Y-120223809D01*
X129084819Y-120223809D02*
X129227676Y-120319047D01*
X129227676Y-120319047D02*
X129322914Y-120414285D01*
X129322914Y-120414285D02*
X129370533Y-120509523D01*
X130084819Y-119461904D02*
X130084819Y-119271428D01*
X130084819Y-119271428D02*
X130037200Y-119176190D01*
X130037200Y-119176190D02*
X129989580Y-119128571D01*
X129989580Y-119128571D02*
X129846723Y-119033333D01*
X129846723Y-119033333D02*
X129656247Y-118985714D01*
X129656247Y-118985714D02*
X129275295Y-118985714D01*
X129275295Y-118985714D02*
X129180057Y-119033333D01*
X129180057Y-119033333D02*
X129132438Y-119080952D01*
X129132438Y-119080952D02*
X129084819Y-119176190D01*
X129084819Y-119176190D02*
X129084819Y-119366666D01*
X129084819Y-119366666D02*
X129132438Y-119461904D01*
X129132438Y-119461904D02*
X129180057Y-119509523D01*
X129180057Y-119509523D02*
X129275295Y-119557142D01*
X129275295Y-119557142D02*
X129513390Y-119557142D01*
X129513390Y-119557142D02*
X129608628Y-119509523D01*
X129608628Y-119509523D02*
X129656247Y-119461904D01*
X129656247Y-119461904D02*
X129703866Y-119366666D01*
X129703866Y-119366666D02*
X129703866Y-119176190D01*
X129703866Y-119176190D02*
X129656247Y-119080952D01*
X129656247Y-119080952D02*
X129608628Y-119033333D01*
X129608628Y-119033333D02*
X129513390Y-118985714D01*
X134654819Y-118151904D02*
X133654819Y-118151904D01*
X134654819Y-117580476D02*
X134083390Y-118009047D01*
X133654819Y-117580476D02*
X134226247Y-118151904D01*
X165866666Y-135384819D02*
X165866666Y-136099104D01*
X165866666Y-136099104D02*
X165819047Y-136241961D01*
X165819047Y-136241961D02*
X165723809Y-136337200D01*
X165723809Y-136337200D02*
X165580952Y-136384819D01*
X165580952Y-136384819D02*
X165485714Y-136384819D01*
X166819047Y-135384819D02*
X166342857Y-135384819D01*
X166342857Y-135384819D02*
X166295238Y-135861009D01*
X166295238Y-135861009D02*
X166342857Y-135813390D01*
X166342857Y-135813390D02*
X166438095Y-135765771D01*
X166438095Y-135765771D02*
X166676190Y-135765771D01*
X166676190Y-135765771D02*
X166771428Y-135813390D01*
X166771428Y-135813390D02*
X166819047Y-135861009D01*
X166819047Y-135861009D02*
X166866666Y-135956247D01*
X166866666Y-135956247D02*
X166866666Y-136194342D01*
X166866666Y-136194342D02*
X166819047Y-136289580D01*
X166819047Y-136289580D02*
X166771428Y-136337200D01*
X166771428Y-136337200D02*
X166676190Y-136384819D01*
X166676190Y-136384819D02*
X166438095Y-136384819D01*
X166438095Y-136384819D02*
X166342857Y-136337200D01*
X166342857Y-136337200D02*
X166295238Y-136289580D01*
D10*
X174219925Y-109292419D02*
X173648497Y-109292419D01*
X173934211Y-109292419D02*
X173934211Y-108292419D01*
X173934211Y-108292419D02*
X173838973Y-108435276D01*
X173838973Y-108435276D02*
X173743735Y-108530514D01*
X173743735Y-108530514D02*
X173648497Y-108578133D01*
X175077068Y-108625752D02*
X175077068Y-109292419D01*
X174838973Y-108244800D02*
X174600878Y-108959085D01*
X174600878Y-108959085D02*
X175219925Y-108959085D01*
X175148496Y-76292419D02*
X174958020Y-76292419D01*
X174958020Y-76292419D02*
X174862782Y-76340038D01*
X174862782Y-76340038D02*
X174815163Y-76387657D01*
X174815163Y-76387657D02*
X174719925Y-76530514D01*
X174719925Y-76530514D02*
X174672306Y-76720990D01*
X174672306Y-76720990D02*
X174672306Y-77101942D01*
X174672306Y-77101942D02*
X174719925Y-77197180D01*
X174719925Y-77197180D02*
X174767544Y-77244800D01*
X174767544Y-77244800D02*
X174862782Y-77292419D01*
X174862782Y-77292419D02*
X175053258Y-77292419D01*
X175053258Y-77292419D02*
X175148496Y-77244800D01*
X175148496Y-77244800D02*
X175196115Y-77197180D01*
X175196115Y-77197180D02*
X175243734Y-77101942D01*
X175243734Y-77101942D02*
X175243734Y-76863847D01*
X175243734Y-76863847D02*
X175196115Y-76768609D01*
X175196115Y-76768609D02*
X175148496Y-76720990D01*
X175148496Y-76720990D02*
X175053258Y-76673371D01*
X175053258Y-76673371D02*
X174862782Y-76673371D01*
X174862782Y-76673371D02*
X174767544Y-76720990D01*
X174767544Y-76720990D02*
X174719925Y-76768609D01*
X174719925Y-76768609D02*
X174672306Y-76863847D01*
X175243734Y-57792419D02*
X174672306Y-57792419D01*
X174958020Y-57792419D02*
X174958020Y-56792419D01*
X174958020Y-56792419D02*
X174862782Y-56935276D01*
X174862782Y-56935276D02*
X174767544Y-57030514D01*
X174767544Y-57030514D02*
X174672306Y-57078133D01*
X174315163Y-92792419D02*
X173743735Y-92792419D01*
X174029449Y-92792419D02*
X174029449Y-91792419D01*
X174029449Y-91792419D02*
X173934211Y-91935276D01*
X173934211Y-91935276D02*
X173838973Y-92030514D01*
X173838973Y-92030514D02*
X173743735Y-92078133D01*
X174934211Y-91792419D02*
X175029449Y-91792419D01*
X175029449Y-91792419D02*
X175124687Y-91840038D01*
X175124687Y-91840038D02*
X175172306Y-91887657D01*
X175172306Y-91887657D02*
X175219925Y-91982895D01*
X175219925Y-91982895D02*
X175267544Y-92173371D01*
X175267544Y-92173371D02*
X175267544Y-92411466D01*
X175267544Y-92411466D02*
X175219925Y-92601942D01*
X175219925Y-92601942D02*
X175172306Y-92697180D01*
X175172306Y-92697180D02*
X175124687Y-92744800D01*
X175124687Y-92744800D02*
X175029449Y-92792419D01*
X175029449Y-92792419D02*
X174934211Y-92792419D01*
X174934211Y-92792419D02*
X174838973Y-92744800D01*
X174838973Y-92744800D02*
X174791354Y-92697180D01*
X174791354Y-92697180D02*
X174743735Y-92601942D01*
X174743735Y-92601942D02*
X174696116Y-92411466D01*
X174696116Y-92411466D02*
X174696116Y-92173371D01*
X174696116Y-92173371D02*
X174743735Y-91982895D01*
X174743735Y-91982895D02*
X174791354Y-91887657D01*
X174791354Y-91887657D02*
X174838973Y-91840038D01*
X174838973Y-91840038D02*
X174934211Y-91792419D01*
X173672306Y-131887657D02*
X173719925Y-131840038D01*
X173719925Y-131840038D02*
X173815163Y-131792419D01*
X173815163Y-131792419D02*
X174053258Y-131792419D01*
X174053258Y-131792419D02*
X174148496Y-131840038D01*
X174148496Y-131840038D02*
X174196115Y-131887657D01*
X174196115Y-131887657D02*
X174243734Y-131982895D01*
X174243734Y-131982895D02*
X174243734Y-132078133D01*
X174243734Y-132078133D02*
X174196115Y-132220990D01*
X174196115Y-132220990D02*
X173624687Y-132792419D01*
X173624687Y-132792419D02*
X174243734Y-132792419D01*
X174862782Y-131792419D02*
X174958020Y-131792419D01*
X174958020Y-131792419D02*
X175053258Y-131840038D01*
X175053258Y-131840038D02*
X175100877Y-131887657D01*
X175100877Y-131887657D02*
X175148496Y-131982895D01*
X175148496Y-131982895D02*
X175196115Y-132173371D01*
X175196115Y-132173371D02*
X175196115Y-132411466D01*
X175196115Y-132411466D02*
X175148496Y-132601942D01*
X175148496Y-132601942D02*
X175100877Y-132697180D01*
X175100877Y-132697180D02*
X175053258Y-132744800D01*
X175053258Y-132744800D02*
X174958020Y-132792419D01*
X174958020Y-132792419D02*
X174862782Y-132792419D01*
X174862782Y-132792419D02*
X174767544Y-132744800D01*
X174767544Y-132744800D02*
X174719925Y-132697180D01*
X174719925Y-132697180D02*
X174672306Y-132601942D01*
X174672306Y-132601942D02*
X174624687Y-132411466D01*
X174624687Y-132411466D02*
X174624687Y-132173371D01*
X174624687Y-132173371D02*
X174672306Y-131982895D01*
X174672306Y-131982895D02*
X174719925Y-131887657D01*
X174719925Y-131887657D02*
X174767544Y-131840038D01*
X174767544Y-131840038D02*
X174862782Y-131792419D01*
X174196115Y-121292419D02*
X173624687Y-121292419D01*
X173910401Y-121292419D02*
X173910401Y-120292419D01*
X173910401Y-120292419D02*
X173815163Y-120435276D01*
X173815163Y-120435276D02*
X173719925Y-120530514D01*
X173719925Y-120530514D02*
X173624687Y-120578133D01*
X174529449Y-120292419D02*
X175196115Y-120292419D01*
X175196115Y-120292419D02*
X174767544Y-121292419D01*
X173672306Y-139887657D02*
X173719925Y-139840038D01*
X173719925Y-139840038D02*
X173815163Y-139792419D01*
X173815163Y-139792419D02*
X174053258Y-139792419D01*
X174053258Y-139792419D02*
X174148496Y-139840038D01*
X174148496Y-139840038D02*
X174196115Y-139887657D01*
X174196115Y-139887657D02*
X174243734Y-139982895D01*
X174243734Y-139982895D02*
X174243734Y-140078133D01*
X174243734Y-140078133D02*
X174196115Y-140220990D01*
X174196115Y-140220990D02*
X173624687Y-140792419D01*
X173624687Y-140792419D02*
X174243734Y-140792419D01*
X174624687Y-139887657D02*
X174672306Y-139840038D01*
X174672306Y-139840038D02*
X174767544Y-139792419D01*
X174767544Y-139792419D02*
X175005639Y-139792419D01*
X175005639Y-139792419D02*
X175100877Y-139840038D01*
X175100877Y-139840038D02*
X175148496Y-139887657D01*
X175148496Y-139887657D02*
X175196115Y-139982895D01*
X175196115Y-139982895D02*
X175196115Y-140078133D01*
X175196115Y-140078133D02*
X175148496Y-140220990D01*
X175148496Y-140220990D02*
X174577068Y-140792419D01*
X174577068Y-140792419D02*
X175196115Y-140792419D01*
X175077068Y-68625752D02*
X175077068Y-69292419D01*
X174838973Y-68244800D02*
X174600878Y-68959085D01*
X174600878Y-68959085D02*
X175219925Y-68959085D01*
X174148496Y-96792419D02*
X173577068Y-96792419D01*
X173862782Y-96792419D02*
X173862782Y-95792419D01*
X173862782Y-95792419D02*
X173767544Y-95935276D01*
X173767544Y-95935276D02*
X173672306Y-96030514D01*
X173672306Y-96030514D02*
X173577068Y-96078133D01*
X175100877Y-96792419D02*
X174529449Y-96792419D01*
X174815163Y-96792419D02*
X174815163Y-95792419D01*
X174815163Y-95792419D02*
X174719925Y-95935276D01*
X174719925Y-95935276D02*
X174624687Y-96030514D01*
X174624687Y-96030514D02*
X174529449Y-96078133D01*
X174196115Y-101292419D02*
X173624687Y-101292419D01*
X173910401Y-101292419D02*
X173910401Y-100292419D01*
X173910401Y-100292419D02*
X173815163Y-100435276D01*
X173815163Y-100435276D02*
X173719925Y-100530514D01*
X173719925Y-100530514D02*
X173624687Y-100578133D01*
X174577068Y-100387657D02*
X174624687Y-100340038D01*
X174624687Y-100340038D02*
X174719925Y-100292419D01*
X174719925Y-100292419D02*
X174958020Y-100292419D01*
X174958020Y-100292419D02*
X175053258Y-100340038D01*
X175053258Y-100340038D02*
X175100877Y-100387657D01*
X175100877Y-100387657D02*
X175148496Y-100482895D01*
X175148496Y-100482895D02*
X175148496Y-100578133D01*
X175148496Y-100578133D02*
X175100877Y-100720990D01*
X175100877Y-100720990D02*
X174529449Y-101292419D01*
X174529449Y-101292419D02*
X175148496Y-101292419D01*
X174910401Y-84720990D02*
X174815163Y-84673371D01*
X174815163Y-84673371D02*
X174767544Y-84625752D01*
X174767544Y-84625752D02*
X174719925Y-84530514D01*
X174719925Y-84530514D02*
X174719925Y-84482895D01*
X174719925Y-84482895D02*
X174767544Y-84387657D01*
X174767544Y-84387657D02*
X174815163Y-84340038D01*
X174815163Y-84340038D02*
X174910401Y-84292419D01*
X174910401Y-84292419D02*
X175100877Y-84292419D01*
X175100877Y-84292419D02*
X175196115Y-84340038D01*
X175196115Y-84340038D02*
X175243734Y-84387657D01*
X175243734Y-84387657D02*
X175291353Y-84482895D01*
X175291353Y-84482895D02*
X175291353Y-84530514D01*
X175291353Y-84530514D02*
X175243734Y-84625752D01*
X175243734Y-84625752D02*
X175196115Y-84673371D01*
X175196115Y-84673371D02*
X175100877Y-84720990D01*
X175100877Y-84720990D02*
X174910401Y-84720990D01*
X174910401Y-84720990D02*
X174815163Y-84768609D01*
X174815163Y-84768609D02*
X174767544Y-84816228D01*
X174767544Y-84816228D02*
X174719925Y-84911466D01*
X174719925Y-84911466D02*
X174719925Y-85101942D01*
X174719925Y-85101942D02*
X174767544Y-85197180D01*
X174767544Y-85197180D02*
X174815163Y-85244800D01*
X174815163Y-85244800D02*
X174910401Y-85292419D01*
X174910401Y-85292419D02*
X175100877Y-85292419D01*
X175100877Y-85292419D02*
X175196115Y-85244800D01*
X175196115Y-85244800D02*
X175243734Y-85197180D01*
X175243734Y-85197180D02*
X175291353Y-85101942D01*
X175291353Y-85101942D02*
X175291353Y-84911466D01*
X175291353Y-84911466D02*
X175243734Y-84816228D01*
X175243734Y-84816228D02*
X175196115Y-84768609D01*
X175196115Y-84768609D02*
X175100877Y-84720990D01*
X175172306Y-72292419D02*
X174696116Y-72292419D01*
X174696116Y-72292419D02*
X174648497Y-72768609D01*
X174648497Y-72768609D02*
X174696116Y-72720990D01*
X174696116Y-72720990D02*
X174791354Y-72673371D01*
X174791354Y-72673371D02*
X175029449Y-72673371D01*
X175029449Y-72673371D02*
X175124687Y-72720990D01*
X175124687Y-72720990D02*
X175172306Y-72768609D01*
X175172306Y-72768609D02*
X175219925Y-72863847D01*
X175219925Y-72863847D02*
X175219925Y-73101942D01*
X175219925Y-73101942D02*
X175172306Y-73197180D01*
X175172306Y-73197180D02*
X175124687Y-73244800D01*
X175124687Y-73244800D02*
X175029449Y-73292419D01*
X175029449Y-73292419D02*
X174791354Y-73292419D01*
X174791354Y-73292419D02*
X174696116Y-73244800D01*
X174696116Y-73244800D02*
X174648497Y-73197180D01*
X174529449Y-80292419D02*
X175196115Y-80292419D01*
X175196115Y-80292419D02*
X174767544Y-81292419D01*
X174243734Y-113292419D02*
X173672306Y-113292419D01*
X173958020Y-113292419D02*
X173958020Y-112292419D01*
X173958020Y-112292419D02*
X173862782Y-112435276D01*
X173862782Y-112435276D02*
X173767544Y-112530514D01*
X173767544Y-112530514D02*
X173672306Y-112578133D01*
X175148496Y-112292419D02*
X174672306Y-112292419D01*
X174672306Y-112292419D02*
X174624687Y-112768609D01*
X174624687Y-112768609D02*
X174672306Y-112720990D01*
X174672306Y-112720990D02*
X174767544Y-112673371D01*
X174767544Y-112673371D02*
X175005639Y-112673371D01*
X175005639Y-112673371D02*
X175100877Y-112720990D01*
X175100877Y-112720990D02*
X175148496Y-112768609D01*
X175148496Y-112768609D02*
X175196115Y-112863847D01*
X175196115Y-112863847D02*
X175196115Y-113101942D01*
X175196115Y-113101942D02*
X175148496Y-113197180D01*
X175148496Y-113197180D02*
X175100877Y-113244800D01*
X175100877Y-113244800D02*
X175005639Y-113292419D01*
X175005639Y-113292419D02*
X174767544Y-113292419D01*
X174767544Y-113292419D02*
X174672306Y-113244800D01*
X174672306Y-113244800D02*
X174624687Y-113197180D01*
X174696116Y-89292419D02*
X174886592Y-89292419D01*
X174886592Y-89292419D02*
X174981830Y-89244800D01*
X174981830Y-89244800D02*
X175029449Y-89197180D01*
X175029449Y-89197180D02*
X175124687Y-89054323D01*
X175124687Y-89054323D02*
X175172306Y-88863847D01*
X175172306Y-88863847D02*
X175172306Y-88482895D01*
X175172306Y-88482895D02*
X175124687Y-88387657D01*
X175124687Y-88387657D02*
X175077068Y-88340038D01*
X175077068Y-88340038D02*
X174981830Y-88292419D01*
X174981830Y-88292419D02*
X174791354Y-88292419D01*
X174791354Y-88292419D02*
X174696116Y-88340038D01*
X174696116Y-88340038D02*
X174648497Y-88387657D01*
X174648497Y-88387657D02*
X174600878Y-88482895D01*
X174600878Y-88482895D02*
X174600878Y-88720990D01*
X174600878Y-88720990D02*
X174648497Y-88816228D01*
X174648497Y-88816228D02*
X174696116Y-88863847D01*
X174696116Y-88863847D02*
X174791354Y-88911466D01*
X174791354Y-88911466D02*
X174981830Y-88911466D01*
X174981830Y-88911466D02*
X175077068Y-88863847D01*
X175077068Y-88863847D02*
X175124687Y-88816228D01*
X175124687Y-88816228D02*
X175172306Y-88720990D01*
X174338972Y-117292419D02*
X173767544Y-117292419D01*
X174053258Y-117292419D02*
X174053258Y-116292419D01*
X174053258Y-116292419D02*
X173958020Y-116435276D01*
X173958020Y-116435276D02*
X173862782Y-116530514D01*
X173862782Y-116530514D02*
X173767544Y-116578133D01*
X175196115Y-116292419D02*
X175005639Y-116292419D01*
X175005639Y-116292419D02*
X174910401Y-116340038D01*
X174910401Y-116340038D02*
X174862782Y-116387657D01*
X174862782Y-116387657D02*
X174767544Y-116530514D01*
X174767544Y-116530514D02*
X174719925Y-116720990D01*
X174719925Y-116720990D02*
X174719925Y-117101942D01*
X174719925Y-117101942D02*
X174767544Y-117197180D01*
X174767544Y-117197180D02*
X174815163Y-117244800D01*
X174815163Y-117244800D02*
X174910401Y-117292419D01*
X174910401Y-117292419D02*
X175100877Y-117292419D01*
X175100877Y-117292419D02*
X175196115Y-117244800D01*
X175196115Y-117244800D02*
X175243734Y-117197180D01*
X175243734Y-117197180D02*
X175291353Y-117101942D01*
X175291353Y-117101942D02*
X175291353Y-116863847D01*
X175291353Y-116863847D02*
X175243734Y-116768609D01*
X175243734Y-116768609D02*
X175196115Y-116720990D01*
X175196115Y-116720990D02*
X175100877Y-116673371D01*
X175100877Y-116673371D02*
X174910401Y-116673371D01*
X174910401Y-116673371D02*
X174815163Y-116720990D01*
X174815163Y-116720990D02*
X174767544Y-116768609D01*
X174767544Y-116768609D02*
X174719925Y-116863847D01*
X174600878Y-60887657D02*
X174648497Y-60840038D01*
X174648497Y-60840038D02*
X174743735Y-60792419D01*
X174743735Y-60792419D02*
X174981830Y-60792419D01*
X174981830Y-60792419D02*
X175077068Y-60840038D01*
X175077068Y-60840038D02*
X175124687Y-60887657D01*
X175124687Y-60887657D02*
X175172306Y-60982895D01*
X175172306Y-60982895D02*
X175172306Y-61078133D01*
X175172306Y-61078133D02*
X175124687Y-61220990D01*
X175124687Y-61220990D02*
X174553259Y-61792419D01*
X174553259Y-61792419D02*
X175172306Y-61792419D01*
X174553259Y-64792419D02*
X175172306Y-64792419D01*
X175172306Y-64792419D02*
X174838973Y-65173371D01*
X174838973Y-65173371D02*
X174981830Y-65173371D01*
X174981830Y-65173371D02*
X175077068Y-65220990D01*
X175077068Y-65220990D02*
X175124687Y-65268609D01*
X175124687Y-65268609D02*
X175172306Y-65363847D01*
X175172306Y-65363847D02*
X175172306Y-65601942D01*
X175172306Y-65601942D02*
X175124687Y-65697180D01*
X175124687Y-65697180D02*
X175077068Y-65744800D01*
X175077068Y-65744800D02*
X174981830Y-65792419D01*
X174981830Y-65792419D02*
X174696116Y-65792419D01*
X174696116Y-65792419D02*
X174600878Y-65744800D01*
X174600878Y-65744800D02*
X174553259Y-65697180D01*
X174219925Y-105292419D02*
X173648497Y-105292419D01*
X173934211Y-105292419D02*
X173934211Y-104292419D01*
X173934211Y-104292419D02*
X173838973Y-104435276D01*
X173838973Y-104435276D02*
X173743735Y-104530514D01*
X173743735Y-104530514D02*
X173648497Y-104578133D01*
X174553259Y-104292419D02*
X175172306Y-104292419D01*
X175172306Y-104292419D02*
X174838973Y-104673371D01*
X174838973Y-104673371D02*
X174981830Y-104673371D01*
X174981830Y-104673371D02*
X175077068Y-104720990D01*
X175077068Y-104720990D02*
X175124687Y-104768609D01*
X175124687Y-104768609D02*
X175172306Y-104863847D01*
X175172306Y-104863847D02*
X175172306Y-105101942D01*
X175172306Y-105101942D02*
X175124687Y-105197180D01*
X175124687Y-105197180D02*
X175077068Y-105244800D01*
X175077068Y-105244800D02*
X174981830Y-105292419D01*
X174981830Y-105292419D02*
X174696116Y-105292419D01*
X174696116Y-105292419D02*
X174600878Y-105244800D01*
X174600878Y-105244800D02*
X174553259Y-105197180D01*
X174148496Y-128792419D02*
X173577068Y-128792419D01*
X173862782Y-128792419D02*
X173862782Y-127792419D01*
X173862782Y-127792419D02*
X173767544Y-127935276D01*
X173767544Y-127935276D02*
X173672306Y-128030514D01*
X173672306Y-128030514D02*
X173577068Y-128078133D01*
X174624687Y-128792419D02*
X174815163Y-128792419D01*
X174815163Y-128792419D02*
X174910401Y-128744800D01*
X174910401Y-128744800D02*
X174958020Y-128697180D01*
X174958020Y-128697180D02*
X175053258Y-128554323D01*
X175053258Y-128554323D02*
X175100877Y-128363847D01*
X175100877Y-128363847D02*
X175100877Y-127982895D01*
X175100877Y-127982895D02*
X175053258Y-127887657D01*
X175053258Y-127887657D02*
X175005639Y-127840038D01*
X175005639Y-127840038D02*
X174910401Y-127792419D01*
X174910401Y-127792419D02*
X174719925Y-127792419D01*
X174719925Y-127792419D02*
X174624687Y-127840038D01*
X174624687Y-127840038D02*
X174577068Y-127887657D01*
X174577068Y-127887657D02*
X174529449Y-127982895D01*
X174529449Y-127982895D02*
X174529449Y-128220990D01*
X174529449Y-128220990D02*
X174577068Y-128316228D01*
X174577068Y-128316228D02*
X174624687Y-128363847D01*
X174624687Y-128363847D02*
X174719925Y-128411466D01*
X174719925Y-128411466D02*
X174910401Y-128411466D01*
X174910401Y-128411466D02*
X175005639Y-128363847D01*
X175005639Y-128363847D02*
X175053258Y-128316228D01*
X175053258Y-128316228D02*
X175100877Y-128220990D01*
X174291353Y-124792419D02*
X173719925Y-124792419D01*
X174005639Y-124792419D02*
X174005639Y-123792419D01*
X174005639Y-123792419D02*
X173910401Y-123935276D01*
X173910401Y-123935276D02*
X173815163Y-124030514D01*
X173815163Y-124030514D02*
X173719925Y-124078133D01*
X174862782Y-124220990D02*
X174767544Y-124173371D01*
X174767544Y-124173371D02*
X174719925Y-124125752D01*
X174719925Y-124125752D02*
X174672306Y-124030514D01*
X174672306Y-124030514D02*
X174672306Y-123982895D01*
X174672306Y-123982895D02*
X174719925Y-123887657D01*
X174719925Y-123887657D02*
X174767544Y-123840038D01*
X174767544Y-123840038D02*
X174862782Y-123792419D01*
X174862782Y-123792419D02*
X175053258Y-123792419D01*
X175053258Y-123792419D02*
X175148496Y-123840038D01*
X175148496Y-123840038D02*
X175196115Y-123887657D01*
X175196115Y-123887657D02*
X175243734Y-123982895D01*
X175243734Y-123982895D02*
X175243734Y-124030514D01*
X175243734Y-124030514D02*
X175196115Y-124125752D01*
X175196115Y-124125752D02*
X175148496Y-124173371D01*
X175148496Y-124173371D02*
X175053258Y-124220990D01*
X175053258Y-124220990D02*
X174862782Y-124220990D01*
X174862782Y-124220990D02*
X174767544Y-124268609D01*
X174767544Y-124268609D02*
X174719925Y-124316228D01*
X174719925Y-124316228D02*
X174672306Y-124411466D01*
X174672306Y-124411466D02*
X174672306Y-124601942D01*
X174672306Y-124601942D02*
X174719925Y-124697180D01*
X174719925Y-124697180D02*
X174767544Y-124744800D01*
X174767544Y-124744800D02*
X174862782Y-124792419D01*
X174862782Y-124792419D02*
X175053258Y-124792419D01*
X175053258Y-124792419D02*
X175148496Y-124744800D01*
X175148496Y-124744800D02*
X175196115Y-124697180D01*
X175196115Y-124697180D02*
X175243734Y-124601942D01*
X175243734Y-124601942D02*
X175243734Y-124411466D01*
X175243734Y-124411466D02*
X175196115Y-124316228D01*
X175196115Y-124316228D02*
X175148496Y-124268609D01*
X175148496Y-124268609D02*
X175053258Y-124220990D01*
X173719925Y-135887657D02*
X173767544Y-135840038D01*
X173767544Y-135840038D02*
X173862782Y-135792419D01*
X173862782Y-135792419D02*
X174100877Y-135792419D01*
X174100877Y-135792419D02*
X174196115Y-135840038D01*
X174196115Y-135840038D02*
X174243734Y-135887657D01*
X174243734Y-135887657D02*
X174291353Y-135982895D01*
X174291353Y-135982895D02*
X174291353Y-136078133D01*
X174291353Y-136078133D02*
X174243734Y-136220990D01*
X174243734Y-136220990D02*
X173672306Y-136792419D01*
X173672306Y-136792419D02*
X174291353Y-136792419D01*
X175243734Y-136792419D02*
X174672306Y-136792419D01*
X174958020Y-136792419D02*
X174958020Y-135792419D01*
X174958020Y-135792419D02*
X174862782Y-135935276D01*
X174862782Y-135935276D02*
X174767544Y-136030514D01*
X174767544Y-136030514D02*
X174672306Y-136078133D01*
D14*
X123856905Y-118994819D02*
X123856905Y-117994819D01*
X123856905Y-117994819D02*
X124095000Y-117994819D01*
X124095000Y-117994819D02*
X124237857Y-118042438D01*
X124237857Y-118042438D02*
X124333095Y-118137676D01*
X124333095Y-118137676D02*
X124380714Y-118232914D01*
X124380714Y-118232914D02*
X124428333Y-118423390D01*
X124428333Y-118423390D02*
X124428333Y-118566247D01*
X124428333Y-118566247D02*
X124380714Y-118756723D01*
X124380714Y-118756723D02*
X124333095Y-118851961D01*
X124333095Y-118851961D02*
X124237857Y-118947200D01*
X124237857Y-118947200D02*
X124095000Y-118994819D01*
X124095000Y-118994819D02*
X123856905Y-118994819D01*
X125380714Y-118994819D02*
X124809286Y-118994819D01*
X125095000Y-118994819D02*
X125095000Y-117994819D01*
X125095000Y-117994819D02*
X124999762Y-118137676D01*
X124999762Y-118137676D02*
X124904524Y-118232914D01*
X124904524Y-118232914D02*
X124809286Y-118280533D01*
X123952142Y-125914819D02*
X123475952Y-125914819D01*
X123475952Y-125914819D02*
X123475952Y-124914819D01*
X124285476Y-125391009D02*
X124618809Y-125391009D01*
X124761666Y-125914819D02*
X124285476Y-125914819D01*
X124285476Y-125914819D02*
X124285476Y-124914819D01*
X124285476Y-124914819D02*
X124761666Y-124914819D01*
X125190238Y-125914819D02*
X125190238Y-124914819D01*
X125190238Y-124914819D02*
X125428333Y-124914819D01*
X125428333Y-124914819D02*
X125571190Y-124962438D01*
X125571190Y-124962438D02*
X125666428Y-125057676D01*
X125666428Y-125057676D02*
X125714047Y-125152914D01*
X125714047Y-125152914D02*
X125761666Y-125343390D01*
X125761666Y-125343390D02*
X125761666Y-125486247D01*
X125761666Y-125486247D02*
X125714047Y-125676723D01*
X125714047Y-125676723D02*
X125666428Y-125771961D01*
X125666428Y-125771961D02*
X125571190Y-125867200D01*
X125571190Y-125867200D02*
X125428333Y-125914819D01*
X125428333Y-125914819D02*
X125190238Y-125914819D01*
D10*
X145766666Y-128497419D02*
X145766666Y-129211704D01*
X145766666Y-129211704D02*
X145719047Y-129354561D01*
X145719047Y-129354561D02*
X145623809Y-129449800D01*
X145623809Y-129449800D02*
X145480952Y-129497419D01*
X145480952Y-129497419D02*
X145385714Y-129497419D01*
X146147619Y-128497419D02*
X146766666Y-128497419D01*
X146766666Y-128497419D02*
X146433333Y-128878371D01*
X146433333Y-128878371D02*
X146576190Y-128878371D01*
X146576190Y-128878371D02*
X146671428Y-128925990D01*
X146671428Y-128925990D02*
X146719047Y-128973609D01*
X146719047Y-128973609D02*
X146766666Y-129068847D01*
X146766666Y-129068847D02*
X146766666Y-129306942D01*
X146766666Y-129306942D02*
X146719047Y-129402180D01*
X146719047Y-129402180D02*
X146671428Y-129449800D01*
X146671428Y-129449800D02*
X146576190Y-129497419D01*
X146576190Y-129497419D02*
X146290476Y-129497419D01*
X146290476Y-129497419D02*
X146195238Y-129449800D01*
X146195238Y-129449800D02*
X146147619Y-129402180D01*
D15*
G04 #@! TO.C,J4*
X119550000Y-130050000D02*
X119550000Y-131350000D01*
X119850000Y-130350000D02*
X121850000Y-130350000D01*
X119850000Y-144850000D02*
X119850000Y-130350000D01*
X121250000Y-130050000D02*
X119550000Y-130050000D01*
X127050000Y-130350000D02*
X129050000Y-130350000D01*
X129050000Y-130350000D02*
X129050000Y-131650000D01*
X129050000Y-136250000D02*
X129050000Y-144850000D01*
X129050000Y-144850000D02*
X119850000Y-144850000D01*
G04 #@! TO.C,SW1*
X133840000Y-144547500D02*
X133840000Y-143163500D01*
X133840000Y-144547500D02*
X135223000Y-144547500D01*
X134080000Y-134407500D02*
X138920000Y-134407500D01*
X134080000Y-144307500D02*
X134080000Y-134407500D01*
X134080000Y-144307500D02*
X138920000Y-144307500D01*
X135865000Y-137327500D02*
X135865000Y-141387500D01*
X135865000Y-140034167D02*
X137135000Y-140034167D01*
X135865000Y-141387500D02*
X137135000Y-141387500D01*
X135985000Y-141387500D02*
X135985000Y-140034167D01*
X136105000Y-141387500D02*
X136105000Y-140034167D01*
X136225000Y-141387500D02*
X136225000Y-140034167D01*
X136345000Y-141387500D02*
X136345000Y-140034167D01*
X136465000Y-141387500D02*
X136465000Y-140034167D01*
X136585000Y-141387500D02*
X136585000Y-140034167D01*
X136705000Y-141387500D02*
X136705000Y-140034167D01*
X136825000Y-141387500D02*
X136825000Y-140034167D01*
X136945000Y-141387500D02*
X136945000Y-140034167D01*
X137065000Y-141387500D02*
X137065000Y-140034167D01*
X137135000Y-137327500D02*
X135865000Y-137327500D01*
X137135000Y-141387500D02*
X137135000Y-137327500D01*
X138920000Y-144307500D02*
X138920000Y-134407500D01*
G04 #@! TO.C,R1*
X123230000Y-106430000D02*
X123230000Y-112970000D01*
X123230000Y-112970000D02*
X125970000Y-112970000D01*
X124600000Y-105660000D02*
X124600000Y-106430000D01*
X124600000Y-113740000D02*
X124600000Y-112970000D01*
X125970000Y-106430000D02*
X123230000Y-106430000D01*
X125970000Y-112970000D02*
X125970000Y-106430000D01*
G04 #@! TO.C,D2*
X130630000Y-118980000D02*
X130630000Y-124420000D01*
X130630000Y-124420000D02*
X130760000Y-124420000D01*
X130760000Y-118980000D02*
X130630000Y-118980000D01*
X133440000Y-118980000D02*
X133570000Y-118980000D01*
X133570000Y-118980000D02*
X133570000Y-124420000D01*
X133570000Y-119760000D02*
X130630000Y-119760000D01*
X133570000Y-119880000D02*
X130630000Y-119880000D01*
X133570000Y-120000000D02*
X130630000Y-120000000D01*
X133570000Y-124420000D02*
X133440000Y-124420000D01*
G04 #@! TO.C,J5*
X164870000Y-136930000D02*
X166200000Y-136930000D01*
X164870000Y-138260000D02*
X164870000Y-136930000D01*
X164870000Y-139530000D02*
X164870000Y-142130000D01*
X164870000Y-139530000D02*
X167530000Y-139530000D01*
X164870000Y-142130000D02*
X167530000Y-142130000D01*
X167530000Y-139530000D02*
X167530000Y-142130000D01*
G04 #@! TO.C,D1*
X122535000Y-120601000D02*
X122535000Y-120920000D01*
X122535000Y-123080000D02*
X122535000Y-123399000D01*
X122535000Y-120601251D02*
G75*
G02*
X126838242Y-120919276I2060000J-1398749D01*
G01*
X122911670Y-120920000D02*
G75*
G02*
X126277713Y-120919039I1683330J-1080000D01*
G01*
X126277713Y-123080961D02*
G75*
G02*
X122911670Y-123080000I-1682713J1080961D01*
G01*
X126838242Y-123080724D02*
G75*
G02*
X122535000Y-123398749I-2243242J1080724D01*
G01*
G04 #@! TO.C,J3*
X143070000Y-71210000D02*
X144400000Y-71210000D01*
X143070000Y-72540000D02*
X143070000Y-71210000D01*
X143070000Y-73810000D02*
X143070000Y-127210000D01*
X143070000Y-73810000D02*
X145670000Y-73810000D01*
X143070000Y-127210000D02*
X148270000Y-127210000D01*
X145670000Y-71210000D02*
X148270000Y-71210000D01*
X145670000Y-73810000D02*
X145670000Y-71210000D01*
X148270000Y-71210000D02*
X148270000Y-127210000D01*
G04 #@! TD*
M02*
